%TF.GenerationSoftware,KiCad,Pcbnew,10.0.1*%
%TF.CreationDate,2026-05-19T15:36:42-04:00*%
%TF.ProjectId,flipper_infinity_pcb,666c6970-7065-4725-9f69-6e66696e6974,rev?*%
%TF.SameCoordinates,Original*%
%TF.FileFunction,Other,User*%
%FSLAX46Y46*%
G04 Gerber Fmt 4.6, Leading zero omitted, Abs format (unit mm)*
G04 Created by KiCad (PCBNEW 10.0.1) date 2026-05-19 15:36:42*
%MOMM*%
%LPD*%
G01*
G04 APERTURE LIST*
%ADD10C,0.050000*%
G04 APERTURE END LIST*
%TO.C,A1*%
D10*
X139660000Y-121250000D02*
X139660000Y-139530000D01*
X139660000Y-121250000D02*
X93440000Y-121250000D01*
X93440000Y-139530000D02*
X139660000Y-139530000D01*
X93440000Y-139530000D02*
X93440000Y-121250000D01*
%TO.C,REF\u002A\u002A*%
X75450000Y-46000000D02*
G75*
G02*
X70550000Y-46000000I-2450000J0D01*
G01*
X70550000Y-46000000D02*
G75*
G02*
X75450000Y-46000000I2450000J0D01*
G01*
X138450000Y-46000000D02*
G75*
G02*
X133550000Y-46000000I-2450000J0D01*
G01*
X133550000Y-46000000D02*
G75*
G02*
X138450000Y-46000000I2450000J0D01*
G01*
%TO.C,J2*%
X125690000Y-61610000D02*
X131780000Y-61610000D01*
X131780000Y-72770000D01*
X125690000Y-72770000D01*
X125690000Y-61610000D01*
%TO.C,C4*%
X133250000Y-118500000D02*
G75*
G02*
X127750000Y-118500000I-2750000J0D01*
G01*
X127750000Y-118500000D02*
G75*
G02*
X133250000Y-118500000I2750000J0D01*
G01*
%TO.C,C1*%
X131800000Y-62520000D02*
X135200000Y-62520000D01*
X135200000Y-64480000D01*
X131800000Y-64480000D01*
X131800000Y-62520000D01*
%TO.C,J3*%
X84650000Y-48730000D02*
X93270000Y-48730000D01*
X93270000Y-52270000D01*
X84650000Y-52270000D01*
X84650000Y-48730000D01*
%TO.C,R1*%
X71500000Y-120870000D02*
X74500000Y-120870000D01*
X74500000Y-133130000D01*
X71500000Y-133130000D01*
X71500000Y-120870000D01*
%TO.C,C3*%
X133020000Y-96800000D02*
X134980000Y-96800000D01*
X134980000Y-100200000D01*
X133020000Y-100200000D01*
X133020000Y-96800000D01*
%TO.C,R4*%
X83500000Y-120870000D02*
X86500000Y-120870000D01*
X86500000Y-133130000D01*
X83500000Y-133130000D01*
X83500000Y-120870000D01*
%TO.C,R2*%
X75500000Y-120870000D02*
X78500000Y-120870000D01*
X78500000Y-133130000D01*
X75500000Y-133130000D01*
X75500000Y-120870000D01*
%TO.C,R3*%
X79500000Y-120870000D02*
X82500000Y-120870000D01*
X82500000Y-133130000D01*
X79500000Y-133130000D01*
X79500000Y-120870000D01*
%TO.C,J4*%
X119650000Y-48730000D02*
X128270000Y-48730000D01*
X128270000Y-52270000D01*
X119650000Y-52270000D01*
X119650000Y-48730000D01*
%TO.C,BT1*%
X72730000Y-136230000D02*
X78820000Y-136230000D01*
X78820000Y-139770000D01*
X72730000Y-139770000D01*
X72730000Y-136230000D01*
%TO.C,J5*%
X85560000Y-58730000D02*
X122140000Y-58730000D01*
X122140000Y-62270000D01*
X85560000Y-62270000D01*
X85560000Y-58730000D01*
%TO.C,J1*%
X129230000Y-85530000D02*
X132770000Y-85530000D01*
X132770000Y-106850000D01*
X129230000Y-106850000D01*
X129230000Y-85530000D01*
%TD*%
M02*
