%TF.GenerationSoftware,KiCad,Pcbnew,10.0.1*%
%TF.CreationDate,2026-05-19T15:36:42-04:00*%
%TF.ProjectId,flipper_infinity_pcb,666c6970-7065-4725-9f69-6e66696e6974,rev?*%
%TF.SameCoordinates,Original*%
%TF.FileFunction,Copper,L2,Bot*%
%TF.FilePolarity,Positive*%
%FSLAX46Y46*%
G04 Gerber Fmt 4.6, Leading zero omitted, Abs format (unit mm)*
G04 Created by KiCad (PCBNEW 10.0.1) date 2026-05-19 15:36:42*
%MOMM*%
%LPD*%
G01*
G04 APERTURE LIST*
G04 Aperture macros list*
%AMRoundRect*
0 Rectangle with rounded corners*
0 $1 Rounding radius*
0 $2 $3 $4 $5 $6 $7 $8 $9 X,Y pos of 4 corners*
0 Add a 4 corners polygon primitive as box body*
4,1,4,$2,$3,$4,$5,$6,$7,$8,$9,$2,$3,0*
0 Add four circle primitives for the rounded corners*
1,1,$1+$1,$2,$3*
1,1,$1+$1,$4,$5*
1,1,$1+$1,$6,$7*
1,1,$1+$1,$8,$9*
0 Add four rect primitives between the rounded corners*
20,1,$1+$1,$2,$3,$4,$5,0*
20,1,$1+$1,$4,$5,$6,$7,0*
20,1,$1+$1,$6,$7,$8,$9,0*
20,1,$1+$1,$8,$9,$2,$3,0*%
G04 Aperture macros list end*
%TA.AperFunction,ComponentPad*%
%ADD10O,1.600000X1.600000*%
%TD*%
%TA.AperFunction,ComponentPad*%
%ADD11R,1.600000X1.600000*%
%TD*%
%TA.AperFunction,ComponentPad*%
%ADD12C,1.700000*%
%TD*%
%TA.AperFunction,ComponentPad*%
%ADD13R,1.700000X1.700000*%
%TD*%
%TA.AperFunction,ComponentPad*%
%ADD14RoundRect,0.250000X0.550000X-0.550000X0.550000X0.550000X-0.550000X0.550000X-0.550000X-0.550000X0*%
%TD*%
%TA.AperFunction,ComponentPad*%
%ADD15C,1.600000*%
%TD*%
%TA.AperFunction,ViaPad*%
%ADD16C,0.600000*%
%TD*%
%TA.AperFunction,Conductor*%
%ADD17C,0.250000*%
%TD*%
%TA.AperFunction,Conductor*%
%ADD18C,1.000000*%
%TD*%
G04 APERTURE END LIST*
D10*
%TO.P,A1,30,VIN_30*%
%TO.N,/VIN*%
X97500000Y-122760000D03*
%TO.P,A1,29,GND_29*%
%TO.N,GND*%
X100040000Y-122760000D03*
%TO.P,A1,28,B1_28*%
%TO.N,unconnected-(A1-B1-Pad28)*%
X102580000Y-122760000D03*
%TO.P,A1,27,VUSB/5V_27*%
%TO.N,/VBUS*%
X105120000Y-122760000D03*
%TO.P,A1,26,A7_26*%
%TO.N,/CC1101_0_SS*%
X107660000Y-122760000D03*
%TO.P,A1,25,A6_25*%
%TO.N,unconnected-(A1-A6-Pad25)*%
X110200000Y-122760000D03*
%TO.P,A1,24,SCL/A5_24*%
%TO.N,/PN532_SS*%
X112740000Y-122760000D03*
%TO.P,A1,23,SDA/A4_23*%
%TO.N,/T_SS*%
X115280000Y-122760000D03*
%TO.P,A1,22,A3_22*%
%TO.N,/BATTERY_LVL*%
X117820000Y-122760000D03*
%TO.P,A1,21,A2_21*%
%TO.N,/TFT_SS*%
X120360000Y-122760000D03*
%TO.P,A1,20,A1_20*%
%TO.N,/CC1101_0_GDO0*%
X122900000Y-122760000D03*
%TO.P,A1,19,A0_19*%
%TO.N,unconnected-(A1-A0-Pad19)*%
X125440000Y-122760000D03*
%TO.P,A1,18,B0_18*%
%TO.N,unconnected-(A1-B0-Pad18)*%
X127980000Y-122760000D03*
%TO.P,A1,17,3V3_17*%
%TO.N,/VCC_3V3*%
X130520000Y-122760000D03*
%TO.P,A1,16,D13/SCK_16*%
%TO.N,/SCK*%
X133060000Y-122760000D03*
%TO.P,A1,15,D12/CIPO_15*%
%TO.N,/MISO*%
X133060000Y-138000000D03*
%TO.P,A1,14,D11/COPI_14*%
%TO.N,/MOSI*%
X130520000Y-138000000D03*
%TO.P,A1,13,D10/CS_13*%
%TO.N,/LED*%
X127980000Y-138000000D03*
%TO.P,A1,12,D9_12*%
%TO.N,/DC*%
X125440000Y-138000000D03*
%TO.P,A1,11,D8_11*%
%TO.N,/TFT_RST*%
X122900000Y-138000000D03*
%TO.P,A1,10,D7_10*%
%TO.N,/BATTERY_SRC*%
X120360000Y-138000000D03*
%TO.P,A1,9,D6_9*%
%TO.N,/PN532_RST0*%
X117820000Y-138000000D03*
%TO.P,A1,8,D5_8*%
%TO.N,/PN532_IRQ*%
X115280000Y-138000000D03*
%TO.P,A1,7,D4_7*%
%TO.N,unconnected-(A1-D4-Pad7)*%
X112740000Y-138000000D03*
%TO.P,A1,6,D3_6*%
%TO.N,unconnected-(A1-D3-Pad6)*%
X110200000Y-138000000D03*
%TO.P,A1,5,D2_5*%
%TO.N,/T_IRQ*%
X107660000Y-138000000D03*
%TO.P,A1,4,GND_4*%
%TO.N,GND*%
X105120000Y-138000000D03*
%TO.P,A1,3,~{RESET}_3*%
%TO.N,unconnected-(A1-~{RESET}-Pad3)*%
X102580000Y-138000000D03*
%TO.P,A1,2,D0/RX_2*%
%TO.N,/IR_RX_DAT*%
X100040000Y-138000000D03*
D11*
%TO.P,A1,1,D1/TX_1*%
%TO.N,/IR_TX_DAT*%
X97500000Y-138000000D03*
%TD*%
D12*
%TO.P,J2,8,Pin_8_8*%
%TO.N,unconnected-(J2-Pin_8-Pad8)*%
X130000000Y-71000000D03*
%TO.P,J2,7,Pin_7_7*%
%TO.N,/MISO*%
X127460000Y-71000000D03*
%TO.P,J2,6,Pin_6_6*%
%TO.N,/MOSI*%
X130000000Y-68460000D03*
%TO.P,J2,5,Pin_5_5*%
%TO.N,/SCK*%
X127460000Y-68460000D03*
%TO.P,J2,4,Pin_4_4*%
%TO.N,/CC1101_0_SS*%
X130000000Y-65920000D03*
%TO.P,J2,3,Pin_3_3*%
%TO.N,/CC1101_0_GDO0*%
X127460000Y-65920000D03*
%TO.P,J2,2,Pin_2_2*%
%TO.N,/VCC_3V3*%
X130000000Y-63380000D03*
D13*
%TO.P,J2,1,Pin_1_1*%
%TO.N,GND*%
X127460000Y-63380000D03*
%TD*%
D14*
%TO.P,C4,1*%
%TO.N,/VCC_3V3*%
X130500000Y-119500000D03*
D15*
%TO.P,C4,2*%
%TO.N,GND*%
X130500000Y-117500000D03*
%TD*%
D13*
%TO.P,J3,1,Pin_1_1*%
%TO.N,GND*%
X86420000Y-50500000D03*
D12*
%TO.P,J3,2,Pin_2_2*%
%TO.N,/VCC_3V3*%
X88960000Y-50500000D03*
%TO.P,J3,3,Pin_3_3*%
%TO.N,/IR_RX_DAT*%
X91500000Y-50500000D03*
%TD*%
D15*
%TO.P,R1,1*%
%TO.N,/VBUS*%
X73000000Y-121920000D03*
%TO.P,R1,2*%
%TO.N,/BATTERY_SRC*%
X73000000Y-132080000D03*
%TD*%
%TO.P,R4,1*%
%TO.N,GND*%
X85000000Y-121920000D03*
%TO.P,R4,2*%
%TO.N,/BATTERY_LVL*%
X85000000Y-132080000D03*
%TD*%
%TO.P,R2,1*%
%TO.N,/BATTERY_SRC*%
X77000000Y-132080000D03*
%TO.P,R2,2*%
%TO.N,GND*%
X77000000Y-121920000D03*
%TD*%
%TO.P,R3,1*%
%TO.N,/VIN*%
X81000000Y-121920000D03*
%TO.P,R3,2*%
%TO.N,/BATTERY_LVL*%
X81000000Y-132080000D03*
%TD*%
D13*
%TO.P,J4,1,Pin_1_1*%
%TO.N,/IR_TX_DAT*%
X126500000Y-50500000D03*
D12*
%TO.P,J4,2,Pin_2_2*%
%TO.N,/VCC_3V3*%
X123960000Y-50500000D03*
%TO.P,J4,3,Pin_3_3*%
%TO.N,GND*%
X121420000Y-50500000D03*
%TD*%
D13*
%TO.P,BT1,1,+_1*%
%TO.N,/VIN*%
X74500000Y-138000000D03*
D12*
%TO.P,BT1,2,-_2*%
%TO.N,GND*%
X77040000Y-138000000D03*
%TD*%
D13*
%TO.P,J5,1,Pin_1_1*%
%TO.N,/VCC_3V3*%
X120360000Y-60500000D03*
D12*
%TO.P,J5,2,Pin_2_2*%
%TO.N,GND*%
X117820000Y-60500000D03*
%TO.P,J5,3,Pin_3_3*%
%TO.N,/TFT_SS*%
X115280000Y-60500000D03*
%TO.P,J5,4,Pin_4_4*%
%TO.N,/TFT_RST*%
X112740000Y-60500000D03*
%TO.P,J5,5,Pin_5_5*%
%TO.N,/DC*%
X110200000Y-60500000D03*
%TO.P,J5,6,Pin_6_6*%
%TO.N,/MOSI*%
X107660000Y-60500000D03*
%TO.P,J5,7,Pin_7_7*%
%TO.N,/SCK*%
X105120000Y-60500000D03*
%TO.P,J5,8,Pin_8_8*%
%TO.N,/LED*%
X102580000Y-60500000D03*
%TO.P,J5,9,Pin_9_9*%
%TO.N,/MISO*%
X100040000Y-60500000D03*
%TO.P,J5,10,Pin_10_10*%
%TO.N,/SCK*%
X97500000Y-60500000D03*
%TO.P,J5,11,Pin_11_11*%
%TO.N,/T_SS*%
X94960000Y-60500000D03*
%TO.P,J5,12,Pin_12_12*%
%TO.N,/MOSI*%
X92420000Y-60500000D03*
%TO.P,J5,13,Pin_13_13*%
%TO.N,/MISO*%
X89880000Y-60500000D03*
%TO.P,J5,14,Pin_14_14*%
%TO.N,/T_IRQ*%
X87340000Y-60500000D03*
%TD*%
D13*
%TO.P,J1,1,Pin_1_1*%
%TO.N,/SCK*%
X131000000Y-87300000D03*
D12*
%TO.P,J1,2,Pin_2_2*%
%TO.N,/MISO*%
X131000000Y-89840000D03*
%TO.P,J1,3,Pin_3_3*%
%TO.N,/MOSI*%
X131000000Y-92380000D03*
%TO.P,J1,4,Pin_4_4*%
%TO.N,/PN532_SS*%
X131000000Y-94920000D03*
%TO.P,J1,5,Pin_5_5*%
%TO.N,/VCC_3V3*%
X131000000Y-97460000D03*
%TO.P,J1,6,Pin_6_6*%
%TO.N,GND*%
X131000000Y-100000000D03*
%TO.P,J1,7,Pin_7_7*%
%TO.N,/PN532_IRQ*%
X131000000Y-102540000D03*
%TO.P,J1,8,Pin_8_8*%
%TO.N,/PN532_RST0*%
X131000000Y-105080000D03*
%TD*%
D16*
%TO.N,/LED*%
X83500000Y-74500000D03*
%TO.N,/TFT_RST*%
X84000000Y-55500000D03*
%TO.N,/TFT_SS*%
X113000000Y-55000000D03*
%TO.N,/DC*%
X106500000Y-56500000D03*
%TO.N,/LED*%
X98500000Y-64500000D03*
%TO.N,/T_SS*%
X78500000Y-64000000D03*
%TO.N,/T_IRQ*%
X77500000Y-61500000D03*
%TO.N,/PN532_SS*%
X112000000Y-107500000D03*
%TO.N,/PN532_IRQ*%
X113000000Y-107500000D03*
%TO.N,/PN532_RST0*%
X114000000Y-107500000D03*
X114000000Y-113000000D03*
%TO.N,/PN532_IRQ*%
X113000000Y-113000000D03*
%TO.N,/PN532_SS*%
X112000000Y-113000000D03*
%TO.N,/T_SS*%
X111000000Y-114000000D03*
X114000000Y-114500000D03*
%TO.N,/BATTERY_LVL*%
X92000000Y-132000000D03*
X89000000Y-132000000D03*
%TO.N,/VIN*%
X86500000Y-119500000D03*
%TO.N,/BATTERY_SRC*%
X84000000Y-139000000D03*
%TO.N,/VIN*%
X75500000Y-119500000D03*
%TO.N,/MOSI*%
X101500000Y-63500000D03*
X135000000Y-56000000D03*
X125500000Y-76500000D03*
X128500000Y-92500000D03*
%TO.N,/MISO*%
X90000000Y-59000000D03*
X100000000Y-59000000D03*
X125000000Y-68500000D03*
X127500000Y-88500000D03*
X134500000Y-90000000D03*
X138500000Y-93000000D03*
%TO.N,/MOSI*%
X134500000Y-92500000D03*
X137000000Y-95000000D03*
%TO.N,GND*%
X128500000Y-58500000D03*
X122000000Y-117500000D03*
X128500000Y-113500000D03*
X131500000Y-58500000D03*
%TD*%
%TO.N,/TFT_RST*%
D17*
X79500000Y-60000000D02*
X84000000Y-55500000D01*
X79500000Y-108500000D02*
X79500000Y-60000000D01*
X104500000Y-109000000D02*
X80000000Y-109000000D01*
X107875000Y-112375000D02*
X104500000Y-109000000D01*
X80000000Y-109000000D02*
X79500000Y-108500000D01*
X122900000Y-130400000D02*
X119235000Y-126735000D01*
X122900000Y-138000000D02*
X122900000Y-130400000D01*
X117000000Y-119000000D02*
X117000000Y-114500000D01*
X117000000Y-114500000D02*
X114875000Y-112375000D01*
X119235000Y-126735000D02*
X119235000Y-121235000D01*
X119235000Y-121235000D02*
X117000000Y-119000000D01*
X114875000Y-112375000D02*
X107875000Y-112375000D01*
%TO.N,/TFT_SS*%
X112500000Y-54500000D02*
X113000000Y-55000000D01*
X86500000Y-54500000D02*
X112500000Y-54500000D01*
X105000000Y-108000000D02*
X81000000Y-108000000D01*
X108500000Y-111500000D02*
X105000000Y-108000000D01*
X118000000Y-119000000D02*
X118000000Y-114500000D01*
X80500000Y-107500000D02*
X80500000Y-60500000D01*
X118000000Y-114500000D02*
X115000000Y-111500000D01*
X115000000Y-111500000D02*
X108500000Y-111500000D01*
X80500000Y-60500000D02*
X86500000Y-54500000D01*
X81000000Y-108000000D02*
X80500000Y-107500000D01*
X120360000Y-121360000D02*
X118000000Y-119000000D01*
X120360000Y-122760000D02*
X120360000Y-121360000D01*
%TO.N,/DC*%
X86000000Y-56500000D02*
X106500000Y-56500000D01*
X81500000Y-61000000D02*
X86000000Y-56500000D01*
X81500000Y-106500000D02*
X81500000Y-61000000D01*
X82000000Y-107000000D02*
X81500000Y-106500000D01*
X105500000Y-107000000D02*
X82000000Y-107000000D01*
X115000000Y-110500000D02*
X109000000Y-110500000D01*
X119000000Y-114500000D02*
X115000000Y-110500000D01*
X109000000Y-110500000D02*
X105500000Y-107000000D01*
X119000000Y-119000000D02*
X119000000Y-114500000D01*
X121658274Y-121658274D02*
X119000000Y-119000000D01*
X121658274Y-126158274D02*
X121658274Y-121658274D01*
X125440000Y-129940000D02*
X121658274Y-126158274D01*
X125440000Y-138000000D02*
X125440000Y-129940000D01*
%TO.N,/LED*%
X98580000Y-64500000D02*
X98500000Y-64500000D01*
X102580000Y-60500000D02*
X98580000Y-64500000D01*
%TO.N,/CC1101_0_GDO0*%
X122900000Y-121900000D02*
X122900000Y-122760000D01*
X120000000Y-119000000D02*
X122900000Y-121900000D01*
X120000000Y-114500000D02*
X120000000Y-119000000D01*
X115000000Y-109500000D02*
X120000000Y-114500000D01*
X109500000Y-109500000D02*
X115000000Y-109500000D01*
X106000000Y-106000000D02*
X109500000Y-109500000D01*
X82500000Y-105500000D02*
X83000000Y-106000000D01*
X123000000Y-68000000D02*
X88500000Y-68000000D01*
X125080000Y-65920000D02*
X123000000Y-68000000D01*
X88500000Y-68000000D02*
X82500000Y-74000000D01*
X127460000Y-65920000D02*
X125080000Y-65920000D01*
X82500000Y-74000000D02*
X82500000Y-105500000D01*
X83000000Y-106000000D02*
X106000000Y-106000000D01*
%TO.N,/MISO*%
X98500000Y-57500000D02*
X100000000Y-59000000D01*
X91500000Y-57500000D02*
X98500000Y-57500000D01*
X90000000Y-59000000D02*
X91500000Y-57500000D01*
%TO.N,/T_SS*%
X78500000Y-109500000D02*
X78500000Y-64000000D01*
X79000000Y-110000000D02*
X78500000Y-109500000D01*
X108000000Y-114000000D02*
X104000000Y-110000000D01*
X111000000Y-114000000D02*
X108000000Y-114000000D01*
X104000000Y-110000000D02*
X79000000Y-110000000D01*
%TO.N,/T_IRQ*%
X77500000Y-110500000D02*
X77500000Y-61500000D01*
X78000000Y-111000000D02*
X77500000Y-110500000D01*
X103500000Y-111000000D02*
X78000000Y-111000000D01*
X110000000Y-120000000D02*
X110000000Y-117500000D01*
X110000000Y-117500000D02*
X103500000Y-111000000D01*
X111500000Y-127000000D02*
X111500000Y-121500000D01*
X107660000Y-138000000D02*
X107660000Y-130840000D01*
X111500000Y-121500000D02*
X110000000Y-120000000D01*
X107660000Y-130840000D02*
X111500000Y-127000000D01*
%TO.N,/IR_RX_DAT*%
X91500000Y-52500000D02*
X91500000Y-50500000D01*
X90000000Y-54000000D02*
X91500000Y-52500000D01*
X81500000Y-54000000D02*
X90000000Y-54000000D01*
X76500000Y-59000000D02*
X81500000Y-54000000D01*
X76500000Y-111500000D02*
X76500000Y-59000000D01*
X77000000Y-112000000D02*
X76500000Y-111500000D01*
X103000000Y-112000000D02*
X77000000Y-112000000D01*
X109000000Y-118000000D02*
X103000000Y-112000000D01*
X109000000Y-127500000D02*
X109000000Y-118000000D01*
X105500000Y-131000000D02*
X109000000Y-127500000D01*
X100500000Y-131000000D02*
X105500000Y-131000000D01*
X100040000Y-131460000D02*
X100500000Y-131000000D01*
X100040000Y-138000000D02*
X100040000Y-131460000D01*
%TO.N,/CC1101_0_SS*%
X107660000Y-118160000D02*
X107660000Y-122760000D01*
X102500000Y-113000000D02*
X107660000Y-118160000D01*
X76500000Y-113000000D02*
X102500000Y-113000000D01*
X75500000Y-112000000D02*
X76500000Y-113000000D01*
X75500000Y-58500000D02*
X75500000Y-112000000D01*
X85500000Y-48500000D02*
X75500000Y-58500000D01*
X122000000Y-54500000D02*
X116000000Y-48500000D01*
X135500000Y-54500000D02*
X122000000Y-54500000D01*
X116000000Y-48500000D02*
X85500000Y-48500000D01*
X137500000Y-63000000D02*
X137500000Y-56500000D01*
X134580000Y-65920000D02*
X137500000Y-63000000D01*
X130000000Y-65920000D02*
X134580000Y-65920000D01*
X137500000Y-56500000D02*
X135500000Y-54500000D01*
%TO.N,/IR_TX_DAT*%
X126500000Y-49000000D02*
X126500000Y-50500000D01*
X125500000Y-48000000D02*
X126500000Y-49000000D01*
X85000000Y-48000000D02*
X125500000Y-48000000D01*
X74500000Y-58500000D02*
X85000000Y-48000000D01*
X102000000Y-114000000D02*
X76000000Y-114000000D01*
X106500000Y-128000000D02*
X106500000Y-118500000D01*
X105000000Y-129500000D02*
X106500000Y-128000000D01*
X98500000Y-129500000D02*
X105000000Y-129500000D01*
X76000000Y-114000000D02*
X74500000Y-112500000D01*
X97500000Y-130500000D02*
X98500000Y-129500000D01*
X97500000Y-138000000D02*
X97500000Y-130500000D01*
X106500000Y-118500000D02*
X102000000Y-114000000D01*
X74500000Y-112500000D02*
X74500000Y-58500000D01*
%TO.N,/LED*%
X84000000Y-105000000D02*
X83500000Y-104500000D01*
X106500000Y-105000000D02*
X84000000Y-105000000D01*
X121000000Y-119000000D02*
X121000000Y-114500000D01*
X110000000Y-108500000D02*
X106500000Y-105000000D01*
X124315000Y-122315000D02*
X121000000Y-119000000D01*
X127980000Y-126890991D02*
X124315000Y-123225991D01*
X83500000Y-104500000D02*
X83500000Y-74500000D01*
X121000000Y-114500000D02*
X115000000Y-108500000D01*
X124315000Y-123225991D02*
X124315000Y-122315000D01*
X127980000Y-138000000D02*
X127980000Y-126890991D01*
X115000000Y-108500000D02*
X110000000Y-108500000D01*
%TO.N,/PN532_SS*%
X112000000Y-107500000D02*
X112000000Y-103000000D01*
%TO.N,/PN532_IRQ*%
X113000000Y-105500000D02*
X113000000Y-107500000D01*
X115960000Y-102540000D02*
X113000000Y-105500000D01*
X131000000Y-102540000D02*
X115960000Y-102540000D01*
%TO.N,/PN532_RST0*%
X114000000Y-107500000D02*
X116420000Y-105080000D01*
X116420000Y-105080000D02*
X131000000Y-105080000D01*
%TO.N,/PN532_SS*%
X120080000Y-94920000D02*
X131000000Y-94920000D01*
X112000000Y-103000000D02*
X120080000Y-94920000D01*
%TO.N,/PN532_RST0*%
X115000000Y-114000000D02*
X114000000Y-113000000D01*
%TO.N,/PN532_IRQ*%
X113000000Y-120500000D02*
X113000000Y-113000000D01*
%TO.N,/PN532_SS*%
X112000000Y-120500000D02*
X112000000Y-113000000D01*
X112000000Y-120500000D02*
X112740000Y-121240000D01*
X112740000Y-121240000D02*
X112740000Y-122760000D01*
%TO.N,/PN532_IRQ*%
X115280000Y-128280000D02*
X115280000Y-138000000D01*
X114000000Y-121500000D02*
X114000000Y-127000000D01*
X113000000Y-120500000D02*
X114000000Y-121500000D01*
X114000000Y-127000000D02*
X115280000Y-128280000D01*
%TO.N,/PN532_RST0*%
X117820000Y-128320000D02*
X117820000Y-138000000D01*
X115000000Y-114000000D02*
X115000000Y-120000000D01*
X116500000Y-121500000D02*
X116500000Y-127000000D01*
X115000000Y-120000000D02*
X116500000Y-121500000D01*
X116500000Y-127000000D02*
X117820000Y-128320000D01*
%TO.N,/PN532_SS*%
X112740000Y-122760000D02*
X112480000Y-122500000D01*
%TO.N,/T_SS*%
X114000000Y-120500000D02*
X114000000Y-114500000D01*
X115280000Y-121780000D02*
X114000000Y-120500000D01*
X115280000Y-122760000D02*
X115280000Y-121780000D01*
%TO.N,GND*%
D18*
X122000000Y-117500000D02*
X130500000Y-117500000D01*
%TO.N,/BATTERY_LVL*%
X89000000Y-132000000D02*
X92000000Y-132000000D01*
%TO.N,/VIN*%
X80000000Y-119500000D02*
X86500000Y-119500000D01*
%TO.N,/BATTERY_SRC*%
X86000000Y-141000000D02*
X84000000Y-139000000D01*
X120360000Y-139640000D02*
X119000000Y-141000000D01*
X120360000Y-138000000D02*
X120360000Y-139640000D01*
X119000000Y-141000000D02*
X86000000Y-141000000D01*
%TO.N,/VBUS*%
X105120000Y-119120000D02*
X103500000Y-117500000D01*
X75500000Y-117500000D02*
X73000000Y-120000000D01*
X73000000Y-120000000D02*
X73000000Y-121920000D01*
X105120000Y-122760000D02*
X105120000Y-119120000D01*
%TO.N,/VIN*%
X81000000Y-120500000D02*
X81000000Y-121920000D01*
X80000000Y-119500000D02*
X81000000Y-120500000D01*
X75500000Y-119500000D02*
X80000000Y-119500000D01*
%TO.N,GND*%
X126000000Y-113500000D02*
X122000000Y-117500000D01*
X128500000Y-113500000D02*
X126000000Y-113500000D01*
%TO.N,/MOSI*%
D17*
X106500000Y-63500000D02*
X101500000Y-63500000D01*
X107660000Y-62340000D02*
X106500000Y-63500000D01*
X107660000Y-60500000D02*
X107660000Y-62340000D01*
X107660000Y-56840000D02*
X107660000Y-60500000D01*
X108500000Y-56000000D02*
X107660000Y-56840000D01*
X135000000Y-56000000D02*
X108500000Y-56000000D01*
X125500000Y-91000000D02*
X125500000Y-76500000D01*
X128500000Y-92500000D02*
X127000000Y-92500000D01*
X127000000Y-92500000D02*
X125500000Y-91000000D01*
%TO.N,/MISO*%
X127460000Y-70960000D02*
X125000000Y-68500000D01*
X127460000Y-71000000D02*
X127460000Y-70960000D01*
X127500000Y-87500000D02*
X127460000Y-87460000D01*
X127500000Y-88500000D02*
X127500000Y-87500000D01*
X127460000Y-87460000D02*
X127460000Y-71000000D01*
X135500000Y-90000000D02*
X134500000Y-90000000D01*
X138500000Y-93000000D02*
X135500000Y-90000000D01*
%TO.N,/MOSI*%
X137000000Y-95000000D02*
X134500000Y-92500000D01*
%TO.N,GND*%
D18*
X128500000Y-58500000D02*
X131500000Y-58500000D01*
%TO.N,/SCK*%
X133060000Y-122760000D02*
X133000000Y-122700000D01*
%TO.N,/VBUS*%
X103500000Y-117500000D02*
X75500000Y-117500000D01*
%TD*%
%TA.AperFunction,Conductor*%
%TO.N,GND*%
G36*
X138958691Y-43019407D02*
G01*
X138994655Y-43068907D01*
X138999500Y-43099500D01*
X138999500Y-92423517D01*
X138980593Y-92481708D01*
X138931093Y-92517672D01*
X138869907Y-92517672D01*
X138851005Y-92509256D01*
X138731784Y-92440424D01*
X138579057Y-92399501D01*
X138579055Y-92399501D01*
X138542255Y-92399501D01*
X138484064Y-92380594D01*
X138472251Y-92370505D01*
X137331247Y-91229501D01*
X135761263Y-89659516D01*
X135748159Y-89651951D01*
X135712364Y-89631284D01*
X135712363Y-89631284D01*
X135664239Y-89603499D01*
X135664238Y-89603498D01*
X135664237Y-89603498D01*
X135556018Y-89574501D01*
X135556016Y-89574501D01*
X134964743Y-89574501D01*
X134906552Y-89555594D01*
X134894741Y-89545506D01*
X134868717Y-89519483D01*
X134868715Y-89519481D01*
X134731784Y-89440424D01*
X134579057Y-89399501D01*
X134420943Y-89399501D01*
X134268216Y-89440424D01*
X134131285Y-89519481D01*
X134019481Y-89631285D01*
X133940424Y-89768216D01*
X133899501Y-89920943D01*
X133899501Y-90079057D01*
X133940424Y-90231784D01*
X134019481Y-90368715D01*
X134131285Y-90480519D01*
X134268216Y-90559576D01*
X134420943Y-90600499D01*
X134420945Y-90600499D01*
X134579055Y-90600499D01*
X134579057Y-90600499D01*
X134731784Y-90559576D01*
X134868715Y-90480519D01*
X134881729Y-90467505D01*
X134894741Y-90454494D01*
X134949258Y-90426718D01*
X134964743Y-90425499D01*
X135282744Y-90425499D01*
X135340935Y-90444406D01*
X135352748Y-90454495D01*
X137870505Y-92972251D01*
X137898282Y-93026768D01*
X137899501Y-93042255D01*
X137899501Y-93079057D01*
X137940424Y-93231784D01*
X138019481Y-93368715D01*
X138131285Y-93480519D01*
X138268216Y-93559576D01*
X138420943Y-93600499D01*
X138420945Y-93600499D01*
X138579055Y-93600499D01*
X138579057Y-93600499D01*
X138731784Y-93559576D01*
X138851002Y-93490745D01*
X138910848Y-93478024D01*
X138966744Y-93502910D01*
X138997337Y-93555898D01*
X138999500Y-93576482D01*
X138999500Y-141900500D01*
X138980593Y-141958691D01*
X138931093Y-141994655D01*
X138900500Y-141999500D01*
X70099500Y-141999500D01*
X70041309Y-141980593D01*
X70005345Y-141931093D01*
X70000500Y-141900500D01*
X70000500Y-137105130D01*
X73349501Y-137105130D01*
X73349501Y-138894869D01*
X73352415Y-138919988D01*
X73352415Y-138919990D01*
X73352416Y-138919991D01*
X73397795Y-139022764D01*
X73477236Y-139102205D01*
X73580009Y-139147584D01*
X73605131Y-139150498D01*
X73605133Y-139150499D01*
X73605135Y-139150499D01*
X75394867Y-139150499D01*
X75394867Y-139150498D01*
X75419991Y-139147584D01*
X75522764Y-139102205D01*
X75602205Y-139022764D01*
X75647584Y-138919991D01*
X75650499Y-138894865D01*
X75650499Y-138658944D01*
X75669406Y-138600753D01*
X75718906Y-138564789D01*
X75780092Y-138564789D01*
X75829592Y-138600753D01*
X75837709Y-138613999D01*
X75885376Y-138707553D01*
X75885380Y-138707559D01*
X75924728Y-138761716D01*
X75924729Y-138761716D01*
X76557037Y-138129407D01*
X76574075Y-138192993D01*
X76639901Y-138307007D01*
X76732993Y-138400099D01*
X76847007Y-138465925D01*
X76910589Y-138482962D01*
X76278282Y-139115269D01*
X76278282Y-139115270D01*
X76332440Y-139154619D01*
X76332446Y-139154623D01*
X76521784Y-139251095D01*
X76723878Y-139316759D01*
X76933750Y-139350000D01*
X77146250Y-139350000D01*
X77356121Y-139316759D01*
X77558215Y-139251095D01*
X77747556Y-139154620D01*
X77801716Y-139115270D01*
X77607601Y-138921155D01*
X83199501Y-138921155D01*
X83199501Y-139078844D01*
X83230264Y-139233496D01*
X83230264Y-139233498D01*
X83290605Y-139379175D01*
X83290606Y-139379177D01*
X83290607Y-139379178D01*
X83378212Y-139510289D01*
X85489711Y-141621788D01*
X85620822Y-141709393D01*
X85766503Y-141769736D01*
X85921158Y-141800499D01*
X85921159Y-141800499D01*
X119078841Y-141800499D01*
X119078842Y-141800499D01*
X119233497Y-141769736D01*
X119379178Y-141709393D01*
X119510289Y-141621788D01*
X120981788Y-140150289D01*
X121069393Y-140019179D01*
X121129736Y-139873498D01*
X121135854Y-139842735D01*
X121160499Y-139718842D01*
X121160499Y-138796849D01*
X121179406Y-138738658D01*
X121189489Y-138726851D01*
X121199414Y-138716927D01*
X121301231Y-138576787D01*
X121379872Y-138422445D01*
X121379873Y-138422440D01*
X121379875Y-138422438D01*
X121433400Y-138257706D01*
X121433401Y-138257702D01*
X121460499Y-138086614D01*
X121460499Y-137913385D01*
X121433401Y-137742297D01*
X121433400Y-137742293D01*
X121379875Y-137577561D01*
X121379873Y-137577558D01*
X121379872Y-137577557D01*
X121379872Y-137577555D01*
X121301231Y-137423213D01*
X121301229Y-137423209D01*
X121199418Y-137283078D01*
X121199416Y-137283076D01*
X121199414Y-137283073D01*
X121076927Y-137160586D01*
X121076923Y-137160583D01*
X121076921Y-137160581D01*
X120936790Y-137058770D01*
X120936786Y-137058768D01*
X120782441Y-136980126D01*
X120782438Y-136980124D01*
X120617706Y-136926599D01*
X120617702Y-136926598D01*
X120446614Y-136899501D01*
X120446611Y-136899501D01*
X120273389Y-136899501D01*
X120273386Y-136899501D01*
X120102297Y-136926598D01*
X120102293Y-136926599D01*
X119937561Y-136980124D01*
X119937558Y-136980126D01*
X119783213Y-137058768D01*
X119783209Y-137058770D01*
X119643078Y-137160581D01*
X119520581Y-137283078D01*
X119418770Y-137423209D01*
X119418768Y-137423213D01*
X119340126Y-137577558D01*
X119340124Y-137577561D01*
X119286599Y-137742293D01*
X119286598Y-137742297D01*
X119259501Y-137913385D01*
X119259501Y-138086614D01*
X119286598Y-138257702D01*
X119286599Y-138257706D01*
X119340124Y-138422438D01*
X119340126Y-138422441D01*
X119418768Y-138576786D01*
X119418770Y-138576790D01*
X119520581Y-138716921D01*
X119520583Y-138716923D01*
X119520586Y-138716927D01*
X119530506Y-138726847D01*
X119558282Y-138781362D01*
X119559501Y-138796849D01*
X119559501Y-139267414D01*
X119540594Y-139325605D01*
X119530505Y-139337418D01*
X118697418Y-140170505D01*
X118642901Y-140198282D01*
X118627414Y-140199501D01*
X86372586Y-140199501D01*
X86314395Y-140180594D01*
X86302582Y-140170505D01*
X85408684Y-139276607D01*
X84510289Y-138378212D01*
X84403722Y-138307007D01*
X84379175Y-138290605D01*
X84233497Y-138230264D01*
X84078844Y-138199501D01*
X84078842Y-138199501D01*
X83921158Y-138199501D01*
X83921155Y-138199501D01*
X83766503Y-138230264D01*
X83766501Y-138230264D01*
X83620824Y-138290605D01*
X83489714Y-138378209D01*
X83378209Y-138489714D01*
X83290605Y-138620824D01*
X83230264Y-138766501D01*
X83230264Y-138766503D01*
X83199501Y-138921155D01*
X77607601Y-138921155D01*
X77169408Y-138482962D01*
X77232993Y-138465925D01*
X77347007Y-138400099D01*
X77440099Y-138307007D01*
X77505925Y-138192993D01*
X77522962Y-138129408D01*
X78155270Y-138761716D01*
X78194620Y-138707556D01*
X78291095Y-138518215D01*
X78356759Y-138316121D01*
X78390000Y-138106250D01*
X78390000Y-137893749D01*
X78356759Y-137683878D01*
X78291095Y-137481784D01*
X78194623Y-137292446D01*
X78194619Y-137292440D01*
X78155270Y-137238282D01*
X78155269Y-137238282D01*
X77522962Y-137870589D01*
X77505925Y-137807007D01*
X77440099Y-137692993D01*
X77347007Y-137599901D01*
X77232993Y-137534075D01*
X77169407Y-137517037D01*
X77801716Y-136884729D01*
X77801716Y-136884728D01*
X77747559Y-136845380D01*
X77747553Y-136845376D01*
X77558215Y-136748904D01*
X77356121Y-136683240D01*
X77146250Y-136650000D01*
X76933750Y-136650000D01*
X76723878Y-136683240D01*
X76521784Y-136748904D01*
X76332446Y-136845376D01*
X76332442Y-136845378D01*
X76278282Y-136884728D01*
X76910591Y-137517037D01*
X76847007Y-137534075D01*
X76732993Y-137599901D01*
X76639901Y-137692993D01*
X76574075Y-137807007D01*
X76557037Y-137870591D01*
X75924728Y-137238282D01*
X75885378Y-137292442D01*
X75885376Y-137292446D01*
X75837709Y-137386000D01*
X75794444Y-137429265D01*
X75734012Y-137438836D01*
X75679496Y-137411059D01*
X75651718Y-137356542D01*
X75650499Y-137341055D01*
X75650499Y-137105133D01*
X75650498Y-137105130D01*
X75647584Y-137080011D01*
X75647584Y-137080009D01*
X75602205Y-136977236D01*
X75522764Y-136897795D01*
X75419991Y-136852416D01*
X75419988Y-136852415D01*
X75394869Y-136849501D01*
X75394865Y-136849501D01*
X73605135Y-136849501D01*
X73605130Y-136849501D01*
X73580011Y-136852415D01*
X73477236Y-136897795D01*
X73397795Y-136977236D01*
X73352415Y-137080011D01*
X73349501Y-137105130D01*
X70000500Y-137105130D01*
X70000500Y-131993385D01*
X71899501Y-131993385D01*
X71899501Y-132166614D01*
X71926598Y-132337702D01*
X71926599Y-132337706D01*
X71980124Y-132502438D01*
X71980126Y-132502441D01*
X72058768Y-132656786D01*
X72058770Y-132656790D01*
X72160581Y-132796921D01*
X72160583Y-132796923D01*
X72160586Y-132796927D01*
X72283073Y-132919414D01*
X72283076Y-132919416D01*
X72283078Y-132919418D01*
X72423209Y-133021229D01*
X72423213Y-133021231D01*
X72577555Y-133099872D01*
X72577557Y-133099872D01*
X72577558Y-133099873D01*
X72577561Y-133099875D01*
X72742293Y-133153400D01*
X72742297Y-133153401D01*
X72913386Y-133180499D01*
X72913389Y-133180499D01*
X73086614Y-133180499D01*
X73257702Y-133153401D01*
X73257706Y-133153400D01*
X73422438Y-133099875D01*
X73422440Y-133099873D01*
X73422445Y-133099872D01*
X73576787Y-133021231D01*
X73716927Y-132919414D01*
X73839414Y-132796927D01*
X73941231Y-132656787D01*
X74019872Y-132502445D01*
X74019873Y-132502440D01*
X74019875Y-132502438D01*
X74073400Y-132337706D01*
X74073401Y-132337702D01*
X74100499Y-132166614D01*
X74100499Y-131993385D01*
X75899501Y-131993385D01*
X75899501Y-132166614D01*
X75926598Y-132337702D01*
X75926599Y-132337706D01*
X75980124Y-132502438D01*
X75980126Y-132502441D01*
X76058768Y-132656786D01*
X76058770Y-132656790D01*
X76160581Y-132796921D01*
X76160583Y-132796923D01*
X76160586Y-132796927D01*
X76283073Y-132919414D01*
X76283076Y-132919416D01*
X76283078Y-132919418D01*
X76423209Y-133021229D01*
X76423213Y-133021231D01*
X76577555Y-133099872D01*
X76577557Y-133099872D01*
X76577558Y-133099873D01*
X76577561Y-133099875D01*
X76742293Y-133153400D01*
X76742297Y-133153401D01*
X76913386Y-133180499D01*
X76913389Y-133180499D01*
X77086614Y-133180499D01*
X77257702Y-133153401D01*
X77257706Y-133153400D01*
X77422438Y-133099875D01*
X77422440Y-133099873D01*
X77422445Y-133099872D01*
X77576787Y-133021231D01*
X77716927Y-132919414D01*
X77839414Y-132796927D01*
X77941231Y-132656787D01*
X78019872Y-132502445D01*
X78019873Y-132502440D01*
X78019875Y-132502438D01*
X78073400Y-132337706D01*
X78073401Y-132337702D01*
X78100499Y-132166614D01*
X78100499Y-131993385D01*
X79899501Y-131993385D01*
X79899501Y-132166614D01*
X79926598Y-132337702D01*
X79926599Y-132337706D01*
X79980124Y-132502438D01*
X79980126Y-132502441D01*
X80058768Y-132656786D01*
X80058770Y-132656790D01*
X80160581Y-132796921D01*
X80160583Y-132796923D01*
X80160586Y-132796927D01*
X80283073Y-132919414D01*
X80283076Y-132919416D01*
X80283078Y-132919418D01*
X80423209Y-133021229D01*
X80423213Y-133021231D01*
X80577555Y-133099872D01*
X80577557Y-133099872D01*
X80577558Y-133099873D01*
X80577561Y-133099875D01*
X80742293Y-133153400D01*
X80742297Y-133153401D01*
X80913386Y-133180499D01*
X80913389Y-133180499D01*
X81086614Y-133180499D01*
X81257702Y-133153401D01*
X81257706Y-133153400D01*
X81422438Y-133099875D01*
X81422440Y-133099873D01*
X81422445Y-133099872D01*
X81576787Y-133021231D01*
X81716927Y-132919414D01*
X81839414Y-132796927D01*
X81941231Y-132656787D01*
X82019872Y-132502445D01*
X82019873Y-132502440D01*
X82019875Y-132502438D01*
X82073400Y-132337706D01*
X82073401Y-132337702D01*
X82100499Y-132166614D01*
X82100499Y-131993385D01*
X83899501Y-131993385D01*
X83899501Y-132166614D01*
X83926598Y-132337702D01*
X83926599Y-132337706D01*
X83980124Y-132502438D01*
X83980126Y-132502441D01*
X84058768Y-132656786D01*
X84058770Y-132656790D01*
X84160581Y-132796921D01*
X84160583Y-132796923D01*
X84160586Y-132796927D01*
X84283073Y-132919414D01*
X84283076Y-132919416D01*
X84283078Y-132919418D01*
X84423209Y-133021229D01*
X84423213Y-133021231D01*
X84577555Y-133099872D01*
X84577557Y-133099872D01*
X84577558Y-133099873D01*
X84577561Y-133099875D01*
X84742293Y-133153400D01*
X84742297Y-133153401D01*
X84913386Y-133180499D01*
X84913389Y-133180499D01*
X85086614Y-133180499D01*
X85257702Y-133153401D01*
X85257706Y-133153400D01*
X85422438Y-133099875D01*
X85422440Y-133099873D01*
X85422445Y-133099872D01*
X85576787Y-133021231D01*
X85716927Y-132919414D01*
X85839414Y-132796927D01*
X85941231Y-132656787D01*
X86019872Y-132502445D01*
X86019873Y-132502440D01*
X86019875Y-132502438D01*
X86073400Y-132337706D01*
X86073401Y-132337702D01*
X86100499Y-132166614D01*
X86100499Y-131993385D01*
X86090742Y-131931781D01*
X86089059Y-131921155D01*
X88199501Y-131921155D01*
X88199501Y-132078844D01*
X88230264Y-132233496D01*
X88230264Y-132233498D01*
X88290604Y-132379173D01*
X88290610Y-132379184D01*
X88343313Y-132458058D01*
X88378212Y-132510288D01*
X88489712Y-132621788D01*
X88567877Y-132674016D01*
X88620815Y-132709389D01*
X88620826Y-132709395D01*
X88674638Y-132731684D01*
X88766503Y-132769736D01*
X88921158Y-132800499D01*
X88921159Y-132800499D01*
X92078841Y-132800499D01*
X92078842Y-132800499D01*
X92233497Y-132769736D01*
X92379178Y-132709393D01*
X92510288Y-132621788D01*
X92621788Y-132510288D01*
X92709393Y-132379178D01*
X92769736Y-132233497D01*
X92800499Y-132078842D01*
X92800499Y-131921158D01*
X92769736Y-131766503D01*
X92724610Y-131657558D01*
X92709395Y-131620826D01*
X92709389Y-131620815D01*
X92674016Y-131567877D01*
X92621788Y-131489712D01*
X92510288Y-131378212D01*
X92453824Y-131340484D01*
X92379184Y-131290610D01*
X92379173Y-131290604D01*
X92233497Y-131230264D01*
X92078844Y-131199501D01*
X92078842Y-131199501D01*
X88921158Y-131199501D01*
X88921155Y-131199501D01*
X88766503Y-131230264D01*
X88766501Y-131230264D01*
X88620826Y-131290604D01*
X88620815Y-131290610D01*
X88489712Y-131378212D01*
X88489708Y-131378215D01*
X88378215Y-131489708D01*
X88378212Y-131489712D01*
X88290610Y-131620815D01*
X88290604Y-131620826D01*
X88230264Y-131766501D01*
X88230264Y-131766503D01*
X88199501Y-131921155D01*
X86089059Y-131921155D01*
X86073401Y-131822298D01*
X86073400Y-131822293D01*
X86019875Y-131657561D01*
X86019873Y-131657558D01*
X86019872Y-131657557D01*
X86019872Y-131657555D01*
X85941231Y-131503213D01*
X85941229Y-131503209D01*
X85839418Y-131363078D01*
X85839416Y-131363076D01*
X85839414Y-131363073D01*
X85716927Y-131240586D01*
X85716923Y-131240583D01*
X85716921Y-131240581D01*
X85576790Y-131138770D01*
X85576786Y-131138768D01*
X85422441Y-131060126D01*
X85422438Y-131060124D01*
X85257706Y-131006599D01*
X85257702Y-131006598D01*
X85086614Y-130979501D01*
X85086611Y-130979501D01*
X84913389Y-130979501D01*
X84913386Y-130979501D01*
X84742297Y-131006598D01*
X84742293Y-131006599D01*
X84577561Y-131060124D01*
X84577558Y-131060126D01*
X84423213Y-131138768D01*
X84423209Y-131138770D01*
X84283078Y-131240581D01*
X84160581Y-131363078D01*
X84058770Y-131503209D01*
X84058768Y-131503213D01*
X83980126Y-131657558D01*
X83980124Y-131657561D01*
X83926599Y-131822293D01*
X83926598Y-131822297D01*
X83899501Y-131993385D01*
X82100499Y-131993385D01*
X82073401Y-131822297D01*
X82073400Y-131822293D01*
X82019875Y-131657561D01*
X82019873Y-131657558D01*
X82019872Y-131657557D01*
X82019872Y-131657555D01*
X81941231Y-131503213D01*
X81941229Y-131503209D01*
X81839418Y-131363078D01*
X81839416Y-131363076D01*
X81839414Y-131363073D01*
X81716927Y-131240586D01*
X81716923Y-131240583D01*
X81716921Y-131240581D01*
X81576790Y-131138770D01*
X81576786Y-131138768D01*
X81422441Y-131060126D01*
X81422438Y-131060124D01*
X81257706Y-131006599D01*
X81257702Y-131006598D01*
X81086614Y-130979501D01*
X81086611Y-130979501D01*
X80913389Y-130979501D01*
X80913386Y-130979501D01*
X80742297Y-131006598D01*
X80742293Y-131006599D01*
X80577561Y-131060124D01*
X80577558Y-131060126D01*
X80423213Y-131138768D01*
X80423209Y-131138770D01*
X80283078Y-131240581D01*
X80160581Y-131363078D01*
X80058770Y-131503209D01*
X80058768Y-131503213D01*
X79980126Y-131657558D01*
X79980124Y-131657561D01*
X79926599Y-131822293D01*
X79926598Y-131822297D01*
X79899501Y-131993385D01*
X78100499Y-131993385D01*
X78073401Y-131822297D01*
X78073400Y-131822293D01*
X78019875Y-131657561D01*
X78019873Y-131657558D01*
X78019872Y-131657557D01*
X78019872Y-131657555D01*
X77941231Y-131503213D01*
X77941229Y-131503209D01*
X77839418Y-131363078D01*
X77839416Y-131363076D01*
X77839414Y-131363073D01*
X77716927Y-131240586D01*
X77716923Y-131240583D01*
X77716921Y-131240581D01*
X77576790Y-131138770D01*
X77576786Y-131138768D01*
X77422441Y-131060126D01*
X77422438Y-131060124D01*
X77257706Y-131006599D01*
X77257702Y-131006598D01*
X77086614Y-130979501D01*
X77086611Y-130979501D01*
X76913389Y-130979501D01*
X76913386Y-130979501D01*
X76742297Y-131006598D01*
X76742293Y-131006599D01*
X76577561Y-131060124D01*
X76577558Y-131060126D01*
X76423213Y-131138768D01*
X76423209Y-131138770D01*
X76283078Y-131240581D01*
X76160581Y-131363078D01*
X76058770Y-131503209D01*
X76058768Y-131503213D01*
X75980126Y-131657558D01*
X75980124Y-131657561D01*
X75926599Y-131822293D01*
X75926598Y-131822297D01*
X75899501Y-131993385D01*
X74100499Y-131993385D01*
X74073401Y-131822297D01*
X74073400Y-131822293D01*
X74019875Y-131657561D01*
X74019873Y-131657558D01*
X74019872Y-131657557D01*
X74019872Y-131657555D01*
X73941231Y-131503213D01*
X73941229Y-131503209D01*
X73839418Y-131363078D01*
X73839416Y-131363076D01*
X73839414Y-131363073D01*
X73716927Y-131240586D01*
X73716923Y-131240583D01*
X73716921Y-131240581D01*
X73576790Y-131138770D01*
X73576786Y-131138768D01*
X73422441Y-131060126D01*
X73422438Y-131060124D01*
X73257706Y-131006599D01*
X73257702Y-131006598D01*
X73086614Y-130979501D01*
X73086611Y-130979501D01*
X72913389Y-130979501D01*
X72913386Y-130979501D01*
X72742297Y-131006598D01*
X72742293Y-131006599D01*
X72577561Y-131060124D01*
X72577558Y-131060126D01*
X72423213Y-131138768D01*
X72423209Y-131138770D01*
X72283078Y-131240581D01*
X72160581Y-131363078D01*
X72058770Y-131503209D01*
X72058768Y-131503213D01*
X71980126Y-131657558D01*
X71980124Y-131657561D01*
X71926599Y-131822293D01*
X71926598Y-131822297D01*
X71899501Y-131993385D01*
X70000500Y-131993385D01*
X70000500Y-121833385D01*
X71899501Y-121833385D01*
X71899501Y-122006614D01*
X71926598Y-122177702D01*
X71926599Y-122177706D01*
X71980124Y-122342438D01*
X71980126Y-122342441D01*
X72058768Y-122496786D01*
X72058770Y-122496790D01*
X72160581Y-122636921D01*
X72160583Y-122636923D01*
X72160586Y-122636927D01*
X72283073Y-122759414D01*
X72283076Y-122759416D01*
X72283078Y-122759418D01*
X72423209Y-122861229D01*
X72423213Y-122861231D01*
X72577555Y-122939872D01*
X72577557Y-122939872D01*
X72577558Y-122939873D01*
X72577561Y-122939875D01*
X72742293Y-122993400D01*
X72742297Y-122993401D01*
X72913386Y-123020499D01*
X72913389Y-123020499D01*
X73086614Y-123020499D01*
X73257702Y-122993401D01*
X73257706Y-122993400D01*
X73422438Y-122939875D01*
X73422440Y-122939873D01*
X73422445Y-122939872D01*
X73576787Y-122861231D01*
X73716927Y-122759414D01*
X73839414Y-122636927D01*
X73934723Y-122505745D01*
X73941229Y-122496790D01*
X73941231Y-122496787D01*
X74019872Y-122342445D01*
X74019873Y-122342440D01*
X74019875Y-122342438D01*
X74073400Y-122177706D01*
X74073401Y-122177702D01*
X74100499Y-122006614D01*
X74100499Y-121833387D01*
X74099850Y-121829291D01*
X74099850Y-121829289D01*
X74099849Y-121829285D01*
X74098012Y-121817684D01*
X75700000Y-121817684D01*
X75700000Y-122022315D01*
X75732008Y-122224412D01*
X75795243Y-122419027D01*
X75888139Y-122601348D01*
X75888143Y-122601353D01*
X75920523Y-122645920D01*
X75920524Y-122645920D01*
X76600000Y-121966444D01*
X76600000Y-121972661D01*
X76627259Y-122074394D01*
X76679920Y-122165606D01*
X76754394Y-122240080D01*
X76845606Y-122292741D01*
X76947339Y-122320000D01*
X76953553Y-122320000D01*
X76274078Y-122999475D01*
X76318647Y-123031858D01*
X76500972Y-123124756D01*
X76695587Y-123187991D01*
X76897685Y-123220000D01*
X77102315Y-123220000D01*
X77304412Y-123187991D01*
X77499027Y-123124756D01*
X77681342Y-123031863D01*
X77681350Y-123031858D01*
X77725920Y-122999475D01*
X77046445Y-122320000D01*
X77052661Y-122320000D01*
X77154394Y-122292741D01*
X77245606Y-122240080D01*
X77320080Y-122165606D01*
X77372741Y-122074394D01*
X77400000Y-121972661D01*
X77400000Y-121966445D01*
X78079475Y-122645920D01*
X78111858Y-122601350D01*
X78111863Y-122601342D01*
X78204756Y-122419027D01*
X78267991Y-122224412D01*
X78300000Y-122022315D01*
X78300000Y-121817684D01*
X78267991Y-121615587D01*
X78204756Y-121420972D01*
X78111858Y-121238647D01*
X78079475Y-121194078D01*
X77400000Y-121873553D01*
X77400000Y-121867339D01*
X77372741Y-121765606D01*
X77320080Y-121674394D01*
X77245606Y-121599920D01*
X77154394Y-121547259D01*
X77052661Y-121520000D01*
X77046445Y-121520000D01*
X77725920Y-120840524D01*
X77725920Y-120840523D01*
X77681353Y-120808143D01*
X77681348Y-120808139D01*
X77499027Y-120715243D01*
X77304412Y-120652008D01*
X77102315Y-120620000D01*
X76897685Y-120620000D01*
X76695587Y-120652008D01*
X76500972Y-120715243D01*
X76318651Y-120808139D01*
X76318647Y-120808141D01*
X76274078Y-120840523D01*
X76953555Y-121520000D01*
X76947339Y-121520000D01*
X76845606Y-121547259D01*
X76754394Y-121599920D01*
X76679920Y-121674394D01*
X76627259Y-121765606D01*
X76600000Y-121867339D01*
X76600000Y-121873555D01*
X75920523Y-121194078D01*
X75888141Y-121238647D01*
X75888139Y-121238651D01*
X75795243Y-121420972D01*
X75732008Y-121615587D01*
X75700000Y-121817684D01*
X74098012Y-121817684D01*
X74073401Y-121662297D01*
X74073400Y-121662293D01*
X74019875Y-121497561D01*
X74019873Y-121497558D01*
X74019872Y-121497557D01*
X74019872Y-121497555D01*
X73941231Y-121343213D01*
X73941229Y-121343209D01*
X73839417Y-121203077D01*
X73839411Y-121203070D01*
X73829493Y-121193151D01*
X73801717Y-121138633D01*
X73800499Y-121123150D01*
X73800499Y-120372585D01*
X73819406Y-120314394D01*
X73829495Y-120302581D01*
X74121789Y-120010287D01*
X74544267Y-119587808D01*
X74598782Y-119560033D01*
X74659214Y-119569604D01*
X74702479Y-119612869D01*
X74711367Y-119638499D01*
X74730264Y-119733498D01*
X74790604Y-119879173D01*
X74790610Y-119879184D01*
X74818655Y-119921155D01*
X74878212Y-120010288D01*
X74989712Y-120121788D01*
X75057698Y-120167215D01*
X75120815Y-120209389D01*
X75120826Y-120209395D01*
X75159481Y-120225406D01*
X75266503Y-120269736D01*
X75421158Y-120300499D01*
X79627414Y-120300499D01*
X79685605Y-120319406D01*
X79697417Y-120329495D01*
X80170504Y-120802581D01*
X80198282Y-120857098D01*
X80199501Y-120872585D01*
X80199501Y-121123150D01*
X80180594Y-121181341D01*
X80170507Y-121193151D01*
X80160588Y-121203070D01*
X80160582Y-121203077D01*
X80058770Y-121343209D01*
X80058768Y-121343213D01*
X79980126Y-121497558D01*
X79980124Y-121497561D01*
X79926599Y-121662293D01*
X79926598Y-121662297D01*
X79899501Y-121833385D01*
X79899501Y-122006614D01*
X79926598Y-122177702D01*
X79926599Y-122177706D01*
X79980124Y-122342438D01*
X79980126Y-122342441D01*
X80058768Y-122496786D01*
X80058770Y-122496790D01*
X80160581Y-122636921D01*
X80160583Y-122636923D01*
X80160586Y-122636927D01*
X80283073Y-122759414D01*
X80283076Y-122759416D01*
X80283078Y-122759418D01*
X80423209Y-122861229D01*
X80423213Y-122861231D01*
X80577555Y-122939872D01*
X80577557Y-122939872D01*
X80577558Y-122939873D01*
X80577561Y-122939875D01*
X80742293Y-122993400D01*
X80742297Y-122993401D01*
X80913386Y-123020499D01*
X80913389Y-123020499D01*
X81086614Y-123020499D01*
X81257702Y-122993401D01*
X81257706Y-122993400D01*
X81422438Y-122939875D01*
X81422440Y-122939873D01*
X81422445Y-122939872D01*
X81576787Y-122861231D01*
X81716927Y-122759414D01*
X81839414Y-122636927D01*
X81934723Y-122505745D01*
X81941229Y-122496790D01*
X81941231Y-122496787D01*
X82019872Y-122342445D01*
X82019873Y-122342440D01*
X82019875Y-122342438D01*
X82073400Y-122177706D01*
X82073401Y-122177702D01*
X82100499Y-122006614D01*
X82100499Y-121833387D01*
X82099850Y-121829291D01*
X82099850Y-121829289D01*
X82099849Y-121829285D01*
X82098012Y-121817684D01*
X83700000Y-121817684D01*
X83700000Y-122022315D01*
X83732008Y-122224412D01*
X83795243Y-122419027D01*
X83888139Y-122601348D01*
X83888143Y-122601353D01*
X83920523Y-122645920D01*
X83920524Y-122645920D01*
X84600000Y-121966444D01*
X84600000Y-121972661D01*
X84627259Y-122074394D01*
X84679920Y-122165606D01*
X84754394Y-122240080D01*
X84845606Y-122292741D01*
X84947339Y-122320000D01*
X84953553Y-122320000D01*
X84274078Y-122999475D01*
X84318647Y-123031858D01*
X84500972Y-123124756D01*
X84695587Y-123187991D01*
X84897685Y-123220000D01*
X85102315Y-123220000D01*
X85304412Y-123187991D01*
X85499027Y-123124756D01*
X85681342Y-123031863D01*
X85681350Y-123031858D01*
X85725920Y-122999475D01*
X85399830Y-122673385D01*
X96399501Y-122673385D01*
X96399501Y-122846614D01*
X96426598Y-123017702D01*
X96426599Y-123017706D01*
X96480124Y-123182438D01*
X96480126Y-123182441D01*
X96558768Y-123336786D01*
X96558770Y-123336790D01*
X96660581Y-123476921D01*
X96660583Y-123476923D01*
X96660586Y-123476927D01*
X96783073Y-123599414D01*
X96783076Y-123599416D01*
X96783078Y-123599418D01*
X96923209Y-123701229D01*
X96923213Y-123701231D01*
X97077555Y-123779872D01*
X97077557Y-123779872D01*
X97077558Y-123779873D01*
X97077561Y-123779875D01*
X97242293Y-123833400D01*
X97242297Y-123833401D01*
X97413386Y-123860499D01*
X97413389Y-123860499D01*
X97586614Y-123860499D01*
X97757702Y-123833401D01*
X97757706Y-123833400D01*
X97922438Y-123779875D01*
X97922440Y-123779873D01*
X97922445Y-123779872D01*
X98076787Y-123701231D01*
X98077707Y-123700563D01*
X98132371Y-123660847D01*
X98216927Y-123599414D01*
X98339414Y-123476927D01*
X98441231Y-123336787D01*
X98519872Y-123182445D01*
X98573401Y-123017701D01*
X98573401Y-123017700D01*
X98574521Y-123014254D01*
X98610485Y-122964754D01*
X98668676Y-122945847D01*
X98726867Y-122964754D01*
X98762831Y-123014255D01*
X98766457Y-123029360D01*
X98772008Y-123064412D01*
X98835243Y-123259027D01*
X98928138Y-123441346D01*
X99048414Y-123606891D01*
X99193108Y-123751585D01*
X99358653Y-123871861D01*
X99540972Y-123964756D01*
X99735589Y-124027991D01*
X99735585Y-124027991D01*
X99789999Y-124036608D01*
X99790000Y-124036607D01*
X99790000Y-123193012D01*
X99847007Y-123225925D01*
X99974174Y-123260000D01*
X100105826Y-123260000D01*
X100232993Y-123225925D01*
X100290000Y-123193012D01*
X100290000Y-124036608D01*
X100344412Y-124027991D01*
X100539027Y-123964756D01*
X100721346Y-123871861D01*
X100886891Y-123751585D01*
X101031585Y-123606891D01*
X101151861Y-123441346D01*
X101244756Y-123259027D01*
X101307989Y-123064417D01*
X101313541Y-123029362D01*
X101341318Y-122974845D01*
X101395834Y-122947066D01*
X101456266Y-122956636D01*
X101499532Y-122999900D01*
X101505477Y-123014254D01*
X101560124Y-123182438D01*
X101560126Y-123182441D01*
X101638768Y-123336786D01*
X101638770Y-123336790D01*
X101740581Y-123476921D01*
X101740583Y-123476923D01*
X101740586Y-123476927D01*
X101863073Y-123599414D01*
X101863076Y-123599416D01*
X101863078Y-123599418D01*
X102003209Y-123701229D01*
X102003213Y-123701231D01*
X102157555Y-123779872D01*
X102157557Y-123779872D01*
X102157558Y-123779873D01*
X102157561Y-123779875D01*
X102322293Y-123833400D01*
X102322297Y-123833401D01*
X102493386Y-123860499D01*
X102493389Y-123860499D01*
X102666614Y-123860499D01*
X102837702Y-123833401D01*
X102837706Y-123833400D01*
X103002438Y-123779875D01*
X103002440Y-123779873D01*
X103002445Y-123779872D01*
X103156787Y-123701231D01*
X103157707Y-123700563D01*
X103212371Y-123660847D01*
X103296927Y-123599414D01*
X103419414Y-123476927D01*
X103521231Y-123336787D01*
X103599872Y-123182445D01*
X103599873Y-123182440D01*
X103599875Y-123182438D01*
X103653400Y-123017706D01*
X103653401Y-123017702D01*
X103680499Y-122846614D01*
X103680499Y-122673385D01*
X103653401Y-122502297D01*
X103653400Y-122502293D01*
X103599875Y-122337561D01*
X103599873Y-122337558D01*
X103599872Y-122337557D01*
X103599872Y-122337555D01*
X103521231Y-122183213D01*
X103521229Y-122183209D01*
X103419418Y-122043078D01*
X103419416Y-122043076D01*
X103419414Y-122043073D01*
X103296927Y-121920586D01*
X103296923Y-121920583D01*
X103296921Y-121920581D01*
X103156790Y-121818770D01*
X103156786Y-121818768D01*
X103002441Y-121740126D01*
X103002438Y-121740124D01*
X102837706Y-121686599D01*
X102837702Y-121686598D01*
X102666614Y-121659501D01*
X102666611Y-121659501D01*
X102493389Y-121659501D01*
X102493386Y-121659501D01*
X102322297Y-121686598D01*
X102322293Y-121686599D01*
X102157561Y-121740124D01*
X102157558Y-121740126D01*
X102003213Y-121818768D01*
X102003209Y-121818770D01*
X101863078Y-121920581D01*
X101740581Y-122043078D01*
X101638770Y-122183209D01*
X101638768Y-122183213D01*
X101560126Y-122337558D01*
X101505477Y-122505746D01*
X101469513Y-122555245D01*
X101411322Y-122574152D01*
X101353131Y-122555244D01*
X101317168Y-122505744D01*
X101313542Y-122490637D01*
X101307991Y-122455588D01*
X101244756Y-122260972D01*
X101151861Y-122078653D01*
X101031585Y-121913108D01*
X100886891Y-121768414D01*
X100721346Y-121648138D01*
X100539027Y-121555243D01*
X100344414Y-121492009D01*
X100290000Y-121483390D01*
X100290000Y-122326988D01*
X100232993Y-122294075D01*
X100105826Y-122260000D01*
X99974174Y-122260000D01*
X99847007Y-122294075D01*
X99790000Y-122326988D01*
X99790000Y-121483391D01*
X99789999Y-121483390D01*
X99735585Y-121492009D01*
X99540972Y-121555243D01*
X99358653Y-121648138D01*
X99193108Y-121768414D01*
X99048414Y-121913108D01*
X98928138Y-122078653D01*
X98835243Y-122260972D01*
X98772008Y-122455587D01*
X98766457Y-122490639D01*
X98738679Y-122545156D01*
X98684163Y-122572933D01*
X98623731Y-122563361D01*
X98580466Y-122520097D01*
X98574522Y-122505745D01*
X98519875Y-122337561D01*
X98519873Y-122337558D01*
X98519872Y-122337557D01*
X98519872Y-122337555D01*
X98441231Y-122183213D01*
X98441229Y-122183209D01*
X98339418Y-122043078D01*
X98339416Y-122043076D01*
X98339414Y-122043073D01*
X98216927Y-121920586D01*
X98216923Y-121920583D01*
X98216921Y-121920581D01*
X98076790Y-121818770D01*
X98076786Y-121818768D01*
X97922441Y-121740126D01*
X97922438Y-121740124D01*
X97757706Y-121686599D01*
X97757702Y-121686598D01*
X97586614Y-121659501D01*
X97586611Y-121659501D01*
X97413389Y-121659501D01*
X97413386Y-121659501D01*
X97242297Y-121686598D01*
X97242293Y-121686599D01*
X97077561Y-121740124D01*
X97077558Y-121740126D01*
X96923213Y-121818768D01*
X96923209Y-121818770D01*
X96783078Y-121920581D01*
X96660581Y-122043078D01*
X96558770Y-122183209D01*
X96558768Y-122183213D01*
X96480126Y-122337558D01*
X96480124Y-122337561D01*
X96426599Y-122502293D01*
X96426598Y-122502297D01*
X96399501Y-122673385D01*
X85399830Y-122673385D01*
X85046445Y-122320000D01*
X85052661Y-122320000D01*
X85154394Y-122292741D01*
X85245606Y-122240080D01*
X85320080Y-122165606D01*
X85372741Y-122074394D01*
X85400000Y-121972661D01*
X85400000Y-121966445D01*
X86079475Y-122645920D01*
X86104624Y-122611307D01*
X86104624Y-122611306D01*
X86111857Y-122601352D01*
X86111863Y-122601342D01*
X86204756Y-122419027D01*
X86267991Y-122224412D01*
X86300000Y-122022315D01*
X86300000Y-121817684D01*
X86267991Y-121615587D01*
X86204756Y-121420972D01*
X86111858Y-121238647D01*
X86079475Y-121194078D01*
X85400000Y-121873553D01*
X85400000Y-121867339D01*
X85372741Y-121765606D01*
X85320080Y-121674394D01*
X85245606Y-121599920D01*
X85154394Y-121547259D01*
X85052661Y-121520000D01*
X85046445Y-121520000D01*
X85725920Y-120840524D01*
X85725920Y-120840523D01*
X85681353Y-120808143D01*
X85681348Y-120808139D01*
X85499027Y-120715243D01*
X85304412Y-120652008D01*
X85102315Y-120620000D01*
X84897685Y-120620000D01*
X84695587Y-120652008D01*
X84500972Y-120715243D01*
X84318651Y-120808139D01*
X84318647Y-120808141D01*
X84274078Y-120840523D01*
X84953555Y-121520000D01*
X84947339Y-121520000D01*
X84845606Y-121547259D01*
X84754394Y-121599920D01*
X84679920Y-121674394D01*
X84627259Y-121765606D01*
X84600000Y-121867339D01*
X84600000Y-121873555D01*
X83920523Y-121194078D01*
X83888141Y-121238647D01*
X83888139Y-121238651D01*
X83795243Y-121420972D01*
X83732008Y-121615587D01*
X83700000Y-121817684D01*
X82098012Y-121817684D01*
X82073401Y-121662297D01*
X82073400Y-121662293D01*
X82019875Y-121497561D01*
X82019873Y-121497558D01*
X82019872Y-121497557D01*
X82019872Y-121497555D01*
X81941231Y-121343213D01*
X81941229Y-121343209D01*
X81839417Y-121203077D01*
X81839411Y-121203070D01*
X81829493Y-121193151D01*
X81801717Y-121138633D01*
X81800499Y-121123150D01*
X81800499Y-120421159D01*
X81800497Y-120421147D01*
X81800033Y-120418810D01*
X81800161Y-120417727D01*
X81800022Y-120416314D01*
X81800332Y-120416283D01*
X81807226Y-120358049D01*
X81848761Y-120313120D01*
X81897131Y-120300499D01*
X86578841Y-120300499D01*
X86578842Y-120300499D01*
X86733497Y-120269736D01*
X86879178Y-120209393D01*
X87010288Y-120121788D01*
X87121788Y-120010288D01*
X87209393Y-119879178D01*
X87269736Y-119733497D01*
X87300499Y-119578842D01*
X87300499Y-119421158D01*
X87269736Y-119266503D01*
X87209393Y-119120822D01*
X87209392Y-119120820D01*
X87209389Y-119120815D01*
X87156163Y-119041158D01*
X87121788Y-118989712D01*
X87010288Y-118878212D01*
X86945406Y-118834859D01*
X86879184Y-118790610D01*
X86879173Y-118790604D01*
X86733497Y-118730264D01*
X86578844Y-118699501D01*
X86578842Y-118699501D01*
X80078842Y-118699501D01*
X75671583Y-118699501D01*
X75613392Y-118680594D01*
X75577428Y-118631094D01*
X75577428Y-118569908D01*
X75601579Y-118530497D01*
X75802581Y-118329495D01*
X75857098Y-118301718D01*
X75872585Y-118300499D01*
X103127414Y-118300499D01*
X103185605Y-118319406D01*
X103197418Y-118329495D01*
X104290505Y-119422582D01*
X104318282Y-119477099D01*
X104319501Y-119492586D01*
X104319501Y-121963150D01*
X104300594Y-122021341D01*
X104290507Y-122033151D01*
X104280588Y-122043070D01*
X104280582Y-122043077D01*
X104178770Y-122183209D01*
X104178768Y-122183213D01*
X104100126Y-122337558D01*
X104100124Y-122337561D01*
X104046599Y-122502293D01*
X104046598Y-122502297D01*
X104019501Y-122673385D01*
X104019501Y-122846614D01*
X104046598Y-123017702D01*
X104046599Y-123017706D01*
X104100124Y-123182438D01*
X104100126Y-123182441D01*
X104178768Y-123336786D01*
X104178770Y-123336790D01*
X104280581Y-123476921D01*
X104280583Y-123476923D01*
X104280586Y-123476927D01*
X104403073Y-123599414D01*
X104403076Y-123599416D01*
X104403078Y-123599418D01*
X104543209Y-123701229D01*
X104543213Y-123701231D01*
X104697555Y-123779872D01*
X104697557Y-123779872D01*
X104697558Y-123779873D01*
X104697561Y-123779875D01*
X104862293Y-123833400D01*
X104862297Y-123833401D01*
X105033386Y-123860499D01*
X105033389Y-123860499D01*
X105206614Y-123860499D01*
X105377702Y-123833401D01*
X105377706Y-123833400D01*
X105542438Y-123779875D01*
X105542440Y-123779873D01*
X105542445Y-123779872D01*
X105696787Y-123701231D01*
X105697707Y-123700563D01*
X105752371Y-123660847D01*
X105836927Y-123599414D01*
X105905499Y-123530841D01*
X105960014Y-123503066D01*
X106020446Y-123512637D01*
X106063711Y-123555902D01*
X106074501Y-123600847D01*
X106074501Y-127782744D01*
X106055594Y-127840935D01*
X106045505Y-127852748D01*
X104852748Y-129045505D01*
X104798231Y-129073282D01*
X104782744Y-129074501D01*
X98562097Y-129074501D01*
X98562081Y-129074500D01*
X98556018Y-129074500D01*
X98443983Y-129074500D01*
X98335764Y-129103497D01*
X98335763Y-129103497D01*
X98335761Y-129103498D01*
X98312836Y-129116734D01*
X98294756Y-129127173D01*
X98259240Y-129147677D01*
X98238736Y-129159516D01*
X98159515Y-129238736D01*
X98159516Y-129238737D01*
X98159514Y-129238739D01*
X97238737Y-130159515D01*
X97238737Y-130159516D01*
X97238736Y-130159515D01*
X97159515Y-130238737D01*
X97103499Y-130335758D01*
X97074501Y-130443983D01*
X97074501Y-136800501D01*
X97055594Y-136858692D01*
X97006094Y-136894656D01*
X96975501Y-136899501D01*
X96655130Y-136899501D01*
X96630011Y-136902415D01*
X96527236Y-136947795D01*
X96447795Y-137027236D01*
X96402415Y-137130011D01*
X96399501Y-137155130D01*
X96399501Y-138844869D01*
X96402415Y-138869988D01*
X96402415Y-138869990D01*
X96402416Y-138869991D01*
X96447795Y-138972764D01*
X96527236Y-139052205D01*
X96630009Y-139097584D01*
X96655131Y-139100498D01*
X96655133Y-139100499D01*
X96655135Y-139100499D01*
X98344867Y-139100499D01*
X98344867Y-139100498D01*
X98369991Y-139097584D01*
X98472764Y-139052205D01*
X98552205Y-138972764D01*
X98597584Y-138869991D01*
X98600499Y-138844865D01*
X98600499Y-137155135D01*
X98597584Y-137130009D01*
X98552205Y-137027236D01*
X98472764Y-136947795D01*
X98369991Y-136902416D01*
X98369988Y-136902415D01*
X98344869Y-136899501D01*
X98344865Y-136899501D01*
X98024499Y-136899501D01*
X97966308Y-136880594D01*
X97930344Y-136831094D01*
X97925499Y-136800501D01*
X97925499Y-130717255D01*
X97944406Y-130659064D01*
X97954495Y-130647251D01*
X98647251Y-129954495D01*
X98701768Y-129926718D01*
X98717255Y-129925499D01*
X105056016Y-129925499D01*
X105056018Y-129925499D01*
X105164237Y-129896502D01*
X105164239Y-129896500D01*
X105164241Y-129896500D01*
X105198093Y-129876955D01*
X105261263Y-129840484D01*
X105340484Y-129761263D01*
X105340485Y-129761262D01*
X106840484Y-128261263D01*
X106862008Y-128223982D01*
X106896502Y-128164237D01*
X106925499Y-128056018D01*
X106925499Y-123780943D01*
X106944406Y-123722752D01*
X106993906Y-123686788D01*
X107055092Y-123686788D01*
X107079791Y-123699374D01*
X107079899Y-123699200D01*
X107082123Y-123700563D01*
X107082694Y-123700854D01*
X107083213Y-123701231D01*
X107237555Y-123779872D01*
X107237557Y-123779872D01*
X107237558Y-123779873D01*
X107237561Y-123779875D01*
X107402293Y-123833400D01*
X107402297Y-123833401D01*
X107573386Y-123860499D01*
X107573389Y-123860499D01*
X107746614Y-123860499D01*
X107917702Y-123833401D01*
X107917706Y-123833400D01*
X108082438Y-123779875D01*
X108082440Y-123779873D01*
X108082445Y-123779872D01*
X108236787Y-123701231D01*
X108237707Y-123700563D01*
X108292371Y-123660847D01*
X108376927Y-123599414D01*
X108405499Y-123570841D01*
X108460014Y-123543066D01*
X108520446Y-123552637D01*
X108563711Y-123595902D01*
X108574501Y-123640847D01*
X108574501Y-127282744D01*
X108555594Y-127340935D01*
X108545505Y-127352748D01*
X105352748Y-130545505D01*
X105298231Y-130573282D01*
X105282744Y-130574501D01*
X100443982Y-130574501D01*
X100377748Y-130592248D01*
X100335758Y-130603499D01*
X100238737Y-130659515D01*
X99699515Y-131198737D01*
X99643499Y-131295758D01*
X99614501Y-131403983D01*
X99614501Y-136921016D01*
X99595594Y-136979207D01*
X99560446Y-137009226D01*
X99463213Y-137058768D01*
X99463209Y-137058770D01*
X99323078Y-137160581D01*
X99200581Y-137283078D01*
X99098770Y-137423209D01*
X99098768Y-137423213D01*
X99020126Y-137577558D01*
X99020124Y-137577561D01*
X98966599Y-137742293D01*
X98966598Y-137742297D01*
X98939501Y-137913385D01*
X98939501Y-138086614D01*
X98966598Y-138257702D01*
X98966599Y-138257706D01*
X99020124Y-138422438D01*
X99020126Y-138422441D01*
X99098768Y-138576786D01*
X99098770Y-138576790D01*
X99200581Y-138716921D01*
X99200583Y-138716923D01*
X99200586Y-138716927D01*
X99323073Y-138839414D01*
X99323076Y-138839416D01*
X99323078Y-138839418D01*
X99463209Y-138941229D01*
X99463213Y-138941231D01*
X99617555Y-139019872D01*
X99617557Y-139019872D01*
X99617558Y-139019873D01*
X99617561Y-139019875D01*
X99782293Y-139073400D01*
X99782297Y-139073401D01*
X99953386Y-139100499D01*
X99953389Y-139100499D01*
X100126614Y-139100499D01*
X100297702Y-139073401D01*
X100297706Y-139073400D01*
X100462438Y-139019875D01*
X100462440Y-139019873D01*
X100462445Y-139019872D01*
X100616787Y-138941231D01*
X100644420Y-138921155D01*
X100714845Y-138869988D01*
X100756927Y-138839414D01*
X100879414Y-138716927D01*
X100981231Y-138576787D01*
X101059872Y-138422445D01*
X101059873Y-138422440D01*
X101059875Y-138422438D01*
X101113400Y-138257706D01*
X101113401Y-138257702D01*
X101140499Y-138086614D01*
X101140499Y-137913385D01*
X101113401Y-137742297D01*
X101113400Y-137742293D01*
X101059875Y-137577561D01*
X101059873Y-137577558D01*
X101059872Y-137577557D01*
X101059872Y-137577555D01*
X100981231Y-137423213D01*
X100981229Y-137423209D01*
X100879418Y-137283078D01*
X100879416Y-137283076D01*
X100879414Y-137283073D01*
X100756927Y-137160586D01*
X100756923Y-137160583D01*
X100756921Y-137160581D01*
X100616790Y-137058770D01*
X100616786Y-137058768D01*
X100519554Y-137009226D01*
X100476289Y-136965961D01*
X100465499Y-136921016D01*
X100465499Y-131677256D01*
X100484406Y-131619065D01*
X100494495Y-131607252D01*
X100647252Y-131454495D01*
X100701769Y-131426718D01*
X100717256Y-131425499D01*
X105556016Y-131425499D01*
X105556018Y-131425499D01*
X105664237Y-131396502D01*
X105664239Y-131396500D01*
X105664241Y-131396500D01*
X105722129Y-131363078D01*
X105761263Y-131340484D01*
X105840484Y-131261263D01*
X109340484Y-127761263D01*
X109353489Y-127738738D01*
X109396502Y-127664237D01*
X109425499Y-127556018D01*
X109425499Y-123751882D01*
X109444406Y-123693691D01*
X109493906Y-123657727D01*
X109555092Y-123657727D01*
X109582687Y-123671787D01*
X109603334Y-123686788D01*
X109623214Y-123701232D01*
X109694103Y-123737351D01*
X109777555Y-123779872D01*
X109777557Y-123779872D01*
X109777558Y-123779873D01*
X109777561Y-123779875D01*
X109942293Y-123833400D01*
X109942297Y-123833401D01*
X110113386Y-123860499D01*
X110113389Y-123860499D01*
X110286614Y-123860499D01*
X110457702Y-123833401D01*
X110457706Y-123833400D01*
X110622438Y-123779875D01*
X110622440Y-123779873D01*
X110622445Y-123779872D01*
X110776787Y-123701231D01*
X110916927Y-123599414D01*
X110916929Y-123599411D01*
X110917310Y-123599135D01*
X110975501Y-123580228D01*
X111033692Y-123599135D01*
X111069656Y-123648635D01*
X111074501Y-123679228D01*
X111074501Y-126782744D01*
X111055594Y-126840935D01*
X111045505Y-126852748D01*
X107398737Y-130499516D01*
X107398736Y-130499515D01*
X107319515Y-130578737D01*
X107263499Y-130675758D01*
X107234501Y-130783983D01*
X107234501Y-136921016D01*
X107215594Y-136979207D01*
X107180446Y-137009226D01*
X107083213Y-137058768D01*
X107083209Y-137058770D01*
X106943078Y-137160581D01*
X106820581Y-137283078D01*
X106718770Y-137423209D01*
X106718768Y-137423213D01*
X106640126Y-137577558D01*
X106585477Y-137745746D01*
X106549513Y-137795245D01*
X106491322Y-137814152D01*
X106433131Y-137795244D01*
X106397168Y-137745744D01*
X106393542Y-137730637D01*
X106387991Y-137695588D01*
X106324756Y-137500972D01*
X106231861Y-137318653D01*
X106111585Y-137153108D01*
X105966891Y-137008414D01*
X105801346Y-136888138D01*
X105619027Y-136795243D01*
X105424414Y-136732009D01*
X105370000Y-136723390D01*
X105370000Y-137566988D01*
X105312993Y-137534075D01*
X105185826Y-137500000D01*
X105054174Y-137500000D01*
X104927007Y-137534075D01*
X104870000Y-137566988D01*
X104870000Y-136723391D01*
X104869999Y-136723390D01*
X104815585Y-136732009D01*
X104620972Y-136795243D01*
X104438653Y-136888138D01*
X104273108Y-137008414D01*
X104128414Y-137153108D01*
X104008138Y-137318653D01*
X103915243Y-137500972D01*
X103852008Y-137695587D01*
X103846457Y-137730639D01*
X103818679Y-137785156D01*
X103764163Y-137812933D01*
X103703731Y-137803361D01*
X103660466Y-137760097D01*
X103654522Y-137745745D01*
X103599875Y-137577561D01*
X103599873Y-137577558D01*
X103599872Y-137577557D01*
X103599872Y-137577555D01*
X103521231Y-137423213D01*
X103521229Y-137423209D01*
X103419418Y-137283078D01*
X103419416Y-137283076D01*
X103419414Y-137283073D01*
X103296927Y-137160586D01*
X103296923Y-137160583D01*
X103296921Y-137160581D01*
X103156790Y-137058770D01*
X103156786Y-137058768D01*
X103002441Y-136980126D01*
X103002438Y-136980124D01*
X102837706Y-136926599D01*
X102837702Y-136926598D01*
X102666614Y-136899501D01*
X102666611Y-136899501D01*
X102493389Y-136899501D01*
X102493386Y-136899501D01*
X102322297Y-136926598D01*
X102322293Y-136926599D01*
X102157561Y-136980124D01*
X102157558Y-136980126D01*
X102003213Y-137058768D01*
X102003209Y-137058770D01*
X101863078Y-137160581D01*
X101740581Y-137283078D01*
X101638770Y-137423209D01*
X101638768Y-137423213D01*
X101560126Y-137577558D01*
X101560124Y-137577561D01*
X101506599Y-137742293D01*
X101506598Y-137742297D01*
X101479501Y-137913385D01*
X101479501Y-138086614D01*
X101506598Y-138257702D01*
X101506599Y-138257706D01*
X101560124Y-138422438D01*
X101560126Y-138422441D01*
X101638768Y-138576786D01*
X101638770Y-138576790D01*
X101740581Y-138716921D01*
X101740583Y-138716923D01*
X101740586Y-138716927D01*
X101863073Y-138839414D01*
X101863076Y-138839416D01*
X101863078Y-138839418D01*
X102003209Y-138941229D01*
X102003213Y-138941231D01*
X102157555Y-139019872D01*
X102157557Y-139019872D01*
X102157558Y-139019873D01*
X102157561Y-139019875D01*
X102322293Y-139073400D01*
X102322297Y-139073401D01*
X102493386Y-139100499D01*
X102493389Y-139100499D01*
X102666614Y-139100499D01*
X102837702Y-139073401D01*
X102837706Y-139073400D01*
X103002438Y-139019875D01*
X103002440Y-139019873D01*
X103002445Y-139019872D01*
X103156787Y-138941231D01*
X103184420Y-138921155D01*
X103254845Y-138869988D01*
X103296927Y-138839414D01*
X103419414Y-138716927D01*
X103521231Y-138576787D01*
X103599872Y-138422445D01*
X103653401Y-138257701D01*
X103653401Y-138257700D01*
X103654521Y-138254254D01*
X103690485Y-138204754D01*
X103748676Y-138185847D01*
X103806867Y-138204754D01*
X103842831Y-138254255D01*
X103846457Y-138269360D01*
X103852008Y-138304412D01*
X103915243Y-138499027D01*
X104008138Y-138681346D01*
X104128414Y-138846891D01*
X104273108Y-138991585D01*
X104438653Y-139111861D01*
X104620972Y-139204756D01*
X104815589Y-139267991D01*
X104815585Y-139267991D01*
X104869999Y-139276608D01*
X104870000Y-139276607D01*
X104870000Y-138433012D01*
X104927007Y-138465925D01*
X105054174Y-138500000D01*
X105185826Y-138500000D01*
X105312993Y-138465925D01*
X105370000Y-138433012D01*
X105370000Y-139276608D01*
X105424412Y-139267991D01*
X105619027Y-139204756D01*
X105801346Y-139111861D01*
X105966891Y-138991585D01*
X106111585Y-138846891D01*
X106231861Y-138681346D01*
X106324756Y-138499027D01*
X106387989Y-138304417D01*
X106393541Y-138269362D01*
X106421318Y-138214845D01*
X106475834Y-138187066D01*
X106536266Y-138196636D01*
X106579532Y-138239900D01*
X106585477Y-138254254D01*
X106640124Y-138422438D01*
X106640126Y-138422441D01*
X106718768Y-138576786D01*
X106718770Y-138576790D01*
X106820581Y-138716921D01*
X106820583Y-138716923D01*
X106820586Y-138716927D01*
X106943073Y-138839414D01*
X106943076Y-138839416D01*
X106943078Y-138839418D01*
X107083209Y-138941229D01*
X107083213Y-138941231D01*
X107237555Y-139019872D01*
X107237557Y-139019872D01*
X107237558Y-139019873D01*
X107237561Y-139019875D01*
X107402293Y-139073400D01*
X107402297Y-139073401D01*
X107573386Y-139100499D01*
X107573389Y-139100499D01*
X107746614Y-139100499D01*
X107917702Y-139073401D01*
X107917706Y-139073400D01*
X108082438Y-139019875D01*
X108082440Y-139019873D01*
X108082445Y-139019872D01*
X108236787Y-138941231D01*
X108264420Y-138921155D01*
X108334845Y-138869988D01*
X108376927Y-138839414D01*
X108499414Y-138716927D01*
X108601231Y-138576787D01*
X108679872Y-138422445D01*
X108679873Y-138422440D01*
X108679875Y-138422438D01*
X108733400Y-138257706D01*
X108733401Y-138257702D01*
X108760499Y-138086614D01*
X108760499Y-137913385D01*
X109099501Y-137913385D01*
X109099501Y-138086614D01*
X109126598Y-138257702D01*
X109126599Y-138257706D01*
X109180124Y-138422438D01*
X109180126Y-138422441D01*
X109258768Y-138576786D01*
X109258770Y-138576790D01*
X109360581Y-138716921D01*
X109360583Y-138716923D01*
X109360586Y-138716927D01*
X109483073Y-138839414D01*
X109483076Y-138839416D01*
X109483078Y-138839418D01*
X109623209Y-138941229D01*
X109623213Y-138941231D01*
X109777555Y-139019872D01*
X109777557Y-139019872D01*
X109777558Y-139019873D01*
X109777561Y-139019875D01*
X109942293Y-139073400D01*
X109942297Y-139073401D01*
X110113386Y-139100499D01*
X110113389Y-139100499D01*
X110286614Y-139100499D01*
X110457702Y-139073401D01*
X110457706Y-139073400D01*
X110622438Y-139019875D01*
X110622440Y-139019873D01*
X110622445Y-139019872D01*
X110776787Y-138941231D01*
X110804420Y-138921155D01*
X110874845Y-138869988D01*
X110916927Y-138839414D01*
X111039414Y-138716927D01*
X111141231Y-138576787D01*
X111219872Y-138422445D01*
X111219873Y-138422440D01*
X111219875Y-138422438D01*
X111273400Y-138257706D01*
X111273401Y-138257702D01*
X111300499Y-138086614D01*
X111300499Y-137913385D01*
X111639501Y-137913385D01*
X111639501Y-138086614D01*
X111666598Y-138257702D01*
X111666599Y-138257706D01*
X111720124Y-138422438D01*
X111720126Y-138422441D01*
X111798768Y-138576786D01*
X111798770Y-138576790D01*
X111900581Y-138716921D01*
X111900583Y-138716923D01*
X111900586Y-138716927D01*
X112023073Y-138839414D01*
X112023076Y-138839416D01*
X112023078Y-138839418D01*
X112163209Y-138941229D01*
X112163213Y-138941231D01*
X112317555Y-139019872D01*
X112317557Y-139019872D01*
X112317558Y-139019873D01*
X112317561Y-139019875D01*
X112482293Y-139073400D01*
X112482297Y-139073401D01*
X112653386Y-139100499D01*
X112653389Y-139100499D01*
X112826614Y-139100499D01*
X112997702Y-139073401D01*
X112997706Y-139073400D01*
X113162438Y-139019875D01*
X113162440Y-139019873D01*
X113162445Y-139019872D01*
X113316787Y-138941231D01*
X113344420Y-138921155D01*
X113414845Y-138869988D01*
X113456927Y-138839414D01*
X113579414Y-138716927D01*
X113681231Y-138576787D01*
X113759872Y-138422445D01*
X113759873Y-138422440D01*
X113759875Y-138422438D01*
X113813400Y-138257706D01*
X113813401Y-138257702D01*
X113840499Y-138086614D01*
X113840499Y-137913385D01*
X113813401Y-137742297D01*
X113813400Y-137742293D01*
X113759875Y-137577561D01*
X113759873Y-137577558D01*
X113759872Y-137577557D01*
X113759872Y-137577555D01*
X113681231Y-137423213D01*
X113681229Y-137423209D01*
X113579418Y-137283078D01*
X113579416Y-137283076D01*
X113579414Y-137283073D01*
X113456927Y-137160586D01*
X113456923Y-137160583D01*
X113456921Y-137160581D01*
X113316790Y-137058770D01*
X113316786Y-137058768D01*
X113162441Y-136980126D01*
X113162438Y-136980124D01*
X112997706Y-136926599D01*
X112997702Y-136926598D01*
X112826614Y-136899501D01*
X112826611Y-136899501D01*
X112653389Y-136899501D01*
X112653386Y-136899501D01*
X112482297Y-136926598D01*
X112482293Y-136926599D01*
X112317561Y-136980124D01*
X112317558Y-136980126D01*
X112163213Y-137058768D01*
X112163209Y-137058770D01*
X112023078Y-137160581D01*
X111900581Y-137283078D01*
X111798770Y-137423209D01*
X111798768Y-137423213D01*
X111720126Y-137577558D01*
X111720124Y-137577561D01*
X111666599Y-137742293D01*
X111666598Y-137742297D01*
X111639501Y-137913385D01*
X111300499Y-137913385D01*
X111273401Y-137742297D01*
X111273400Y-137742293D01*
X111219875Y-137577561D01*
X111219873Y-137577558D01*
X111219872Y-137577557D01*
X111219872Y-137577555D01*
X111141231Y-137423213D01*
X111141229Y-137423209D01*
X111039418Y-137283078D01*
X111039416Y-137283076D01*
X111039414Y-137283073D01*
X110916927Y-137160586D01*
X110916923Y-137160583D01*
X110916921Y-137160581D01*
X110776790Y-137058770D01*
X110776786Y-137058768D01*
X110622441Y-136980126D01*
X110622438Y-136980124D01*
X110457706Y-136926599D01*
X110457702Y-136926598D01*
X110286614Y-136899501D01*
X110286611Y-136899501D01*
X110113389Y-136899501D01*
X110113386Y-136899501D01*
X109942297Y-136926598D01*
X109942293Y-136926599D01*
X109777561Y-136980124D01*
X109777558Y-136980126D01*
X109623213Y-137058768D01*
X109623209Y-137058770D01*
X109483078Y-137160581D01*
X109360581Y-137283078D01*
X109258770Y-137423209D01*
X109258768Y-137423213D01*
X109180126Y-137577558D01*
X109180124Y-137577561D01*
X109126599Y-137742293D01*
X109126598Y-137742297D01*
X109099501Y-137913385D01*
X108760499Y-137913385D01*
X108733401Y-137742297D01*
X108733400Y-137742293D01*
X108679875Y-137577561D01*
X108679873Y-137577558D01*
X108679872Y-137577557D01*
X108679872Y-137577555D01*
X108601231Y-137423213D01*
X108601229Y-137423209D01*
X108499418Y-137283078D01*
X108499416Y-137283076D01*
X108499414Y-137283073D01*
X108376927Y-137160586D01*
X108376923Y-137160583D01*
X108376921Y-137160581D01*
X108236790Y-137058770D01*
X108236786Y-137058768D01*
X108139554Y-137009226D01*
X108096289Y-136965961D01*
X108085499Y-136921016D01*
X108085499Y-131057255D01*
X108104406Y-130999064D01*
X108114489Y-130987257D01*
X111840484Y-127261263D01*
X111857682Y-127231475D01*
X111896502Y-127164237D01*
X111925499Y-127056018D01*
X111925499Y-123722820D01*
X111944406Y-123664629D01*
X111993906Y-123628665D01*
X112055092Y-123628665D01*
X112082685Y-123642724D01*
X112163213Y-123701231D01*
X112317555Y-123779872D01*
X112317557Y-123779872D01*
X112317558Y-123779873D01*
X112317561Y-123779875D01*
X112482293Y-123833400D01*
X112482297Y-123833401D01*
X112653386Y-123860499D01*
X112653389Y-123860499D01*
X112826614Y-123860499D01*
X112997702Y-123833401D01*
X112997706Y-123833400D01*
X113162438Y-123779875D01*
X113162440Y-123779873D01*
X113162445Y-123779872D01*
X113316787Y-123701231D01*
X113417313Y-123628194D01*
X113475501Y-123609289D01*
X113533692Y-123628196D01*
X113569656Y-123677696D01*
X113574501Y-123708289D01*
X113574501Y-127056018D01*
X113603498Y-127164237D01*
X113603499Y-127164239D01*
X113642317Y-127231473D01*
X113642317Y-127231474D01*
X113654907Y-127253279D01*
X113659516Y-127261263D01*
X114825506Y-128427253D01*
X114853282Y-128481768D01*
X114854501Y-128497255D01*
X114854501Y-136921016D01*
X114835594Y-136979207D01*
X114800446Y-137009226D01*
X114703213Y-137058768D01*
X114703209Y-137058770D01*
X114563078Y-137160581D01*
X114440581Y-137283078D01*
X114338770Y-137423209D01*
X114338768Y-137423213D01*
X114260126Y-137577558D01*
X114260124Y-137577561D01*
X114206599Y-137742293D01*
X114206598Y-137742297D01*
X114179501Y-137913385D01*
X114179501Y-138086614D01*
X114206598Y-138257702D01*
X114206599Y-138257706D01*
X114260124Y-138422438D01*
X114260126Y-138422441D01*
X114338768Y-138576786D01*
X114338770Y-138576790D01*
X114440581Y-138716921D01*
X114440583Y-138716923D01*
X114440586Y-138716927D01*
X114563073Y-138839414D01*
X114563076Y-138839416D01*
X114563078Y-138839418D01*
X114703209Y-138941229D01*
X114703213Y-138941231D01*
X114857555Y-139019872D01*
X114857557Y-139019872D01*
X114857558Y-139019873D01*
X114857561Y-139019875D01*
X115022293Y-139073400D01*
X115022297Y-139073401D01*
X115193386Y-139100499D01*
X115193389Y-139100499D01*
X115366614Y-139100499D01*
X115537702Y-139073401D01*
X115537706Y-139073400D01*
X115702438Y-139019875D01*
X115702440Y-139019873D01*
X115702445Y-139019872D01*
X115856787Y-138941231D01*
X115884420Y-138921155D01*
X115954845Y-138869988D01*
X115996927Y-138839414D01*
X116119414Y-138716927D01*
X116221231Y-138576787D01*
X116299872Y-138422445D01*
X116299873Y-138422440D01*
X116299875Y-138422438D01*
X116353400Y-138257706D01*
X116353401Y-138257702D01*
X116380499Y-138086614D01*
X116380499Y-137913385D01*
X116353401Y-137742297D01*
X116353400Y-137742293D01*
X116299875Y-137577561D01*
X116299873Y-137577558D01*
X116299872Y-137577557D01*
X116299872Y-137577555D01*
X116221231Y-137423213D01*
X116221229Y-137423209D01*
X116119418Y-137283078D01*
X116119416Y-137283076D01*
X116119414Y-137283073D01*
X115996927Y-137160586D01*
X115996923Y-137160583D01*
X115996921Y-137160581D01*
X115856790Y-137058770D01*
X115856786Y-137058768D01*
X115759554Y-137009226D01*
X115716289Y-136965961D01*
X115705499Y-136921016D01*
X115705499Y-128223983D01*
X115689490Y-128164237D01*
X115676502Y-128115763D01*
X115676500Y-128115760D01*
X115676500Y-128115758D01*
X115620484Y-128018737D01*
X115541263Y-127939515D01*
X115541263Y-127939516D01*
X114454495Y-126852748D01*
X114426718Y-126798231D01*
X114425499Y-126782744D01*
X114425499Y-123693759D01*
X114444406Y-123635568D01*
X114493906Y-123599604D01*
X114555092Y-123599604D01*
X114582687Y-123613664D01*
X114647629Y-123660847D01*
X114703214Y-123701232D01*
X114774103Y-123737351D01*
X114857555Y-123779872D01*
X114857557Y-123779872D01*
X114857558Y-123779873D01*
X114857561Y-123779875D01*
X115022293Y-123833400D01*
X115022297Y-123833401D01*
X115193386Y-123860499D01*
X115193389Y-123860499D01*
X115366614Y-123860499D01*
X115537702Y-123833401D01*
X115537706Y-123833400D01*
X115702438Y-123779875D01*
X115702440Y-123779873D01*
X115702445Y-123779872D01*
X115856787Y-123701231D01*
X115917311Y-123657257D01*
X115975501Y-123638351D01*
X116033692Y-123657258D01*
X116069656Y-123706758D01*
X116074501Y-123737351D01*
X116074501Y-127056018D01*
X116103498Y-127164237D01*
X116103499Y-127164239D01*
X116142317Y-127231473D01*
X116142317Y-127231474D01*
X116154907Y-127253279D01*
X116159516Y-127261263D01*
X116837769Y-127939515D01*
X117365505Y-128467251D01*
X117393282Y-128521768D01*
X117394501Y-128537255D01*
X117394501Y-136921016D01*
X117375594Y-136979207D01*
X117340446Y-137009226D01*
X117243213Y-137058768D01*
X117243209Y-137058770D01*
X117103078Y-137160581D01*
X116980581Y-137283078D01*
X116878770Y-137423209D01*
X116878768Y-137423213D01*
X116800126Y-137577558D01*
X116800124Y-137577561D01*
X116746599Y-137742293D01*
X116746598Y-137742297D01*
X116719501Y-137913385D01*
X116719501Y-138086614D01*
X116746598Y-138257702D01*
X116746599Y-138257706D01*
X116800124Y-138422438D01*
X116800126Y-138422441D01*
X116878768Y-138576786D01*
X116878770Y-138576790D01*
X116980581Y-138716921D01*
X116980583Y-138716923D01*
X116980586Y-138716927D01*
X117103073Y-138839414D01*
X117103076Y-138839416D01*
X117103078Y-138839418D01*
X117243209Y-138941229D01*
X117243213Y-138941231D01*
X117397555Y-139019872D01*
X117397557Y-139019872D01*
X117397558Y-139019873D01*
X117397561Y-139019875D01*
X117562293Y-139073400D01*
X117562297Y-139073401D01*
X117733386Y-139100499D01*
X117733389Y-139100499D01*
X117906614Y-139100499D01*
X118077702Y-139073401D01*
X118077706Y-139073400D01*
X118242438Y-139019875D01*
X118242440Y-139019873D01*
X118242445Y-139019872D01*
X118396787Y-138941231D01*
X118424420Y-138921155D01*
X118494845Y-138869988D01*
X118536927Y-138839414D01*
X118659414Y-138716927D01*
X118761231Y-138576787D01*
X118839872Y-138422445D01*
X118839873Y-138422440D01*
X118839875Y-138422438D01*
X118893400Y-138257706D01*
X118893401Y-138257702D01*
X118920499Y-138086614D01*
X118920499Y-137913385D01*
X118893401Y-137742297D01*
X118893400Y-137742293D01*
X118839875Y-137577561D01*
X118839873Y-137577558D01*
X118839872Y-137577557D01*
X118839872Y-137577555D01*
X118761231Y-137423213D01*
X118761229Y-137423209D01*
X118659418Y-137283078D01*
X118659416Y-137283076D01*
X118659414Y-137283073D01*
X118536927Y-137160586D01*
X118536923Y-137160583D01*
X118536921Y-137160581D01*
X118396790Y-137058770D01*
X118396786Y-137058768D01*
X118299554Y-137009226D01*
X118256289Y-136965961D01*
X118245499Y-136921016D01*
X118245499Y-128263983D01*
X118234780Y-128223979D01*
X118216502Y-128155763D01*
X118216500Y-128155760D01*
X118216500Y-128155758D01*
X118160485Y-128058739D01*
X118160484Y-128058737D01*
X118081263Y-127979516D01*
X118081260Y-127979514D01*
X116954495Y-126852748D01*
X116926718Y-126798231D01*
X116925499Y-126782744D01*
X116925499Y-123660847D01*
X116944406Y-123602656D01*
X116993906Y-123566692D01*
X117055092Y-123566692D01*
X117094500Y-123590841D01*
X117103073Y-123599414D01*
X117103076Y-123599416D01*
X117103078Y-123599418D01*
X117243209Y-123701229D01*
X117243213Y-123701231D01*
X117397555Y-123779872D01*
X117397557Y-123779872D01*
X117397558Y-123779873D01*
X117397561Y-123779875D01*
X117562293Y-123833400D01*
X117562297Y-123833401D01*
X117733386Y-123860499D01*
X117733389Y-123860499D01*
X117906614Y-123860499D01*
X118077702Y-123833401D01*
X118077706Y-123833400D01*
X118242438Y-123779875D01*
X118242440Y-123779873D01*
X118242445Y-123779872D01*
X118396787Y-123701231D01*
X118397707Y-123700563D01*
X118452371Y-123660847D01*
X118536927Y-123599414D01*
X118640499Y-123495841D01*
X118695014Y-123468066D01*
X118755446Y-123477637D01*
X118798711Y-123520902D01*
X118809501Y-123565847D01*
X118809501Y-126791018D01*
X118838498Y-126899237D01*
X118864332Y-126943982D01*
X118894516Y-126996263D01*
X120943759Y-129045505D01*
X122445505Y-130547251D01*
X122473282Y-130601768D01*
X122474501Y-130617255D01*
X122474501Y-136921016D01*
X122455594Y-136979207D01*
X122420446Y-137009226D01*
X122323213Y-137058768D01*
X122323209Y-137058770D01*
X122183078Y-137160581D01*
X122060581Y-137283078D01*
X121958770Y-137423209D01*
X121958768Y-137423213D01*
X121880126Y-137577558D01*
X121880124Y-137577561D01*
X121826599Y-137742293D01*
X121826598Y-137742297D01*
X121799501Y-137913385D01*
X121799501Y-138086614D01*
X121826598Y-138257702D01*
X121826599Y-138257706D01*
X121880124Y-138422438D01*
X121880126Y-138422441D01*
X121958768Y-138576786D01*
X121958770Y-138576790D01*
X122060581Y-138716921D01*
X122060583Y-138716923D01*
X122060586Y-138716927D01*
X122183073Y-138839414D01*
X122183076Y-138839416D01*
X122183078Y-138839418D01*
X122323209Y-138941229D01*
X122323213Y-138941231D01*
X122477555Y-139019872D01*
X122477557Y-139019872D01*
X122477558Y-139019873D01*
X122477561Y-139019875D01*
X122642293Y-139073400D01*
X122642297Y-139073401D01*
X122813386Y-139100499D01*
X122813389Y-139100499D01*
X122986614Y-139100499D01*
X123157702Y-139073401D01*
X123157706Y-139073400D01*
X123322438Y-139019875D01*
X123322440Y-139019873D01*
X123322445Y-139019872D01*
X123476787Y-138941231D01*
X123504420Y-138921155D01*
X123574845Y-138869988D01*
X123616927Y-138839414D01*
X123739414Y-138716927D01*
X123841231Y-138576787D01*
X123919872Y-138422445D01*
X123919873Y-138422440D01*
X123919875Y-138422438D01*
X123973400Y-138257706D01*
X123973401Y-138257702D01*
X124000499Y-138086614D01*
X124000499Y-137913385D01*
X123973401Y-137742297D01*
X123973400Y-137742293D01*
X123919875Y-137577561D01*
X123919873Y-137577558D01*
X123919872Y-137577557D01*
X123919872Y-137577555D01*
X123841231Y-137423213D01*
X123841229Y-137423209D01*
X123739418Y-137283078D01*
X123739416Y-137283076D01*
X123739414Y-137283073D01*
X123616927Y-137160586D01*
X123616923Y-137160583D01*
X123616921Y-137160581D01*
X123476790Y-137058770D01*
X123476786Y-137058768D01*
X123379554Y-137009226D01*
X123336289Y-136965961D01*
X123325499Y-136921016D01*
X123325499Y-130464005D01*
X123325500Y-130463992D01*
X123325500Y-130343984D01*
X123323296Y-130335758D01*
X123296503Y-130235764D01*
X123272826Y-130194756D01*
X123240484Y-130138737D01*
X123161263Y-130059516D01*
X123161260Y-130059514D01*
X119689495Y-126587748D01*
X119661718Y-126533231D01*
X119660499Y-126517744D01*
X119660499Y-123800258D01*
X119679406Y-123742067D01*
X119728906Y-123706103D01*
X119790092Y-123706103D01*
X119804436Y-123712044D01*
X119937555Y-123779872D01*
X119937557Y-123779872D01*
X119937558Y-123779873D01*
X119937561Y-123779875D01*
X120102293Y-123833400D01*
X120102297Y-123833401D01*
X120273386Y-123860499D01*
X120273389Y-123860499D01*
X120446614Y-123860499D01*
X120617702Y-123833401D01*
X120617706Y-123833400D01*
X120782438Y-123779875D01*
X120782440Y-123779873D01*
X120782445Y-123779872D01*
X120936787Y-123701231D01*
X121075585Y-123600388D01*
X121133775Y-123581482D01*
X121191966Y-123600389D01*
X121227930Y-123649889D01*
X121232775Y-123680482D01*
X121232775Y-126214292D01*
X121261772Y-126322511D01*
X121303344Y-126394516D01*
X121317790Y-126419537D01*
X124985506Y-130087253D01*
X125013282Y-130141768D01*
X125014501Y-130157255D01*
X125014501Y-136921016D01*
X124995594Y-136979207D01*
X124960446Y-137009226D01*
X124863213Y-137058768D01*
X124863209Y-137058770D01*
X124723078Y-137160581D01*
X124600581Y-137283078D01*
X124498770Y-137423209D01*
X124498768Y-137423213D01*
X124420126Y-137577558D01*
X124420124Y-137577561D01*
X124366599Y-137742293D01*
X124366598Y-137742297D01*
X124339501Y-137913385D01*
X124339501Y-138086614D01*
X124366598Y-138257702D01*
X124366599Y-138257706D01*
X124420124Y-138422438D01*
X124420126Y-138422441D01*
X124498768Y-138576786D01*
X124498770Y-138576790D01*
X124600581Y-138716921D01*
X124600583Y-138716923D01*
X124600586Y-138716927D01*
X124723073Y-138839414D01*
X124723076Y-138839416D01*
X124723078Y-138839418D01*
X124863209Y-138941229D01*
X124863213Y-138941231D01*
X125017555Y-139019872D01*
X125017557Y-139019872D01*
X125017558Y-139019873D01*
X125017561Y-139019875D01*
X125182293Y-139073400D01*
X125182297Y-139073401D01*
X125353386Y-139100499D01*
X125353389Y-139100499D01*
X125526614Y-139100499D01*
X125697702Y-139073401D01*
X125697706Y-139073400D01*
X125862438Y-139019875D01*
X125862440Y-139019873D01*
X125862445Y-139019872D01*
X126016787Y-138941231D01*
X126044420Y-138921155D01*
X126114845Y-138869988D01*
X126156927Y-138839414D01*
X126279414Y-138716927D01*
X126381231Y-138576787D01*
X126459872Y-138422445D01*
X126459873Y-138422440D01*
X126459875Y-138422438D01*
X126513400Y-138257706D01*
X126513401Y-138257702D01*
X126540499Y-138086614D01*
X126540499Y-137913385D01*
X126513401Y-137742297D01*
X126513400Y-137742293D01*
X126459875Y-137577561D01*
X126459873Y-137577558D01*
X126459872Y-137577557D01*
X126459872Y-137577555D01*
X126381231Y-137423213D01*
X126381229Y-137423209D01*
X126279418Y-137283078D01*
X126279416Y-137283076D01*
X126279414Y-137283073D01*
X126156927Y-137160586D01*
X126156923Y-137160583D01*
X126156921Y-137160581D01*
X126016790Y-137058770D01*
X126016786Y-137058768D01*
X125919554Y-137009226D01*
X125876289Y-136965961D01*
X125865499Y-136921016D01*
X125865499Y-129883983D01*
X125865499Y-129883982D01*
X125836502Y-129775763D01*
X125836500Y-129775760D01*
X125836500Y-129775758D01*
X125780484Y-129678737D01*
X125701263Y-129599515D01*
X125701263Y-129599516D01*
X122112769Y-126011022D01*
X122084992Y-125956505D01*
X122083773Y-125941018D01*
X122083773Y-123721566D01*
X122102680Y-123663375D01*
X122152180Y-123627411D01*
X122213366Y-123627411D01*
X122240959Y-123641470D01*
X122323213Y-123701231D01*
X122477555Y-123779872D01*
X122477557Y-123779872D01*
X122477558Y-123779873D01*
X122477561Y-123779875D01*
X122642293Y-123833400D01*
X122642297Y-123833401D01*
X122813386Y-123860499D01*
X122813389Y-123860499D01*
X122986614Y-123860499D01*
X123157702Y-123833401D01*
X123157706Y-123833400D01*
X123322438Y-123779875D01*
X123322440Y-123779873D01*
X123322445Y-123779872D01*
X123476787Y-123701231D01*
X123477707Y-123700563D01*
X123532371Y-123660847D01*
X123616927Y-123599414D01*
X123739414Y-123476927D01*
X123777487Y-123424523D01*
X123781825Y-123421371D01*
X123784007Y-123416471D01*
X123806228Y-123403641D01*
X123826985Y-123388560D01*
X123832348Y-123388559D01*
X123836994Y-123385878D01*
X123862512Y-123388559D01*
X123888170Y-123388559D01*
X123892508Y-123391711D01*
X123897845Y-123392272D01*
X123916914Y-123409442D01*
X123937671Y-123424522D01*
X123943315Y-123433213D01*
X123964203Y-123469391D01*
X123964203Y-123469394D01*
X123971390Y-123481840D01*
X123974516Y-123487254D01*
X126428281Y-125941018D01*
X127525505Y-127038242D01*
X127553282Y-127092759D01*
X127554501Y-127108246D01*
X127554501Y-136921016D01*
X127535594Y-136979207D01*
X127500446Y-137009226D01*
X127403213Y-137058768D01*
X127403209Y-137058770D01*
X127263078Y-137160581D01*
X127140581Y-137283078D01*
X127038770Y-137423209D01*
X127038768Y-137423213D01*
X126960126Y-137577558D01*
X126960124Y-137577561D01*
X126906599Y-137742293D01*
X126906598Y-137742297D01*
X126879501Y-137913385D01*
X126879501Y-138086614D01*
X126906598Y-138257702D01*
X126906599Y-138257706D01*
X126960124Y-138422438D01*
X126960126Y-138422441D01*
X127038768Y-138576786D01*
X127038770Y-138576790D01*
X127140581Y-138716921D01*
X127140583Y-138716923D01*
X127140586Y-138716927D01*
X127263073Y-138839414D01*
X127263076Y-138839416D01*
X127263078Y-138839418D01*
X127403209Y-138941229D01*
X127403213Y-138941231D01*
X127557555Y-139019872D01*
X127557557Y-139019872D01*
X127557558Y-139019873D01*
X127557561Y-139019875D01*
X127722293Y-139073400D01*
X127722297Y-139073401D01*
X127893386Y-139100499D01*
X127893389Y-139100499D01*
X128066614Y-139100499D01*
X128237702Y-139073401D01*
X128237706Y-139073400D01*
X128402438Y-139019875D01*
X128402440Y-139019873D01*
X128402445Y-139019872D01*
X128556787Y-138941231D01*
X128584420Y-138921155D01*
X128654845Y-138869988D01*
X128696927Y-138839414D01*
X128819414Y-138716927D01*
X128921231Y-138576787D01*
X128999872Y-138422445D01*
X128999873Y-138422440D01*
X128999875Y-138422438D01*
X129053400Y-138257706D01*
X129053401Y-138257702D01*
X129080499Y-138086614D01*
X129080499Y-137913385D01*
X129419501Y-137913385D01*
X129419501Y-138086614D01*
X129446598Y-138257702D01*
X129446599Y-138257706D01*
X129500124Y-138422438D01*
X129500126Y-138422441D01*
X129578768Y-138576786D01*
X129578770Y-138576790D01*
X129680581Y-138716921D01*
X129680583Y-138716923D01*
X129680586Y-138716927D01*
X129803073Y-138839414D01*
X129803076Y-138839416D01*
X129803078Y-138839418D01*
X129943209Y-138941229D01*
X129943213Y-138941231D01*
X130097555Y-139019872D01*
X130097557Y-139019872D01*
X130097558Y-139019873D01*
X130097561Y-139019875D01*
X130262293Y-139073400D01*
X130262297Y-139073401D01*
X130433386Y-139100499D01*
X130433389Y-139100499D01*
X130606614Y-139100499D01*
X130777702Y-139073401D01*
X130777706Y-139073400D01*
X130942438Y-139019875D01*
X130942440Y-139019873D01*
X130942445Y-139019872D01*
X131096787Y-138941231D01*
X131124420Y-138921155D01*
X131194845Y-138869988D01*
X131236927Y-138839414D01*
X131359414Y-138716927D01*
X131461231Y-138576787D01*
X131539872Y-138422445D01*
X131539873Y-138422440D01*
X131539875Y-138422438D01*
X131593400Y-138257706D01*
X131593401Y-138257702D01*
X131620499Y-138086614D01*
X131620499Y-137913385D01*
X131959501Y-137913385D01*
X131959501Y-138086614D01*
X131986598Y-138257702D01*
X131986599Y-138257706D01*
X132040124Y-138422438D01*
X132040126Y-138422441D01*
X132118768Y-138576786D01*
X132118770Y-138576790D01*
X132220581Y-138716921D01*
X132220583Y-138716923D01*
X132220586Y-138716927D01*
X132343073Y-138839414D01*
X132343076Y-138839416D01*
X132343078Y-138839418D01*
X132483209Y-138941229D01*
X132483213Y-138941231D01*
X132637555Y-139019872D01*
X132637557Y-139019872D01*
X132637558Y-139019873D01*
X132637561Y-139019875D01*
X132802293Y-139073400D01*
X132802297Y-139073401D01*
X132973386Y-139100499D01*
X132973389Y-139100499D01*
X133146614Y-139100499D01*
X133317702Y-139073401D01*
X133317706Y-139073400D01*
X133482438Y-139019875D01*
X133482440Y-139019873D01*
X133482445Y-139019872D01*
X133636787Y-138941231D01*
X133664420Y-138921155D01*
X133734845Y-138869988D01*
X133776927Y-138839414D01*
X133899414Y-138716927D01*
X134001231Y-138576787D01*
X134079872Y-138422445D01*
X134079873Y-138422440D01*
X134079875Y-138422438D01*
X134133400Y-138257706D01*
X134133401Y-138257702D01*
X134160499Y-138086614D01*
X134160499Y-137913385D01*
X134133401Y-137742297D01*
X134133400Y-137742293D01*
X134079875Y-137577561D01*
X134079873Y-137577558D01*
X134079872Y-137577557D01*
X134079872Y-137577555D01*
X134001231Y-137423213D01*
X134001229Y-137423209D01*
X133899418Y-137283078D01*
X133899416Y-137283076D01*
X133899414Y-137283073D01*
X133776927Y-137160586D01*
X133776923Y-137160583D01*
X133776921Y-137160581D01*
X133636790Y-137058770D01*
X133636786Y-137058768D01*
X133482441Y-136980126D01*
X133482438Y-136980124D01*
X133317706Y-136926599D01*
X133317702Y-136926598D01*
X133146614Y-136899501D01*
X133146611Y-136899501D01*
X132973389Y-136899501D01*
X132973386Y-136899501D01*
X132802297Y-136926598D01*
X132802293Y-136926599D01*
X132637561Y-136980124D01*
X132637558Y-136980126D01*
X132483213Y-137058768D01*
X132483209Y-137058770D01*
X132343078Y-137160581D01*
X132220581Y-137283078D01*
X132118770Y-137423209D01*
X132118768Y-137423213D01*
X132040126Y-137577558D01*
X132040124Y-137577561D01*
X131986599Y-137742293D01*
X131986598Y-137742297D01*
X131959501Y-137913385D01*
X131620499Y-137913385D01*
X131593401Y-137742297D01*
X131593400Y-137742293D01*
X131539875Y-137577561D01*
X131539873Y-137577558D01*
X131539872Y-137577557D01*
X131539872Y-137577555D01*
X131461231Y-137423213D01*
X131461229Y-137423209D01*
X131359418Y-137283078D01*
X131359416Y-137283076D01*
X131359414Y-137283073D01*
X131236927Y-137160586D01*
X131236923Y-137160583D01*
X131236921Y-137160581D01*
X131096790Y-137058770D01*
X131096786Y-137058768D01*
X130942441Y-136980126D01*
X130942438Y-136980124D01*
X130777706Y-136926599D01*
X130777702Y-136926598D01*
X130606614Y-136899501D01*
X130606611Y-136899501D01*
X130433389Y-136899501D01*
X130433386Y-136899501D01*
X130262297Y-136926598D01*
X130262293Y-136926599D01*
X130097561Y-136980124D01*
X130097558Y-136980126D01*
X129943213Y-137058768D01*
X129943209Y-137058770D01*
X129803078Y-137160581D01*
X129680581Y-137283078D01*
X129578770Y-137423209D01*
X129578768Y-137423213D01*
X129500126Y-137577558D01*
X129500124Y-137577561D01*
X129446599Y-137742293D01*
X129446598Y-137742297D01*
X129419501Y-137913385D01*
X129080499Y-137913385D01*
X129053401Y-137742297D01*
X129053400Y-137742293D01*
X128999875Y-137577561D01*
X128999873Y-137577558D01*
X128999872Y-137577557D01*
X128999872Y-137577555D01*
X128921231Y-137423213D01*
X128921229Y-137423209D01*
X128819418Y-137283078D01*
X128819416Y-137283076D01*
X128819414Y-137283073D01*
X128696927Y-137160586D01*
X128696923Y-137160583D01*
X128696921Y-137160581D01*
X128556790Y-137058770D01*
X128556786Y-137058768D01*
X128459554Y-137009226D01*
X128416289Y-136965961D01*
X128405499Y-136921016D01*
X128405499Y-126954996D01*
X128405500Y-126954983D01*
X128405500Y-126834975D01*
X128402493Y-126823752D01*
X128376503Y-126726755D01*
X128337682Y-126659516D01*
X128320484Y-126629728D01*
X128241263Y-126550507D01*
X128241260Y-126550505D01*
X125680952Y-123990196D01*
X125653175Y-123935679D01*
X125662746Y-123875247D01*
X125706011Y-123831982D01*
X125720356Y-123826039D01*
X125862445Y-123779872D01*
X126016787Y-123701231D01*
X126017707Y-123700563D01*
X126072371Y-123660847D01*
X126156927Y-123599414D01*
X126279414Y-123476927D01*
X126381231Y-123336787D01*
X126459872Y-123182445D01*
X126459873Y-123182440D01*
X126459875Y-123182438D01*
X126513400Y-123017706D01*
X126513401Y-123017702D01*
X126540499Y-122846614D01*
X126540499Y-122673385D01*
X126879501Y-122673385D01*
X126879501Y-122846614D01*
X126906598Y-123017702D01*
X126906599Y-123017706D01*
X126960124Y-123182438D01*
X126960126Y-123182441D01*
X127038768Y-123336786D01*
X127038770Y-123336790D01*
X127140581Y-123476921D01*
X127140583Y-123476923D01*
X127140586Y-123476927D01*
X127263073Y-123599414D01*
X127263076Y-123599416D01*
X127263078Y-123599418D01*
X127403209Y-123701229D01*
X127403213Y-123701231D01*
X127557555Y-123779872D01*
X127557557Y-123779872D01*
X127557558Y-123779873D01*
X127557561Y-123779875D01*
X127722293Y-123833400D01*
X127722297Y-123833401D01*
X127893386Y-123860499D01*
X127893389Y-123860499D01*
X128066614Y-123860499D01*
X128237702Y-123833401D01*
X128237706Y-123833400D01*
X128402438Y-123779875D01*
X128402440Y-123779873D01*
X128402445Y-123779872D01*
X128556787Y-123701231D01*
X128557707Y-123700563D01*
X128612371Y-123660847D01*
X128696927Y-123599414D01*
X128819414Y-123476927D01*
X128921231Y-123336787D01*
X128999872Y-123182445D01*
X128999873Y-123182440D01*
X128999875Y-123182438D01*
X129053400Y-123017706D01*
X129053401Y-123017702D01*
X129080499Y-122846614D01*
X129080499Y-122673385D01*
X129419501Y-122673385D01*
X129419501Y-122846614D01*
X129446598Y-123017702D01*
X129446599Y-123017706D01*
X129500124Y-123182438D01*
X129500126Y-123182441D01*
X129578768Y-123336786D01*
X129578770Y-123336790D01*
X129680581Y-123476921D01*
X129680583Y-123476923D01*
X129680586Y-123476927D01*
X129803073Y-123599414D01*
X129803076Y-123599416D01*
X129803078Y-123599418D01*
X129943209Y-123701229D01*
X129943213Y-123701231D01*
X130097555Y-123779872D01*
X130097557Y-123779872D01*
X130097558Y-123779873D01*
X130097561Y-123779875D01*
X130262293Y-123833400D01*
X130262297Y-123833401D01*
X130433386Y-123860499D01*
X130433389Y-123860499D01*
X130606614Y-123860499D01*
X130777702Y-123833401D01*
X130777706Y-123833400D01*
X130942438Y-123779875D01*
X130942440Y-123779873D01*
X130942445Y-123779872D01*
X131096787Y-123701231D01*
X131097707Y-123700563D01*
X131152371Y-123660847D01*
X131236927Y-123599414D01*
X131359414Y-123476927D01*
X131461231Y-123336787D01*
X131539872Y-123182445D01*
X131539873Y-123182440D01*
X131539875Y-123182438D01*
X131593400Y-123017706D01*
X131593401Y-123017702D01*
X131620499Y-122846614D01*
X131620499Y-122673385D01*
X131959501Y-122673385D01*
X131959501Y-122846614D01*
X131986598Y-123017702D01*
X131986599Y-123017706D01*
X132040124Y-123182438D01*
X132040126Y-123182441D01*
X132118768Y-123336786D01*
X132118770Y-123336790D01*
X132220581Y-123476921D01*
X132220583Y-123476923D01*
X132220586Y-123476927D01*
X132343073Y-123599414D01*
X132343076Y-123599416D01*
X132343078Y-123599418D01*
X132483209Y-123701229D01*
X132483213Y-123701231D01*
X132637555Y-123779872D01*
X132637557Y-123779872D01*
X132637558Y-123779873D01*
X132637561Y-123779875D01*
X132802293Y-123833400D01*
X132802297Y-123833401D01*
X132973386Y-123860499D01*
X132973389Y-123860499D01*
X133146614Y-123860499D01*
X133317702Y-123833401D01*
X133317706Y-123833400D01*
X133482438Y-123779875D01*
X133482440Y-123779873D01*
X133482445Y-123779872D01*
X133636787Y-123701231D01*
X133637707Y-123700563D01*
X133692371Y-123660847D01*
X133776927Y-123599414D01*
X133899414Y-123476927D01*
X134001231Y-123336787D01*
X134079872Y-123182445D01*
X134079873Y-123182440D01*
X134079875Y-123182438D01*
X134133400Y-123017706D01*
X134133401Y-123017702D01*
X134160499Y-122846614D01*
X134160499Y-122673385D01*
X134133401Y-122502297D01*
X134133400Y-122502293D01*
X134079875Y-122337561D01*
X134079873Y-122337558D01*
X134079872Y-122337557D01*
X134079872Y-122337555D01*
X134001231Y-122183213D01*
X134001229Y-122183209D01*
X133899418Y-122043078D01*
X133899416Y-122043076D01*
X133899414Y-122043073D01*
X133776927Y-121920586D01*
X133776923Y-121920583D01*
X133776921Y-121920581D01*
X133636790Y-121818770D01*
X133636786Y-121818768D01*
X133482441Y-121740126D01*
X133482438Y-121740124D01*
X133317706Y-121686599D01*
X133317702Y-121686598D01*
X133146614Y-121659501D01*
X133146611Y-121659501D01*
X132973389Y-121659501D01*
X132973386Y-121659501D01*
X132802297Y-121686598D01*
X132802293Y-121686599D01*
X132637561Y-121740124D01*
X132637558Y-121740126D01*
X132483213Y-121818768D01*
X132483209Y-121818770D01*
X132343078Y-121920581D01*
X132220581Y-122043078D01*
X132118770Y-122183209D01*
X132118768Y-122183213D01*
X132040126Y-122337558D01*
X132040124Y-122337561D01*
X131986599Y-122502293D01*
X131986598Y-122502297D01*
X131959501Y-122673385D01*
X131620499Y-122673385D01*
X131593401Y-122502297D01*
X131593400Y-122502293D01*
X131539875Y-122337561D01*
X131539873Y-122337558D01*
X131539872Y-122337557D01*
X131539872Y-122337555D01*
X131461231Y-122183213D01*
X131461229Y-122183209D01*
X131359418Y-122043078D01*
X131359416Y-122043076D01*
X131359414Y-122043073D01*
X131236927Y-121920586D01*
X131236923Y-121920583D01*
X131236921Y-121920581D01*
X131096790Y-121818770D01*
X131096786Y-121818768D01*
X130942441Y-121740126D01*
X130942438Y-121740124D01*
X130777706Y-121686599D01*
X130777702Y-121686598D01*
X130606614Y-121659501D01*
X130606611Y-121659501D01*
X130433389Y-121659501D01*
X130433386Y-121659501D01*
X130262297Y-121686598D01*
X130262293Y-121686599D01*
X130097561Y-121740124D01*
X130097558Y-121740126D01*
X129943213Y-121818768D01*
X129943209Y-121818770D01*
X129803078Y-121920581D01*
X129680581Y-122043078D01*
X129578770Y-122183209D01*
X129578768Y-122183213D01*
X129500126Y-122337558D01*
X129500124Y-122337561D01*
X129446599Y-122502293D01*
X129446598Y-122502297D01*
X129419501Y-122673385D01*
X129080499Y-122673385D01*
X129053401Y-122502297D01*
X129053400Y-122502293D01*
X128999875Y-122337561D01*
X128999873Y-122337558D01*
X128999872Y-122337557D01*
X128999872Y-122337555D01*
X128921231Y-122183213D01*
X128921229Y-122183209D01*
X128819418Y-122043078D01*
X128819416Y-122043076D01*
X128819414Y-122043073D01*
X128696927Y-121920586D01*
X128696923Y-121920583D01*
X128696921Y-121920581D01*
X128556790Y-121818770D01*
X128556786Y-121818768D01*
X128402441Y-121740126D01*
X128402438Y-121740124D01*
X128237706Y-121686599D01*
X128237702Y-121686598D01*
X128066614Y-121659501D01*
X128066611Y-121659501D01*
X127893389Y-121659501D01*
X127893386Y-121659501D01*
X127722297Y-121686598D01*
X127722293Y-121686599D01*
X127557561Y-121740124D01*
X127557558Y-121740126D01*
X127403213Y-121818768D01*
X127403209Y-121818770D01*
X127263078Y-121920581D01*
X127140581Y-122043078D01*
X127038770Y-122183209D01*
X127038768Y-122183213D01*
X126960126Y-122337558D01*
X126960124Y-122337561D01*
X126906599Y-122502293D01*
X126906598Y-122502297D01*
X126879501Y-122673385D01*
X126540499Y-122673385D01*
X126513401Y-122502297D01*
X126513400Y-122502293D01*
X126459875Y-122337561D01*
X126459873Y-122337558D01*
X126459872Y-122337557D01*
X126459872Y-122337555D01*
X126381231Y-122183213D01*
X126381229Y-122183209D01*
X126279418Y-122043078D01*
X126279416Y-122043076D01*
X126279414Y-122043073D01*
X126156927Y-121920586D01*
X126156923Y-121920583D01*
X126156921Y-121920581D01*
X126016790Y-121818770D01*
X126016786Y-121818768D01*
X125862441Y-121740126D01*
X125862438Y-121740124D01*
X125697706Y-121686599D01*
X125697702Y-121686598D01*
X125526614Y-121659501D01*
X125526611Y-121659501D01*
X125353389Y-121659501D01*
X125353386Y-121659501D01*
X125182297Y-121686598D01*
X125182293Y-121686599D01*
X125017561Y-121740124D01*
X125017558Y-121740126D01*
X124863213Y-121818768D01*
X124863209Y-121818770D01*
X124723077Y-121920582D01*
X124723070Y-121920588D01*
X124692703Y-121950954D01*
X124638186Y-121978730D01*
X124577754Y-121969156D01*
X124552698Y-121950952D01*
X121575690Y-118973943D01*
X121454495Y-118852748D01*
X121426718Y-118798231D01*
X121425499Y-118782744D01*
X121425499Y-117397684D01*
X129200000Y-117397684D01*
X129200000Y-117602315D01*
X129232008Y-117804412D01*
X129295243Y-117999027D01*
X129388139Y-118181348D01*
X129388143Y-118181353D01*
X129420523Y-118225920D01*
X129420524Y-118225920D01*
X130100000Y-117546444D01*
X130100000Y-117552661D01*
X130127259Y-117654394D01*
X130179920Y-117745606D01*
X130254394Y-117820080D01*
X130345606Y-117872741D01*
X130447339Y-117900000D01*
X130453553Y-117900000D01*
X129983046Y-118370505D01*
X129928530Y-118398282D01*
X129913054Y-118399501D01*
X129906906Y-118399501D01*
X129906891Y-118399502D01*
X129818436Y-118410124D01*
X129818430Y-118410125D01*
X129677657Y-118465640D01*
X129557081Y-118557075D01*
X129557075Y-118557081D01*
X129465640Y-118677657D01*
X129410124Y-118818434D01*
X129399501Y-118906893D01*
X129399501Y-120093097D01*
X129399502Y-120093107D01*
X129410124Y-120181563D01*
X129410125Y-120181569D01*
X129450024Y-120282744D01*
X129465640Y-120322342D01*
X129557078Y-120442922D01*
X129677658Y-120534360D01*
X129818436Y-120589876D01*
X129906898Y-120600499D01*
X131093101Y-120600498D01*
X131181564Y-120589876D01*
X131322342Y-120534360D01*
X131442922Y-120442922D01*
X131534360Y-120322342D01*
X131589876Y-120181564D01*
X131600499Y-120093102D01*
X131600498Y-118906899D01*
X131589876Y-118818436D01*
X131578900Y-118790604D01*
X131555105Y-118730264D01*
X131534360Y-118677658D01*
X131442922Y-118557078D01*
X131322342Y-118465640D01*
X131267424Y-118443983D01*
X131181565Y-118410124D01*
X131093106Y-118399501D01*
X131086955Y-118399501D01*
X131028764Y-118380594D01*
X131016951Y-118370505D01*
X130546445Y-117900000D01*
X130552661Y-117900000D01*
X130654394Y-117872741D01*
X130745606Y-117820080D01*
X130820080Y-117745606D01*
X130872741Y-117654394D01*
X130900000Y-117552661D01*
X130900000Y-117546445D01*
X131579475Y-118225920D01*
X131611858Y-118181350D01*
X131611863Y-118181342D01*
X131704756Y-117999027D01*
X131767991Y-117804412D01*
X131800000Y-117602315D01*
X131800000Y-117397684D01*
X131767991Y-117195587D01*
X131704756Y-117000972D01*
X131611858Y-116818647D01*
X131579475Y-116774078D01*
X130900000Y-117453553D01*
X130900000Y-117447339D01*
X130872741Y-117345606D01*
X130820080Y-117254394D01*
X130745606Y-117179920D01*
X130654394Y-117127259D01*
X130552661Y-117100000D01*
X130546445Y-117100000D01*
X131225920Y-116420524D01*
X131225920Y-116420523D01*
X131181353Y-116388143D01*
X131181348Y-116388139D01*
X130999027Y-116295243D01*
X130804412Y-116232008D01*
X130602315Y-116200000D01*
X130397685Y-116200000D01*
X130195587Y-116232008D01*
X130000972Y-116295243D01*
X129818651Y-116388139D01*
X129818647Y-116388141D01*
X129774078Y-116420523D01*
X130453555Y-117100000D01*
X130447339Y-117100000D01*
X130345606Y-117127259D01*
X130254394Y-117179920D01*
X130179920Y-117254394D01*
X130127259Y-117345606D01*
X130100000Y-117447339D01*
X130100000Y-117453555D01*
X129420523Y-116774078D01*
X129388141Y-116818647D01*
X129388139Y-116818651D01*
X129295243Y-117000972D01*
X129232008Y-117195587D01*
X129200000Y-117397684D01*
X121425499Y-117397684D01*
X121425499Y-114443983D01*
X121425433Y-114443736D01*
X121396502Y-114335763D01*
X121396500Y-114335760D01*
X121396500Y-114335758D01*
X121340484Y-114238737D01*
X121261263Y-114159515D01*
X121261263Y-114159516D01*
X119532537Y-112430790D01*
X119504760Y-112376273D01*
X119514331Y-112315841D01*
X119557596Y-112272576D01*
X119602230Y-112261786D01*
X129104123Y-112232040D01*
X129083866Y-105761261D01*
X129083376Y-105604809D01*
X129102102Y-105546559D01*
X129151489Y-105510441D01*
X129182376Y-105505499D01*
X129864900Y-105505499D01*
X129923091Y-105524406D01*
X129953108Y-105559551D01*
X129976168Y-105604809D01*
X130007965Y-105667215D01*
X130016005Y-105682993D01*
X130122448Y-105829500D01*
X130250500Y-105957552D01*
X130397007Y-106063995D01*
X130558362Y-106146210D01*
X130730591Y-106202170D01*
X130802136Y-106213501D01*
X130909451Y-106230499D01*
X130909454Y-106230499D01*
X131090549Y-106230499D01*
X131179977Y-106216334D01*
X131269409Y-106202170D01*
X131441638Y-106146210D01*
X131602993Y-106063995D01*
X131749500Y-105957552D01*
X131877552Y-105829500D01*
X131983995Y-105682993D01*
X132066210Y-105521638D01*
X132122170Y-105349409D01*
X132150499Y-105170546D01*
X132150499Y-104989454D01*
X132150499Y-104989450D01*
X132122170Y-104810593D01*
X132122170Y-104810591D01*
X132066210Y-104638362D01*
X131983995Y-104477007D01*
X131877552Y-104330500D01*
X131749500Y-104202448D01*
X131602993Y-104096005D01*
X131602992Y-104096004D01*
X131602990Y-104096003D01*
X131529715Y-104058668D01*
X131441638Y-104013790D01*
X131441634Y-104013789D01*
X131441631Y-104013787D01*
X131269406Y-103957829D01*
X131090549Y-103929501D01*
X131090546Y-103929501D01*
X130909454Y-103929501D01*
X130909451Y-103929501D01*
X130730593Y-103957829D01*
X130558368Y-104013787D01*
X130397009Y-104096003D01*
X130323753Y-104149226D01*
X130250500Y-104202448D01*
X130122448Y-104330500D01*
X130106284Y-104352748D01*
X130016003Y-104477009D01*
X129987256Y-104533430D01*
X129953108Y-104600447D01*
X129909845Y-104643711D01*
X129864900Y-104654501D01*
X129179092Y-104654501D01*
X129120901Y-104635594D01*
X129084937Y-104586094D01*
X129080092Y-104555811D01*
X129075425Y-103064809D01*
X129094151Y-103006559D01*
X129143538Y-102970441D01*
X129174425Y-102965499D01*
X129864900Y-102965499D01*
X129923091Y-102984406D01*
X129953108Y-103019551D01*
X130016005Y-103142993D01*
X130122448Y-103289500D01*
X130250500Y-103417552D01*
X130397007Y-103523995D01*
X130558362Y-103606210D01*
X130730591Y-103662170D01*
X130802136Y-103673501D01*
X130909451Y-103690499D01*
X130909454Y-103690499D01*
X131090549Y-103690499D01*
X131179977Y-103676334D01*
X131269409Y-103662170D01*
X131441638Y-103606210D01*
X131602993Y-103523995D01*
X131749500Y-103417552D01*
X131877552Y-103289500D01*
X131983995Y-103142993D01*
X132066210Y-102981638D01*
X132122170Y-102809409D01*
X132150499Y-102630546D01*
X132150499Y-102449454D01*
X132150499Y-102449450D01*
X132122170Y-102270593D01*
X132122170Y-102270591D01*
X132066210Y-102098362D01*
X131983995Y-101937007D01*
X131877552Y-101790500D01*
X131749500Y-101662448D01*
X131602993Y-101556005D01*
X131602992Y-101556004D01*
X131602990Y-101556003D01*
X131532309Y-101519989D01*
X131441638Y-101473790D01*
X131441634Y-101473788D01*
X131441627Y-101473785D01*
X131427013Y-101469037D01*
X131377513Y-101433073D01*
X131358606Y-101374882D01*
X131377514Y-101316692D01*
X131427014Y-101280728D01*
X131518213Y-101251096D01*
X131707556Y-101154620D01*
X131761716Y-101115270D01*
X131129408Y-100482962D01*
X131192993Y-100465925D01*
X131307007Y-100400099D01*
X131400099Y-100307007D01*
X131465925Y-100192993D01*
X131482962Y-100129408D01*
X132115270Y-100761716D01*
X132154620Y-100707556D01*
X132251095Y-100518215D01*
X132316759Y-100316121D01*
X132350000Y-100106250D01*
X132350000Y-99893749D01*
X132316759Y-99683878D01*
X132251095Y-99481784D01*
X132154623Y-99292446D01*
X132154619Y-99292440D01*
X132115270Y-99238282D01*
X132115269Y-99238282D01*
X131482962Y-99870589D01*
X131465925Y-99807007D01*
X131400099Y-99692993D01*
X131307007Y-99599901D01*
X131192993Y-99534075D01*
X131129407Y-99517037D01*
X131761716Y-98884729D01*
X131761716Y-98884728D01*
X131707559Y-98845380D01*
X131707553Y-98845376D01*
X131518215Y-98748904D01*
X131427013Y-98719271D01*
X131377513Y-98683307D01*
X131358606Y-98625116D01*
X131377513Y-98566925D01*
X131427010Y-98530962D01*
X131441638Y-98526210D01*
X131602993Y-98443995D01*
X131749500Y-98337552D01*
X131877552Y-98209500D01*
X131983995Y-98062993D01*
X132066210Y-97901638D01*
X132122170Y-97729409D01*
X132150499Y-97550546D01*
X132150499Y-97369454D01*
X132150499Y-97369450D01*
X132122170Y-97190593D01*
X132122170Y-97190591D01*
X132066210Y-97018362D01*
X131983995Y-96857007D01*
X131877552Y-96710500D01*
X131749500Y-96582448D01*
X131602993Y-96476005D01*
X131602992Y-96476004D01*
X131602990Y-96476003D01*
X131529715Y-96438668D01*
X131441638Y-96393790D01*
X131441634Y-96393789D01*
X131441631Y-96393787D01*
X131269406Y-96337829D01*
X131090549Y-96309501D01*
X131090546Y-96309501D01*
X130909454Y-96309501D01*
X130909451Y-96309501D01*
X130730593Y-96337829D01*
X130558368Y-96393787D01*
X130397009Y-96476003D01*
X130323753Y-96529226D01*
X130250500Y-96582448D01*
X130122448Y-96710500D01*
X130069226Y-96783753D01*
X130016003Y-96857009D01*
X129933787Y-97018368D01*
X129877829Y-97190593D01*
X129849501Y-97369450D01*
X129849501Y-97550549D01*
X129877829Y-97729406D01*
X129933787Y-97901631D01*
X129933789Y-97901634D01*
X129933790Y-97901638D01*
X130016005Y-98062993D01*
X130122448Y-98209500D01*
X130250500Y-98337552D01*
X130397007Y-98443995D01*
X130558362Y-98526210D01*
X130558370Y-98526212D01*
X130558371Y-98526213D01*
X130572983Y-98530961D01*
X130622484Y-98566923D01*
X130641393Y-98625114D01*
X130622487Y-98683305D01*
X130572988Y-98719270D01*
X130572986Y-98719270D01*
X130481790Y-98748901D01*
X130292446Y-98845376D01*
X130292442Y-98845378D01*
X130238282Y-98884728D01*
X130870591Y-99517037D01*
X130807007Y-99534075D01*
X130692993Y-99599901D01*
X130599901Y-99692993D01*
X130534075Y-99807007D01*
X130517037Y-99870591D01*
X129884728Y-99238282D01*
X129845378Y-99292442D01*
X129845376Y-99292446D01*
X129748904Y-99481784D01*
X129683240Y-99683878D01*
X129650000Y-99893749D01*
X129650000Y-100106250D01*
X129683240Y-100316121D01*
X129748904Y-100518215D01*
X129845376Y-100707553D01*
X129845380Y-100707559D01*
X129884728Y-100761716D01*
X129884729Y-100761716D01*
X130517037Y-100129407D01*
X130534075Y-100192993D01*
X130599901Y-100307007D01*
X130692993Y-100400099D01*
X130807007Y-100465925D01*
X130870589Y-100482962D01*
X130238282Y-101115269D01*
X130238282Y-101115270D01*
X130292440Y-101154619D01*
X130292446Y-101154623D01*
X130481786Y-101251096D01*
X130572985Y-101280728D01*
X130622485Y-101316692D01*
X130641393Y-101374883D01*
X130622486Y-101433073D01*
X130572988Y-101469037D01*
X130558369Y-101473787D01*
X130558365Y-101473789D01*
X130558362Y-101473790D01*
X130499283Y-101503892D01*
X130397009Y-101556003D01*
X130323753Y-101609226D01*
X130250500Y-101662448D01*
X130122448Y-101790500D01*
X130069226Y-101863753D01*
X130016003Y-101937009D01*
X129979530Y-102008591D01*
X129953108Y-102060447D01*
X129909845Y-102103711D01*
X129864900Y-102114501D01*
X129171141Y-102114501D01*
X129112950Y-102095594D01*
X129076986Y-102046094D01*
X129072141Y-102015811D01*
X129065487Y-99890173D01*
X129057584Y-97365874D01*
X129051570Y-95444809D01*
X129070296Y-95386559D01*
X129119683Y-95350441D01*
X129150570Y-95345499D01*
X129864900Y-95345499D01*
X129923091Y-95364406D01*
X129953108Y-95399551D01*
X130016005Y-95522993D01*
X130122448Y-95669500D01*
X130250500Y-95797552D01*
X130397007Y-95903995D01*
X130558362Y-95986210D01*
X130730591Y-96042170D01*
X130802136Y-96053501D01*
X130909451Y-96070499D01*
X130909454Y-96070499D01*
X131090549Y-96070499D01*
X131179977Y-96056334D01*
X131269409Y-96042170D01*
X131441638Y-95986210D01*
X131602993Y-95903995D01*
X131749500Y-95797552D01*
X131877552Y-95669500D01*
X131983995Y-95522993D01*
X132066210Y-95361638D01*
X132122170Y-95189409D01*
X132150499Y-95010546D01*
X132150499Y-94829454D01*
X132150499Y-94829450D01*
X132122170Y-94650593D01*
X132122170Y-94650591D01*
X132066210Y-94478362D01*
X131983995Y-94317007D01*
X131877552Y-94170500D01*
X131749500Y-94042448D01*
X131602993Y-93936005D01*
X131602992Y-93936004D01*
X131602990Y-93936003D01*
X131529715Y-93898668D01*
X131441638Y-93853790D01*
X131441634Y-93853789D01*
X131441631Y-93853787D01*
X131269406Y-93797829D01*
X131090549Y-93769501D01*
X131090546Y-93769501D01*
X130909454Y-93769501D01*
X130909451Y-93769501D01*
X130730593Y-93797829D01*
X130558368Y-93853787D01*
X130397009Y-93936003D01*
X130323753Y-93989226D01*
X130250500Y-94042448D01*
X130122448Y-94170500D01*
X130069226Y-94243753D01*
X130016003Y-94317009D01*
X129979530Y-94388591D01*
X129953108Y-94440447D01*
X129909845Y-94483711D01*
X129864900Y-94494501D01*
X129147286Y-94494501D01*
X129089095Y-94475594D01*
X129053131Y-94426094D01*
X129048286Y-94395811D01*
X129048039Y-94317007D01*
X129043248Y-92786897D01*
X129056514Y-92737086D01*
X129059576Y-92731784D01*
X129100499Y-92579057D01*
X129100499Y-92420943D01*
X129065266Y-92289450D01*
X129849501Y-92289450D01*
X129849501Y-92470549D01*
X129877829Y-92649406D01*
X129933787Y-92821631D01*
X129933789Y-92821634D01*
X129933790Y-92821638D01*
X129957777Y-92868714D01*
X130014743Y-92980518D01*
X130016005Y-92982993D01*
X130122448Y-93129500D01*
X130250500Y-93257552D01*
X130397007Y-93363995D01*
X130558362Y-93446210D01*
X130730591Y-93502170D01*
X130802136Y-93513501D01*
X130909451Y-93530499D01*
X130909454Y-93530499D01*
X131090549Y-93530499D01*
X131179977Y-93516334D01*
X131269409Y-93502170D01*
X131441638Y-93446210D01*
X131602993Y-93363995D01*
X131749500Y-93257552D01*
X131877552Y-93129500D01*
X131983995Y-92982993D01*
X132066210Y-92821638D01*
X132122170Y-92649409D01*
X132141439Y-92527748D01*
X132150499Y-92470549D01*
X132150499Y-92420943D01*
X133899501Y-92420943D01*
X133899501Y-92579057D01*
X133940424Y-92731784D01*
X134019481Y-92868715D01*
X134131285Y-92980519D01*
X134268216Y-93059576D01*
X134420943Y-93100499D01*
X134457744Y-93100499D01*
X134515935Y-93119406D01*
X134527748Y-93129495D01*
X136370505Y-94972251D01*
X136398282Y-95026768D01*
X136399501Y-95042255D01*
X136399501Y-95079057D01*
X136440424Y-95231784D01*
X136519481Y-95368715D01*
X136631285Y-95480519D01*
X136768216Y-95559576D01*
X136920943Y-95600499D01*
X136920945Y-95600499D01*
X137079055Y-95600499D01*
X137079057Y-95600499D01*
X137231784Y-95559576D01*
X137368715Y-95480519D01*
X137480519Y-95368715D01*
X137559576Y-95231784D01*
X137600499Y-95079057D01*
X137600499Y-94920943D01*
X137559576Y-94768216D01*
X137480519Y-94631285D01*
X137368715Y-94519481D01*
X137231784Y-94440424D01*
X137079057Y-94399501D01*
X137079055Y-94399501D01*
X137042255Y-94399501D01*
X136984064Y-94380594D01*
X136972251Y-94370505D01*
X135129495Y-92527748D01*
X135101718Y-92473231D01*
X135100499Y-92457744D01*
X135100499Y-92420944D01*
X135100499Y-92420943D01*
X135059576Y-92268216D01*
X134980519Y-92131285D01*
X134868715Y-92019481D01*
X134731784Y-91940424D01*
X134579057Y-91899501D01*
X134420943Y-91899501D01*
X134268216Y-91940424D01*
X134131285Y-92019481D01*
X134019481Y-92131285D01*
X133940424Y-92268216D01*
X133899501Y-92420943D01*
X132150499Y-92420943D01*
X132150499Y-92289450D01*
X132131613Y-92170212D01*
X132122170Y-92110591D01*
X132066210Y-91938362D01*
X131983995Y-91777007D01*
X131877552Y-91630500D01*
X131749500Y-91502448D01*
X131602993Y-91396005D01*
X131602992Y-91396004D01*
X131602990Y-91396003D01*
X131529715Y-91358668D01*
X131441638Y-91313790D01*
X131441634Y-91313789D01*
X131441631Y-91313787D01*
X131269406Y-91257829D01*
X131090549Y-91229501D01*
X131090546Y-91229501D01*
X130909454Y-91229501D01*
X130909451Y-91229501D01*
X130730593Y-91257829D01*
X130558368Y-91313787D01*
X130397009Y-91396003D01*
X130323753Y-91449226D01*
X130250500Y-91502448D01*
X130122448Y-91630500D01*
X130069226Y-91703753D01*
X130016003Y-91777009D01*
X129933787Y-91938368D01*
X129877829Y-92110593D01*
X129849501Y-92289450D01*
X129065266Y-92289450D01*
X129059576Y-92268216D01*
X129050044Y-92251708D01*
X129046973Y-92242906D01*
X129046695Y-92230068D01*
X129041444Y-92210594D01*
X129040846Y-92019481D01*
X129033740Y-89749450D01*
X129849501Y-89749450D01*
X129849501Y-89930549D01*
X129877829Y-90109406D01*
X129933787Y-90281631D01*
X129933789Y-90281634D01*
X129933790Y-90281638D01*
X130016005Y-90442993D01*
X130122448Y-90589500D01*
X130250500Y-90717552D01*
X130397007Y-90823995D01*
X130558362Y-90906210D01*
X130730591Y-90962170D01*
X130802136Y-90973501D01*
X130909451Y-90990499D01*
X130909454Y-90990499D01*
X131090549Y-90990499D01*
X131179977Y-90976334D01*
X131269409Y-90962170D01*
X131441638Y-90906210D01*
X131602993Y-90823995D01*
X131749500Y-90717552D01*
X131877552Y-90589500D01*
X131983995Y-90442993D01*
X132066210Y-90281638D01*
X132122170Y-90109409D01*
X132150499Y-89930546D01*
X132150499Y-89749454D01*
X132150499Y-89749450D01*
X132122170Y-89570593D01*
X132122170Y-89570591D01*
X132066210Y-89398362D01*
X131983995Y-89237007D01*
X131877552Y-89090500D01*
X131749500Y-88962448D01*
X131602993Y-88856005D01*
X131602992Y-88856004D01*
X131602990Y-88856003D01*
X131529715Y-88818668D01*
X131441638Y-88773790D01*
X131441634Y-88773789D01*
X131441631Y-88773787D01*
X131269406Y-88717829D01*
X131090549Y-88689501D01*
X131090546Y-88689501D01*
X130909454Y-88689501D01*
X130909451Y-88689501D01*
X130730593Y-88717829D01*
X130558368Y-88773787D01*
X130397009Y-88856003D01*
X130323753Y-88909226D01*
X130250500Y-88962448D01*
X130122448Y-89090500D01*
X130069226Y-89163753D01*
X130016003Y-89237009D01*
X129933787Y-89398368D01*
X129877829Y-89570593D01*
X129849501Y-89749450D01*
X129033740Y-89749450D01*
X129023270Y-86405130D01*
X129849501Y-86405130D01*
X129849501Y-88194869D01*
X129852415Y-88219988D01*
X129852415Y-88219990D01*
X129852416Y-88219991D01*
X129897795Y-88322764D01*
X129977236Y-88402205D01*
X130080009Y-88447584D01*
X130105131Y-88450498D01*
X130105133Y-88450499D01*
X130105135Y-88450499D01*
X131894867Y-88450499D01*
X131894867Y-88450498D01*
X131919991Y-88447584D01*
X132022764Y-88402205D01*
X132102205Y-88322764D01*
X132147584Y-88219991D01*
X132150499Y-88194865D01*
X132150499Y-86405135D01*
X132147584Y-86380009D01*
X132102205Y-86277236D01*
X132022764Y-86197795D01*
X131919991Y-86152416D01*
X131919988Y-86152415D01*
X131894869Y-86149501D01*
X131894865Y-86149501D01*
X130105135Y-86149501D01*
X130105130Y-86149501D01*
X130080011Y-86152415D01*
X129977236Y-86197795D01*
X129897795Y-86277236D01*
X129852415Y-86380011D01*
X129849501Y-86405130D01*
X129023270Y-86405130D01*
X128979279Y-72352683D01*
X128979278Y-72352683D01*
X128979278Y-72352682D01*
X127984823Y-72355934D01*
X127969746Y-72351090D01*
X127953906Y-72351090D01*
X127941347Y-72341965D01*
X127926570Y-72337218D01*
X127917219Y-72324435D01*
X127904406Y-72315126D01*
X127899609Y-72300362D01*
X127890445Y-72287835D01*
X127885499Y-72256935D01*
X127885499Y-72135100D01*
X127904406Y-72076909D01*
X127939551Y-72046891D01*
X128062993Y-71983995D01*
X128209500Y-71877552D01*
X128337552Y-71749500D01*
X128443995Y-71602993D01*
X128526210Y-71441638D01*
X128582170Y-71269409D01*
X128610499Y-71090546D01*
X128610499Y-70909454D01*
X128610499Y-70909450D01*
X128849501Y-70909450D01*
X128849501Y-71090549D01*
X128877829Y-71269406D01*
X128933787Y-71441631D01*
X128933789Y-71441634D01*
X128933790Y-71441638D01*
X129016005Y-71602993D01*
X129122448Y-71749500D01*
X129250500Y-71877552D01*
X129397007Y-71983995D01*
X129558362Y-72066210D01*
X129730591Y-72122170D01*
X129802136Y-72133501D01*
X129909451Y-72150499D01*
X129909454Y-72150499D01*
X130090549Y-72150499D01*
X130187772Y-72135100D01*
X130269409Y-72122170D01*
X130441638Y-72066210D01*
X130602993Y-71983995D01*
X130749500Y-71877552D01*
X130877552Y-71749500D01*
X130983995Y-71602993D01*
X131066210Y-71441638D01*
X131122170Y-71269409D01*
X131150499Y-71090546D01*
X131150499Y-70909454D01*
X131150499Y-70909450D01*
X131122170Y-70730593D01*
X131122170Y-70730591D01*
X131066210Y-70558362D01*
X130983995Y-70397007D01*
X130877552Y-70250500D01*
X130749500Y-70122448D01*
X130602993Y-70016005D01*
X130602992Y-70016004D01*
X130602990Y-70016003D01*
X130529715Y-69978668D01*
X130441638Y-69933790D01*
X130441634Y-69933789D01*
X130441631Y-69933787D01*
X130269406Y-69877829D01*
X130090549Y-69849501D01*
X130090546Y-69849501D01*
X129909454Y-69849501D01*
X129909451Y-69849501D01*
X129730593Y-69877829D01*
X129558368Y-69933787D01*
X129397009Y-70016003D01*
X129323753Y-70069226D01*
X129250500Y-70122448D01*
X129122448Y-70250500D01*
X129069226Y-70323753D01*
X129016003Y-70397009D01*
X128933787Y-70558368D01*
X128877829Y-70730593D01*
X128849501Y-70909450D01*
X128610499Y-70909450D01*
X128582170Y-70730593D01*
X128582170Y-70730591D01*
X128526210Y-70558362D01*
X128443995Y-70397007D01*
X128337552Y-70250500D01*
X128209500Y-70122448D01*
X128062993Y-70016005D01*
X128062992Y-70016004D01*
X128062990Y-70016003D01*
X127989715Y-69978668D01*
X127901638Y-69933790D01*
X127901634Y-69933789D01*
X127901631Y-69933787D01*
X127729406Y-69877829D01*
X127550549Y-69849501D01*
X127550546Y-69849501D01*
X127369454Y-69849501D01*
X127369451Y-69849501D01*
X127190591Y-69877829D01*
X127089021Y-69910830D01*
X127027836Y-69910829D01*
X126988426Y-69886679D01*
X126608231Y-69506484D01*
X126580454Y-69451967D01*
X126590025Y-69391535D01*
X126633290Y-69348270D01*
X126693722Y-69338699D01*
X126736422Y-69356385D01*
X126857007Y-69443995D01*
X127018362Y-69526210D01*
X127190591Y-69582170D01*
X127262136Y-69593501D01*
X127369451Y-69610499D01*
X127369454Y-69610499D01*
X127550549Y-69610499D01*
X127639977Y-69596334D01*
X127729409Y-69582170D01*
X127901638Y-69526210D01*
X128062993Y-69443995D01*
X128209500Y-69337552D01*
X128337552Y-69209500D01*
X128443995Y-69062993D01*
X128526210Y-68901638D01*
X128582170Y-68729409D01*
X128596334Y-68639977D01*
X128610499Y-68550549D01*
X128610499Y-68369450D01*
X128849501Y-68369450D01*
X128849501Y-68550549D01*
X128877829Y-68729406D01*
X128933787Y-68901631D01*
X128933789Y-68901634D01*
X128933790Y-68901638D01*
X128973982Y-68980518D01*
X129014263Y-69059576D01*
X129016005Y-69062993D01*
X129122448Y-69209500D01*
X129250500Y-69337552D01*
X129397007Y-69443995D01*
X129558362Y-69526210D01*
X129730591Y-69582170D01*
X129802136Y-69593501D01*
X129909451Y-69610499D01*
X129909454Y-69610499D01*
X130090549Y-69610499D01*
X130179977Y-69596334D01*
X130269409Y-69582170D01*
X130441638Y-69526210D01*
X130602993Y-69443995D01*
X130749500Y-69337552D01*
X130877552Y-69209500D01*
X130983995Y-69062993D01*
X131066210Y-68901638D01*
X131122170Y-68729409D01*
X131136334Y-68639977D01*
X131150499Y-68550549D01*
X131150499Y-68369450D01*
X131122170Y-68190593D01*
X131122170Y-68190591D01*
X131066210Y-68018362D01*
X130983995Y-67857007D01*
X130877552Y-67710500D01*
X130749500Y-67582448D01*
X130602993Y-67476005D01*
X130602992Y-67476004D01*
X130602990Y-67476003D01*
X130529715Y-67438668D01*
X130441638Y-67393790D01*
X130441634Y-67393789D01*
X130441631Y-67393787D01*
X130269406Y-67337829D01*
X130090549Y-67309501D01*
X130090546Y-67309501D01*
X129909454Y-67309501D01*
X129909451Y-67309501D01*
X129730593Y-67337829D01*
X129558368Y-67393787D01*
X129397009Y-67476003D01*
X129323753Y-67529226D01*
X129250500Y-67582448D01*
X129122448Y-67710500D01*
X129069226Y-67783753D01*
X129016003Y-67857009D01*
X128933787Y-68018368D01*
X128877829Y-68190593D01*
X128849501Y-68369450D01*
X128610499Y-68369450D01*
X128582170Y-68190593D01*
X128582170Y-68190591D01*
X128526210Y-68018362D01*
X128443995Y-67857007D01*
X128337552Y-67710500D01*
X128209500Y-67582448D01*
X128062993Y-67476005D01*
X128062992Y-67476004D01*
X128062990Y-67476003D01*
X127989715Y-67438668D01*
X127901638Y-67393790D01*
X127901634Y-67393789D01*
X127901631Y-67393787D01*
X127729406Y-67337829D01*
X127550549Y-67309501D01*
X127550546Y-67309501D01*
X127369454Y-67309501D01*
X127369451Y-67309501D01*
X127190593Y-67337829D01*
X127018368Y-67393787D01*
X126857009Y-67476003D01*
X126783753Y-67529226D01*
X126710500Y-67582448D01*
X126582448Y-67710500D01*
X126529226Y-67783753D01*
X126476003Y-67857009D01*
X126393787Y-68018368D01*
X126337829Y-68190593D01*
X126309501Y-68369450D01*
X126309501Y-68550549D01*
X126337829Y-68729406D01*
X126393787Y-68901631D01*
X126393789Y-68901634D01*
X126393790Y-68901638D01*
X126433982Y-68980518D01*
X126474263Y-69059576D01*
X126476005Y-69062993D01*
X126563612Y-69183575D01*
X126582519Y-69241764D01*
X126563612Y-69299955D01*
X126514112Y-69335919D01*
X126452926Y-69335919D01*
X126413515Y-69311768D01*
X125629495Y-68527748D01*
X125601718Y-68473231D01*
X125600499Y-68457744D01*
X125600499Y-68420944D01*
X125593950Y-68396502D01*
X125559576Y-68268216D01*
X125480519Y-68131285D01*
X125368715Y-68019481D01*
X125231784Y-67940424D01*
X125079057Y-67899501D01*
X124920943Y-67899501D01*
X124768216Y-67940424D01*
X124631285Y-68019481D01*
X124519481Y-68131285D01*
X124440424Y-68268216D01*
X124399501Y-68420943D01*
X124399501Y-68579057D01*
X124440424Y-68731784D01*
X124519481Y-68868715D01*
X124631285Y-68980519D01*
X124768216Y-69059576D01*
X124920943Y-69100499D01*
X124957744Y-69100499D01*
X125015935Y-69119406D01*
X125027748Y-69129495D01*
X126366298Y-70468045D01*
X126394075Y-70522562D01*
X126390449Y-70568641D01*
X126337829Y-70730593D01*
X126309501Y-70909450D01*
X126309501Y-71090549D01*
X126337829Y-71269406D01*
X126393787Y-71441631D01*
X126393789Y-71441634D01*
X126393790Y-71441638D01*
X126476005Y-71602993D01*
X126582448Y-71749500D01*
X126710500Y-71877552D01*
X126857007Y-71983995D01*
X126980447Y-72046891D01*
X126996837Y-72063281D01*
X127015594Y-72076909D01*
X127018062Y-72084506D01*
X127023711Y-72090155D01*
X127034501Y-72135100D01*
X127034501Y-72260364D01*
X127015594Y-72318555D01*
X126966094Y-72354519D01*
X126935825Y-72359363D01*
X85246940Y-72495662D01*
X85246940Y-72495663D01*
X85351496Y-104475177D01*
X85332780Y-104533430D01*
X85283397Y-104569555D01*
X85252497Y-104574501D01*
X84217254Y-104574501D01*
X84159063Y-104555594D01*
X84147250Y-104545504D01*
X83954495Y-104352748D01*
X83926718Y-104298232D01*
X83925499Y-104282745D01*
X83925499Y-74964742D01*
X83944406Y-74906551D01*
X83954489Y-74894744D01*
X83980519Y-74868715D01*
X84059576Y-74731784D01*
X84100499Y-74579057D01*
X84100499Y-74420943D01*
X84059576Y-74268216D01*
X83980519Y-74131285D01*
X83868715Y-74019481D01*
X83731784Y-73940424D01*
X83579057Y-73899501D01*
X83441254Y-73899501D01*
X83383063Y-73880594D01*
X83347099Y-73831094D01*
X83347099Y-73769908D01*
X83371250Y-73730497D01*
X88647252Y-68454495D01*
X88701769Y-68426718D01*
X88717256Y-68425499D01*
X123056016Y-68425499D01*
X123056018Y-68425499D01*
X123164237Y-68396502D01*
X123164239Y-68396500D01*
X123164241Y-68396500D01*
X123211092Y-68369450D01*
X123261263Y-68340484D01*
X123340484Y-68261263D01*
X125227252Y-66374495D01*
X125281769Y-66346718D01*
X125297256Y-66345499D01*
X126324900Y-66345499D01*
X126383091Y-66364406D01*
X126413108Y-66399551D01*
X126476005Y-66522993D01*
X126582448Y-66669500D01*
X126710500Y-66797552D01*
X126857007Y-66903995D01*
X127018362Y-66986210D01*
X127190591Y-67042170D01*
X127262136Y-67053501D01*
X127369451Y-67070499D01*
X127369454Y-67070499D01*
X127550549Y-67070499D01*
X127639977Y-67056334D01*
X127729409Y-67042170D01*
X127901638Y-66986210D01*
X128062993Y-66903995D01*
X128209500Y-66797552D01*
X128337552Y-66669500D01*
X128443995Y-66522993D01*
X128526210Y-66361638D01*
X128582170Y-66189409D01*
X128610499Y-66010546D01*
X128610499Y-65829454D01*
X128610499Y-65829450D01*
X128582170Y-65650593D01*
X128582170Y-65650591D01*
X128526210Y-65478362D01*
X128443995Y-65317007D01*
X128337552Y-65170500D01*
X128209500Y-65042448D01*
X128062993Y-64936005D01*
X128062992Y-64936004D01*
X128062990Y-64936003D01*
X128026106Y-64917210D01*
X127982841Y-64873945D01*
X127973270Y-64813513D01*
X128001048Y-64758996D01*
X128055564Y-64731219D01*
X128071051Y-64730000D01*
X128357824Y-64730000D01*
X128417370Y-64723598D01*
X128417381Y-64723596D01*
X128552088Y-64673353D01*
X128552090Y-64673352D01*
X128667184Y-64587192D01*
X128667192Y-64587184D01*
X128753352Y-64472090D01*
X128753353Y-64472088D01*
X128803596Y-64337381D01*
X128803598Y-64337370D01*
X128810000Y-64277824D01*
X128810000Y-63991050D01*
X128828907Y-63932859D01*
X128878407Y-63896895D01*
X128939593Y-63896895D01*
X128989093Y-63932859D01*
X128997210Y-63946106D01*
X129016001Y-63982987D01*
X129016002Y-63982989D01*
X129016003Y-63982990D01*
X129016005Y-63982993D01*
X129122448Y-64129500D01*
X129250500Y-64257552D01*
X129397007Y-64363995D01*
X129558362Y-64446210D01*
X129730591Y-64502170D01*
X129802136Y-64513501D01*
X129909451Y-64530499D01*
X129909454Y-64530499D01*
X130090549Y-64530499D01*
X130179977Y-64516334D01*
X130269409Y-64502170D01*
X130441638Y-64446210D01*
X130602993Y-64363995D01*
X130749500Y-64257552D01*
X130877552Y-64129500D01*
X130983995Y-63982993D01*
X131066210Y-63821638D01*
X131122170Y-63649409D01*
X131140924Y-63531000D01*
X131150499Y-63470549D01*
X131150499Y-63289450D01*
X131130666Y-63164231D01*
X131122170Y-63110591D01*
X131066210Y-62938362D01*
X130983995Y-62777007D01*
X130877552Y-62630500D01*
X130749500Y-62502448D01*
X130602993Y-62396005D01*
X130602992Y-62396004D01*
X130602990Y-62396003D01*
X130529715Y-62358668D01*
X130441638Y-62313790D01*
X130441634Y-62313789D01*
X130441631Y-62313787D01*
X130269406Y-62257829D01*
X130090549Y-62229501D01*
X130090546Y-62229501D01*
X129909454Y-62229501D01*
X129909451Y-62229501D01*
X129730593Y-62257829D01*
X129558368Y-62313787D01*
X129397009Y-62396003D01*
X129360377Y-62422618D01*
X129250500Y-62502448D01*
X129122448Y-62630500D01*
X129086133Y-62680484D01*
X129016003Y-62777009D01*
X128997210Y-62813894D01*
X128953945Y-62857159D01*
X128893513Y-62866730D01*
X128838996Y-62838952D01*
X128811219Y-62784436D01*
X128810000Y-62768949D01*
X128810000Y-62482175D01*
X128803598Y-62422629D01*
X128803596Y-62422618D01*
X128753353Y-62287911D01*
X128753352Y-62287909D01*
X128667192Y-62172815D01*
X128667184Y-62172807D01*
X128552090Y-62086647D01*
X128552088Y-62086646D01*
X128417381Y-62036403D01*
X128417370Y-62036401D01*
X128357824Y-62030000D01*
X127710001Y-62030000D01*
X127710000Y-62030001D01*
X127710000Y-62946988D01*
X127652993Y-62914075D01*
X127525826Y-62880000D01*
X127394174Y-62880000D01*
X127267007Y-62914075D01*
X127210000Y-62946988D01*
X127210000Y-62030001D01*
X127209999Y-62030000D01*
X126562176Y-62030000D01*
X126502629Y-62036401D01*
X126502618Y-62036403D01*
X126367911Y-62086646D01*
X126367909Y-62086647D01*
X126252815Y-62172807D01*
X126252807Y-62172815D01*
X126166647Y-62287909D01*
X126166646Y-62287911D01*
X126116403Y-62422618D01*
X126116401Y-62422629D01*
X126110000Y-62482175D01*
X126110000Y-63129999D01*
X126110001Y-63130000D01*
X127026988Y-63130000D01*
X126994075Y-63187007D01*
X126960000Y-63314174D01*
X126960000Y-63445826D01*
X126994075Y-63572993D01*
X127026988Y-63630000D01*
X126110001Y-63630000D01*
X126110000Y-63630001D01*
X126110000Y-64277824D01*
X126109999Y-64277824D01*
X126116401Y-64337370D01*
X126116403Y-64337381D01*
X126166646Y-64472088D01*
X126166647Y-64472090D01*
X126252807Y-64587184D01*
X126252815Y-64587192D01*
X126367909Y-64673352D01*
X126367911Y-64673353D01*
X126502618Y-64723596D01*
X126502629Y-64723598D01*
X126562176Y-64730000D01*
X126848949Y-64730000D01*
X126907140Y-64748907D01*
X126943104Y-64798407D01*
X126943104Y-64859593D01*
X126907140Y-64909093D01*
X126893894Y-64917210D01*
X126857009Y-64936003D01*
X126795740Y-64980518D01*
X126710500Y-65042448D01*
X126582448Y-65170500D01*
X126529226Y-65243753D01*
X126476003Y-65317009D01*
X126439530Y-65388591D01*
X126413108Y-65440447D01*
X126369845Y-65483711D01*
X126324900Y-65494501D01*
X125023982Y-65494501D01*
X124957748Y-65512248D01*
X124915758Y-65523499D01*
X124818739Y-65579514D01*
X122852748Y-67545505D01*
X122798231Y-67573282D01*
X122782744Y-67574501D01*
X88443982Y-67574501D01*
X88389872Y-67588999D01*
X88335761Y-67603498D01*
X88238763Y-67659501D01*
X88238740Y-67659513D01*
X82238737Y-73659516D01*
X82238736Y-73659515D01*
X82159516Y-73738735D01*
X82110235Y-73824093D01*
X82064765Y-73865033D01*
X82003915Y-73871428D01*
X81950927Y-73840835D01*
X81926041Y-73784939D01*
X81925499Y-73774592D01*
X81925499Y-64420943D01*
X97899501Y-64420943D01*
X97899501Y-64579057D01*
X97940424Y-64731784D01*
X98019481Y-64868715D01*
X98131285Y-64980519D01*
X98268216Y-65059576D01*
X98420943Y-65100499D01*
X98420945Y-65100499D01*
X98579055Y-65100499D01*
X98579057Y-65100499D01*
X98731784Y-65059576D01*
X98868715Y-64980519D01*
X98980519Y-64868715D01*
X99059576Y-64731784D01*
X99092831Y-64607670D01*
X99118452Y-64563293D01*
X102078237Y-61603508D01*
X102132752Y-61575733D01*
X102178830Y-61579358D01*
X102310591Y-61622170D01*
X102382136Y-61633501D01*
X102489451Y-61650499D01*
X102489454Y-61650499D01*
X102670549Y-61650499D01*
X102767772Y-61635100D01*
X102849409Y-61622170D01*
X103021638Y-61566210D01*
X103182993Y-61483995D01*
X103329500Y-61377552D01*
X103457552Y-61249500D01*
X103563995Y-61102993D01*
X103646210Y-60941638D01*
X103702170Y-60769409D01*
X103719575Y-60659516D01*
X103730499Y-60590549D01*
X103730499Y-60409450D01*
X103969501Y-60409450D01*
X103969501Y-60590549D01*
X103997829Y-60769406D01*
X104053787Y-60941631D01*
X104053788Y-60941632D01*
X104053790Y-60941638D01*
X104064344Y-60962351D01*
X104121471Y-61074470D01*
X104136005Y-61102993D01*
X104242448Y-61249500D01*
X104370500Y-61377552D01*
X104517007Y-61483995D01*
X104678362Y-61566210D01*
X104850591Y-61622170D01*
X104922136Y-61633501D01*
X105029451Y-61650499D01*
X105029454Y-61650499D01*
X105210549Y-61650499D01*
X105307772Y-61635100D01*
X105389409Y-61622170D01*
X105561638Y-61566210D01*
X105722993Y-61483995D01*
X105869500Y-61377552D01*
X105997552Y-61249500D01*
X106103995Y-61102993D01*
X106186210Y-60941638D01*
X106242170Y-60769409D01*
X106259575Y-60659516D01*
X106270499Y-60590549D01*
X106270499Y-60409450D01*
X106242170Y-60230593D01*
X106242170Y-60230591D01*
X106186210Y-60058362D01*
X106103995Y-59897007D01*
X105997552Y-59750500D01*
X105869500Y-59622448D01*
X105722993Y-59516005D01*
X105722992Y-59516004D01*
X105722990Y-59516003D01*
X105624696Y-59465920D01*
X105561638Y-59433790D01*
X105561634Y-59433789D01*
X105561631Y-59433787D01*
X105389406Y-59377829D01*
X105210549Y-59349501D01*
X105210546Y-59349501D01*
X105029454Y-59349501D01*
X105029451Y-59349501D01*
X104850593Y-59377829D01*
X104678368Y-59433787D01*
X104517009Y-59516003D01*
X104509972Y-59521116D01*
X104370500Y-59622448D01*
X104242448Y-59750500D01*
X104211977Y-59792440D01*
X104136003Y-59897009D01*
X104053787Y-60058368D01*
X103997829Y-60230593D01*
X103969501Y-60409450D01*
X103730499Y-60409450D01*
X103702170Y-60230593D01*
X103702170Y-60230591D01*
X103646210Y-60058362D01*
X103563995Y-59897007D01*
X103457552Y-59750500D01*
X103329500Y-59622448D01*
X103182993Y-59516005D01*
X103182992Y-59516004D01*
X103182990Y-59516003D01*
X103084696Y-59465920D01*
X103021638Y-59433790D01*
X103021634Y-59433789D01*
X103021631Y-59433787D01*
X102849406Y-59377829D01*
X102670549Y-59349501D01*
X102670546Y-59349501D01*
X102489454Y-59349501D01*
X102489451Y-59349501D01*
X102310593Y-59377829D01*
X102138368Y-59433787D01*
X101977009Y-59516003D01*
X101969972Y-59521116D01*
X101830500Y-59622448D01*
X101702448Y-59750500D01*
X101671977Y-59792440D01*
X101596003Y-59897009D01*
X101513787Y-60058368D01*
X101457829Y-60230593D01*
X101429501Y-60409450D01*
X101429501Y-60590549D01*
X101457829Y-60769406D01*
X101500640Y-60901166D01*
X101500640Y-60962351D01*
X101476489Y-61001762D01*
X98607748Y-63870505D01*
X98553231Y-63898282D01*
X98537744Y-63899501D01*
X98420943Y-63899501D01*
X98268216Y-63940424D01*
X98131285Y-64019481D01*
X98019481Y-64131285D01*
X97940424Y-64268216D01*
X97899501Y-64420943D01*
X81925499Y-64420943D01*
X81925499Y-61217256D01*
X81944406Y-61159065D01*
X81954495Y-61147252D01*
X82692297Y-60409450D01*
X86189501Y-60409450D01*
X86189501Y-60590549D01*
X86217829Y-60769406D01*
X86273787Y-60941631D01*
X86273788Y-60941632D01*
X86273790Y-60941638D01*
X86284344Y-60962351D01*
X86341471Y-61074470D01*
X86356005Y-61102993D01*
X86462448Y-61249500D01*
X86590500Y-61377552D01*
X86737007Y-61483995D01*
X86898362Y-61566210D01*
X87070591Y-61622170D01*
X87142136Y-61633501D01*
X87249451Y-61650499D01*
X87249454Y-61650499D01*
X87430549Y-61650499D01*
X87527772Y-61635100D01*
X87609409Y-61622170D01*
X87781638Y-61566210D01*
X87942993Y-61483995D01*
X88089500Y-61377552D01*
X88217552Y-61249500D01*
X88323995Y-61102993D01*
X88406210Y-60941638D01*
X88462170Y-60769409D01*
X88479575Y-60659516D01*
X88490499Y-60590549D01*
X88490499Y-60409450D01*
X88462170Y-60230593D01*
X88462170Y-60230591D01*
X88406210Y-60058362D01*
X88323995Y-59897007D01*
X88217552Y-59750500D01*
X88089500Y-59622448D01*
X87942993Y-59516005D01*
X87942992Y-59516004D01*
X87942990Y-59516003D01*
X87844696Y-59465920D01*
X87781638Y-59433790D01*
X87781634Y-59433789D01*
X87781631Y-59433787D01*
X87609406Y-59377829D01*
X87430549Y-59349501D01*
X87430546Y-59349501D01*
X87249454Y-59349501D01*
X87249451Y-59349501D01*
X87070593Y-59377829D01*
X86898368Y-59433787D01*
X86737009Y-59516003D01*
X86729972Y-59521116D01*
X86590500Y-59622448D01*
X86462448Y-59750500D01*
X86431977Y-59792440D01*
X86356003Y-59897009D01*
X86273787Y-60058368D01*
X86217829Y-60230593D01*
X86189501Y-60409450D01*
X82692297Y-60409450D01*
X86147252Y-56954495D01*
X86201769Y-56926718D01*
X86217256Y-56925499D01*
X91274593Y-56925499D01*
X91332784Y-56944406D01*
X91368748Y-56993906D01*
X91368748Y-57055092D01*
X91332784Y-57104592D01*
X91324093Y-57110235D01*
X91238739Y-57159514D01*
X90027748Y-58370505D01*
X89973231Y-58398282D01*
X89957744Y-58399501D01*
X89920943Y-58399501D01*
X89768216Y-58440424D01*
X89631285Y-58519481D01*
X89519481Y-58631285D01*
X89440424Y-58768216D01*
X89399501Y-58920943D01*
X89399501Y-59079057D01*
X89440424Y-59231784D01*
X89477911Y-59296713D01*
X89490632Y-59356562D01*
X89465745Y-59412457D01*
X89437119Y-59434422D01*
X89277017Y-59515998D01*
X89277010Y-59516002D01*
X89189102Y-59579870D01*
X89130500Y-59622448D01*
X89002448Y-59750500D01*
X88971977Y-59792440D01*
X88896003Y-59897009D01*
X88813787Y-60058368D01*
X88757829Y-60230593D01*
X88729501Y-60409450D01*
X88729501Y-60590549D01*
X88757829Y-60769406D01*
X88813787Y-60941631D01*
X88813788Y-60941632D01*
X88813790Y-60941638D01*
X88824344Y-60962351D01*
X88881471Y-61074470D01*
X88896005Y-61102993D01*
X89002448Y-61249500D01*
X89130500Y-61377552D01*
X89277007Y-61483995D01*
X89438362Y-61566210D01*
X89610591Y-61622170D01*
X89682136Y-61633501D01*
X89789451Y-61650499D01*
X89789454Y-61650499D01*
X89970549Y-61650499D01*
X90067772Y-61635100D01*
X90149409Y-61622170D01*
X90321638Y-61566210D01*
X90482993Y-61483995D01*
X90629500Y-61377552D01*
X90757552Y-61249500D01*
X90863995Y-61102993D01*
X90946210Y-60941638D01*
X91002170Y-60769409D01*
X91019575Y-60659516D01*
X91030499Y-60590549D01*
X91030499Y-60409450D01*
X91269501Y-60409450D01*
X91269501Y-60590549D01*
X91297829Y-60769406D01*
X91353787Y-60941631D01*
X91353788Y-60941632D01*
X91353790Y-60941638D01*
X91364344Y-60962351D01*
X91421471Y-61074470D01*
X91436005Y-61102993D01*
X91542448Y-61249500D01*
X91670500Y-61377552D01*
X91817007Y-61483995D01*
X91978362Y-61566210D01*
X92150591Y-61622170D01*
X92222136Y-61633501D01*
X92329451Y-61650499D01*
X92329454Y-61650499D01*
X92510549Y-61650499D01*
X92607772Y-61635100D01*
X92689409Y-61622170D01*
X92861638Y-61566210D01*
X93022993Y-61483995D01*
X93169500Y-61377552D01*
X93297552Y-61249500D01*
X93403995Y-61102993D01*
X93486210Y-60941638D01*
X93542170Y-60769409D01*
X93559575Y-60659516D01*
X93570499Y-60590549D01*
X93570499Y-60409450D01*
X93809501Y-60409450D01*
X93809501Y-60590549D01*
X93837829Y-60769406D01*
X93893787Y-60941631D01*
X93893788Y-60941632D01*
X93893790Y-60941638D01*
X93904344Y-60962351D01*
X93961471Y-61074470D01*
X93976005Y-61102993D01*
X94082448Y-61249500D01*
X94210500Y-61377552D01*
X94357007Y-61483995D01*
X94518362Y-61566210D01*
X94690591Y-61622170D01*
X94762136Y-61633501D01*
X94869451Y-61650499D01*
X94869454Y-61650499D01*
X95050549Y-61650499D01*
X95147772Y-61635100D01*
X95229409Y-61622170D01*
X95401638Y-61566210D01*
X95562993Y-61483995D01*
X95709500Y-61377552D01*
X95837552Y-61249500D01*
X95943995Y-61102993D01*
X96026210Y-60941638D01*
X96082170Y-60769409D01*
X96099575Y-60659516D01*
X96110499Y-60590549D01*
X96110499Y-60409450D01*
X96349501Y-60409450D01*
X96349501Y-60590549D01*
X96377829Y-60769406D01*
X96433787Y-60941631D01*
X96433788Y-60941632D01*
X96433790Y-60941638D01*
X96444344Y-60962351D01*
X96501471Y-61074470D01*
X96516005Y-61102993D01*
X96622448Y-61249500D01*
X96750500Y-61377552D01*
X96897007Y-61483995D01*
X97058362Y-61566210D01*
X97230591Y-61622170D01*
X97302136Y-61633501D01*
X97409451Y-61650499D01*
X97409454Y-61650499D01*
X97590549Y-61650499D01*
X97687772Y-61635100D01*
X97769409Y-61622170D01*
X97941638Y-61566210D01*
X98102993Y-61483995D01*
X98249500Y-61377552D01*
X98377552Y-61249500D01*
X98483995Y-61102993D01*
X98566210Y-60941638D01*
X98622170Y-60769409D01*
X98639575Y-60659516D01*
X98650499Y-60590549D01*
X98650499Y-60409450D01*
X98622170Y-60230593D01*
X98622170Y-60230591D01*
X98566210Y-60058362D01*
X98483995Y-59897007D01*
X98377552Y-59750500D01*
X98249500Y-59622448D01*
X98102993Y-59516005D01*
X98102992Y-59516004D01*
X98102990Y-59516003D01*
X98004696Y-59465920D01*
X97941638Y-59433790D01*
X97941634Y-59433789D01*
X97941631Y-59433787D01*
X97769406Y-59377829D01*
X97590549Y-59349501D01*
X97590546Y-59349501D01*
X97409454Y-59349501D01*
X97409451Y-59349501D01*
X97230593Y-59377829D01*
X97058368Y-59433787D01*
X96897009Y-59516003D01*
X96889972Y-59521116D01*
X96750500Y-59622448D01*
X96622448Y-59750500D01*
X96591977Y-59792440D01*
X96516003Y-59897009D01*
X96433787Y-60058368D01*
X96377829Y-60230593D01*
X96349501Y-60409450D01*
X96110499Y-60409450D01*
X96082170Y-60230593D01*
X96082170Y-60230591D01*
X96026210Y-60058362D01*
X95943995Y-59897007D01*
X95837552Y-59750500D01*
X95709500Y-59622448D01*
X95562993Y-59516005D01*
X95562992Y-59516004D01*
X95562990Y-59516003D01*
X95464696Y-59465920D01*
X95401638Y-59433790D01*
X95401634Y-59433789D01*
X95401631Y-59433787D01*
X95229406Y-59377829D01*
X95050549Y-59349501D01*
X95050546Y-59349501D01*
X94869454Y-59349501D01*
X94869451Y-59349501D01*
X94690593Y-59377829D01*
X94518368Y-59433787D01*
X94357009Y-59516003D01*
X94349972Y-59521116D01*
X94210500Y-59622448D01*
X94082448Y-59750500D01*
X94051977Y-59792440D01*
X93976003Y-59897009D01*
X93893787Y-60058368D01*
X93837829Y-60230593D01*
X93809501Y-60409450D01*
X93570499Y-60409450D01*
X93542170Y-60230593D01*
X93542170Y-60230591D01*
X93486210Y-60058362D01*
X93403995Y-59897007D01*
X93297552Y-59750500D01*
X93169500Y-59622448D01*
X93022993Y-59516005D01*
X93022992Y-59516004D01*
X93022990Y-59516003D01*
X92924696Y-59465920D01*
X92861638Y-59433790D01*
X92861634Y-59433789D01*
X92861631Y-59433787D01*
X92689406Y-59377829D01*
X92510549Y-59349501D01*
X92510546Y-59349501D01*
X92329454Y-59349501D01*
X92329451Y-59349501D01*
X92150593Y-59377829D01*
X91978368Y-59433787D01*
X91817009Y-59516003D01*
X91809972Y-59521116D01*
X91670500Y-59622448D01*
X91542448Y-59750500D01*
X91511977Y-59792440D01*
X91436003Y-59897009D01*
X91353787Y-60058368D01*
X91297829Y-60230593D01*
X91269501Y-60409450D01*
X91030499Y-60409450D01*
X91002170Y-60230593D01*
X91002170Y-60230591D01*
X90946210Y-60058362D01*
X90863995Y-59897007D01*
X90757552Y-59750500D01*
X90629500Y-59622448D01*
X90490026Y-59521114D01*
X90454063Y-59471616D01*
X90454063Y-59410430D01*
X90478220Y-59371014D01*
X90478273Y-59370960D01*
X90480519Y-59368715D01*
X90559576Y-59231784D01*
X90600499Y-59079057D01*
X90600499Y-59042256D01*
X90619406Y-58984065D01*
X90629495Y-58972252D01*
X91647252Y-57954495D01*
X91701769Y-57926718D01*
X91717256Y-57925499D01*
X98282744Y-57925499D01*
X98340935Y-57944406D01*
X98352748Y-57954495D01*
X99370505Y-58972252D01*
X99398282Y-59026769D01*
X99399501Y-59042256D01*
X99399501Y-59079057D01*
X99440424Y-59231784D01*
X99514280Y-59359706D01*
X99527001Y-59419555D01*
X99502114Y-59475450D01*
X99473490Y-59497415D01*
X99437009Y-59516003D01*
X99429972Y-59521116D01*
X99290500Y-59622448D01*
X99162448Y-59750500D01*
X99131977Y-59792440D01*
X99056003Y-59897009D01*
X98973787Y-60058368D01*
X98917829Y-60230593D01*
X98889501Y-60409450D01*
X98889501Y-60590549D01*
X98917829Y-60769406D01*
X98973787Y-60941631D01*
X98973788Y-60941632D01*
X98973790Y-60941638D01*
X98984344Y-60962351D01*
X99041471Y-61074470D01*
X99056005Y-61102993D01*
X99162448Y-61249500D01*
X99290500Y-61377552D01*
X99437007Y-61483995D01*
X99598362Y-61566210D01*
X99770591Y-61622170D01*
X99842136Y-61633501D01*
X99949451Y-61650499D01*
X99949454Y-61650499D01*
X100130549Y-61650499D01*
X100227772Y-61635100D01*
X100309409Y-61622170D01*
X100481638Y-61566210D01*
X100642993Y-61483995D01*
X100789500Y-61377552D01*
X100917552Y-61249500D01*
X101023995Y-61102993D01*
X101106210Y-60941638D01*
X101162170Y-60769409D01*
X101179575Y-60659516D01*
X101190499Y-60590549D01*
X101190499Y-60409450D01*
X101162170Y-60230593D01*
X101162170Y-60230591D01*
X101106210Y-60058362D01*
X101023995Y-59897007D01*
X100917552Y-59750500D01*
X100789500Y-59622448D01*
X100642993Y-59516005D01*
X100642992Y-59516004D01*
X100642990Y-59516003D01*
X100544696Y-59465920D01*
X100501431Y-59422655D01*
X100491860Y-59362223D01*
X100503903Y-59328212D01*
X100559576Y-59231784D01*
X100600499Y-59079057D01*
X100600499Y-58920943D01*
X100559576Y-58768216D01*
X100480519Y-58631285D01*
X100368715Y-58519481D01*
X100231784Y-58440424D01*
X100079057Y-58399501D01*
X100079055Y-58399501D01*
X100042256Y-58399501D01*
X99984065Y-58380594D01*
X99972252Y-58370505D01*
X99527246Y-57925499D01*
X98761263Y-57159516D01*
X98761260Y-57159514D01*
X98675907Y-57110235D01*
X98634966Y-57064766D01*
X98628570Y-57003915D01*
X98659163Y-56950927D01*
X98715059Y-56926041D01*
X98725407Y-56925499D01*
X106035257Y-56925499D01*
X106093448Y-56944406D01*
X106105259Y-56954494D01*
X106131282Y-56980516D01*
X106131285Y-56980519D01*
X106268216Y-57059576D01*
X106420943Y-57100499D01*
X106420945Y-57100499D01*
X106579055Y-57100499D01*
X106579057Y-57100499D01*
X106731784Y-57059576D01*
X106868715Y-56980519D01*
X106980519Y-56868715D01*
X107049766Y-56748774D01*
X107095234Y-56707836D01*
X107156084Y-56701440D01*
X107209072Y-56732033D01*
X107233959Y-56787928D01*
X107234501Y-56798277D01*
X107234501Y-59364899D01*
X107215594Y-59423090D01*
X107180446Y-59453108D01*
X107057017Y-59515998D01*
X107057010Y-59516002D01*
X106969102Y-59579870D01*
X106910500Y-59622448D01*
X106782448Y-59750500D01*
X106751977Y-59792440D01*
X106676003Y-59897009D01*
X106593787Y-60058368D01*
X106537829Y-60230593D01*
X106509501Y-60409450D01*
X106509501Y-60590549D01*
X106537829Y-60769406D01*
X106593787Y-60941631D01*
X106593788Y-60941632D01*
X106593790Y-60941638D01*
X106604344Y-60962351D01*
X106661471Y-61074470D01*
X106676005Y-61102993D01*
X106782448Y-61249500D01*
X106910500Y-61377552D01*
X107057007Y-61483995D01*
X107180447Y-61546891D01*
X107223711Y-61590155D01*
X107234501Y-61635100D01*
X107234501Y-62122744D01*
X107215594Y-62180935D01*
X107205505Y-62192748D01*
X106352748Y-63045505D01*
X106298231Y-63073282D01*
X106282744Y-63074501D01*
X101964743Y-63074501D01*
X101906552Y-63055594D01*
X101894741Y-63045506D01*
X101868717Y-63019483D01*
X101868715Y-63019481D01*
X101731784Y-62940424D01*
X101579057Y-62899501D01*
X101420943Y-62899501D01*
X101268216Y-62940424D01*
X101131285Y-63019481D01*
X101019481Y-63131285D01*
X100940424Y-63268216D01*
X100899501Y-63420943D01*
X100899501Y-63579057D01*
X100940424Y-63731784D01*
X101019481Y-63868715D01*
X101131285Y-63980519D01*
X101268216Y-64059576D01*
X101420943Y-64100499D01*
X101420945Y-64100499D01*
X101579055Y-64100499D01*
X101579057Y-64100499D01*
X101731784Y-64059576D01*
X101868715Y-63980519D01*
X101881729Y-63967505D01*
X101894741Y-63954494D01*
X101949258Y-63926718D01*
X101964743Y-63925499D01*
X106556016Y-63925499D01*
X106556018Y-63925499D01*
X106664237Y-63896502D01*
X106664239Y-63896500D01*
X106664241Y-63896500D01*
X106712367Y-63868714D01*
X106761263Y-63840484D01*
X106840484Y-63761263D01*
X106840484Y-63761262D01*
X107921260Y-62680485D01*
X107921263Y-62680484D01*
X108000484Y-62601263D01*
X108056502Y-62504237D01*
X108056503Y-62504236D01*
X108085500Y-62396018D01*
X108085500Y-62283982D01*
X108085500Y-62277920D01*
X108085499Y-62277902D01*
X108085499Y-61635100D01*
X108104406Y-61576909D01*
X108139551Y-61546891D01*
X108262993Y-61483995D01*
X108409500Y-61377552D01*
X108537552Y-61249500D01*
X108643995Y-61102993D01*
X108726210Y-60941638D01*
X108782170Y-60769409D01*
X108799575Y-60659516D01*
X108810499Y-60590549D01*
X108810499Y-60409450D01*
X109049501Y-60409450D01*
X109049501Y-60590549D01*
X109077829Y-60769406D01*
X109133787Y-60941631D01*
X109133788Y-60941632D01*
X109133790Y-60941638D01*
X109144344Y-60962351D01*
X109201471Y-61074470D01*
X109216005Y-61102993D01*
X109322448Y-61249500D01*
X109450500Y-61377552D01*
X109597007Y-61483995D01*
X109758362Y-61566210D01*
X109930591Y-61622170D01*
X110002136Y-61633501D01*
X110109451Y-61650499D01*
X110109454Y-61650499D01*
X110290549Y-61650499D01*
X110387772Y-61635100D01*
X110469409Y-61622170D01*
X110641638Y-61566210D01*
X110802993Y-61483995D01*
X110949500Y-61377552D01*
X111077552Y-61249500D01*
X111183995Y-61102993D01*
X111266210Y-60941638D01*
X111322170Y-60769409D01*
X111339575Y-60659516D01*
X111350499Y-60590549D01*
X111350499Y-60409450D01*
X111589501Y-60409450D01*
X111589501Y-60590549D01*
X111617829Y-60769406D01*
X111673787Y-60941631D01*
X111673788Y-60941632D01*
X111673790Y-60941638D01*
X111684344Y-60962351D01*
X111741471Y-61074470D01*
X111756005Y-61102993D01*
X111862448Y-61249500D01*
X111990500Y-61377552D01*
X112137007Y-61483995D01*
X112298362Y-61566210D01*
X112470591Y-61622170D01*
X112542136Y-61633501D01*
X112649451Y-61650499D01*
X112649454Y-61650499D01*
X112830549Y-61650499D01*
X112927772Y-61635100D01*
X113009409Y-61622170D01*
X113181638Y-61566210D01*
X113342993Y-61483995D01*
X113489500Y-61377552D01*
X113617552Y-61249500D01*
X113723995Y-61102993D01*
X113806210Y-60941638D01*
X113862170Y-60769409D01*
X113879575Y-60659516D01*
X113890499Y-60590549D01*
X113890499Y-60409450D01*
X114129501Y-60409450D01*
X114129501Y-60590549D01*
X114157829Y-60769406D01*
X114213787Y-60941631D01*
X114213788Y-60941632D01*
X114213790Y-60941638D01*
X114224344Y-60962351D01*
X114281471Y-61074470D01*
X114296005Y-61102993D01*
X114402448Y-61249500D01*
X114530500Y-61377552D01*
X114677007Y-61483995D01*
X114838362Y-61566210D01*
X115010591Y-61622170D01*
X115082136Y-61633501D01*
X115189451Y-61650499D01*
X115189454Y-61650499D01*
X115370549Y-61650499D01*
X115467772Y-61635100D01*
X115549409Y-61622170D01*
X115721638Y-61566210D01*
X115882993Y-61483995D01*
X116029500Y-61377552D01*
X116157552Y-61249500D01*
X116263995Y-61102993D01*
X116346210Y-60941638D01*
X116350961Y-60927015D01*
X116386922Y-60877516D01*
X116445112Y-60858606D01*
X116503303Y-60877511D01*
X116539269Y-60927009D01*
X116539271Y-60927013D01*
X116568904Y-61018215D01*
X116665376Y-61207553D01*
X116665380Y-61207559D01*
X116704728Y-61261716D01*
X116704729Y-61261716D01*
X117337037Y-60629407D01*
X117354075Y-60692993D01*
X117419901Y-60807007D01*
X117512993Y-60900099D01*
X117627007Y-60965925D01*
X117690589Y-60982962D01*
X117058282Y-61615269D01*
X117058282Y-61615270D01*
X117112440Y-61654619D01*
X117112446Y-61654623D01*
X117301784Y-61751095D01*
X117503878Y-61816759D01*
X117713750Y-61850000D01*
X117926250Y-61850000D01*
X118136121Y-61816759D01*
X118338215Y-61751095D01*
X118527556Y-61654620D01*
X118581716Y-61615270D01*
X117949408Y-60982962D01*
X118012993Y-60965925D01*
X118127007Y-60900099D01*
X118220099Y-60807007D01*
X118285925Y-60692993D01*
X118302962Y-60629408D01*
X118935270Y-61261716D01*
X118974620Y-61207556D01*
X119022291Y-61113998D01*
X119065556Y-61070733D01*
X119125988Y-61061162D01*
X119180504Y-61088939D01*
X119208282Y-61143456D01*
X119209501Y-61158943D01*
X119209501Y-61394869D01*
X119212415Y-61419988D01*
X119212415Y-61419990D01*
X119212416Y-61419991D01*
X119257795Y-61522764D01*
X119337236Y-61602205D01*
X119440009Y-61647584D01*
X119465131Y-61650498D01*
X119465133Y-61650499D01*
X119465135Y-61650499D01*
X121254867Y-61650499D01*
X121254867Y-61650498D01*
X121279991Y-61647584D01*
X121382764Y-61602205D01*
X121462205Y-61522764D01*
X121507584Y-61419991D01*
X121510499Y-61394865D01*
X121510499Y-59605135D01*
X121507584Y-59580009D01*
X121462205Y-59477236D01*
X121382764Y-59397795D01*
X121279991Y-59352416D01*
X121279988Y-59352415D01*
X121254869Y-59349501D01*
X121254865Y-59349501D01*
X119465135Y-59349501D01*
X119465130Y-59349501D01*
X119440011Y-59352415D01*
X119337236Y-59397795D01*
X119257795Y-59477236D01*
X119212415Y-59580011D01*
X119209501Y-59605130D01*
X119209501Y-59841055D01*
X119190594Y-59899246D01*
X119141094Y-59935210D01*
X119079908Y-59935210D01*
X119030408Y-59899246D01*
X119022291Y-59886000D01*
X118974623Y-59792446D01*
X118974619Y-59792440D01*
X118935270Y-59738282D01*
X118935269Y-59738282D01*
X118302962Y-60370589D01*
X118285925Y-60307007D01*
X118220099Y-60192993D01*
X118127007Y-60099901D01*
X118012993Y-60034075D01*
X117949407Y-60017037D01*
X118581716Y-59384729D01*
X118581716Y-59384728D01*
X118527559Y-59345380D01*
X118527553Y-59345376D01*
X118338215Y-59248904D01*
X118136121Y-59183240D01*
X117926250Y-59150000D01*
X117713750Y-59150000D01*
X117503878Y-59183240D01*
X117301784Y-59248904D01*
X117112446Y-59345376D01*
X117112442Y-59345378D01*
X117058282Y-59384728D01*
X117690591Y-60017037D01*
X117627007Y-60034075D01*
X117512993Y-60099901D01*
X117419901Y-60192993D01*
X117354075Y-60307007D01*
X117337037Y-60370591D01*
X116704728Y-59738282D01*
X116665378Y-59792442D01*
X116665376Y-59792446D01*
X116568901Y-59981790D01*
X116539270Y-60072986D01*
X116503306Y-60122486D01*
X116445116Y-60141393D01*
X116386925Y-60122485D01*
X116350961Y-60072985D01*
X116350961Y-60072983D01*
X116346213Y-60058371D01*
X116346212Y-60058370D01*
X116346210Y-60058362D01*
X116263995Y-59897007D01*
X116157552Y-59750500D01*
X116029500Y-59622448D01*
X115882993Y-59516005D01*
X115882990Y-59516003D01*
X115882988Y-59516002D01*
X115872523Y-59510670D01*
X115721638Y-59433790D01*
X115721634Y-59433789D01*
X115721631Y-59433787D01*
X115549406Y-59377829D01*
X115370549Y-59349501D01*
X115370546Y-59349501D01*
X115189454Y-59349501D01*
X115189451Y-59349501D01*
X115010593Y-59377829D01*
X114838368Y-59433787D01*
X114677009Y-59516003D01*
X114669972Y-59521116D01*
X114530500Y-59622448D01*
X114402448Y-59750500D01*
X114371977Y-59792440D01*
X114296003Y-59897009D01*
X114213787Y-60058368D01*
X114157829Y-60230593D01*
X114129501Y-60409450D01*
X113890499Y-60409450D01*
X113862170Y-60230593D01*
X113862170Y-60230591D01*
X113806210Y-60058362D01*
X113723995Y-59897007D01*
X113617552Y-59750500D01*
X113489500Y-59622448D01*
X113342993Y-59516005D01*
X113342992Y-59516004D01*
X113342990Y-59516003D01*
X113244696Y-59465920D01*
X113181638Y-59433790D01*
X113181634Y-59433789D01*
X113181631Y-59433787D01*
X113009406Y-59377829D01*
X112830549Y-59349501D01*
X112830546Y-59349501D01*
X112649454Y-59349501D01*
X112649451Y-59349501D01*
X112470593Y-59377829D01*
X112298368Y-59433787D01*
X112137009Y-59516003D01*
X112129972Y-59521116D01*
X111990500Y-59622448D01*
X111862448Y-59750500D01*
X111831977Y-59792440D01*
X111756003Y-59897009D01*
X111673787Y-60058368D01*
X111617829Y-60230593D01*
X111589501Y-60409450D01*
X111350499Y-60409450D01*
X111322170Y-60230593D01*
X111322170Y-60230591D01*
X111266210Y-60058362D01*
X111183995Y-59897007D01*
X111077552Y-59750500D01*
X110949500Y-59622448D01*
X110802993Y-59516005D01*
X110802992Y-59516004D01*
X110802990Y-59516003D01*
X110704696Y-59465920D01*
X110641638Y-59433790D01*
X110641634Y-59433789D01*
X110641631Y-59433787D01*
X110469406Y-59377829D01*
X110290549Y-59349501D01*
X110290546Y-59349501D01*
X110109454Y-59349501D01*
X110109451Y-59349501D01*
X109930593Y-59377829D01*
X109758368Y-59433787D01*
X109597009Y-59516003D01*
X109589972Y-59521116D01*
X109450500Y-59622448D01*
X109322448Y-59750500D01*
X109291977Y-59792440D01*
X109216003Y-59897009D01*
X109133787Y-60058368D01*
X109077829Y-60230593D01*
X109049501Y-60409450D01*
X108810499Y-60409450D01*
X108782170Y-60230593D01*
X108782170Y-60230591D01*
X108726210Y-60058362D01*
X108643995Y-59897007D01*
X108537552Y-59750500D01*
X108409500Y-59622448D01*
X108262993Y-59516005D01*
X108262989Y-59516002D01*
X108262982Y-59515998D01*
X108139554Y-59453108D01*
X108096289Y-59409844D01*
X108085499Y-59364899D01*
X108085499Y-57057256D01*
X108104406Y-56999065D01*
X108114495Y-56987252D01*
X108647252Y-56454495D01*
X108701769Y-56426718D01*
X108717256Y-56425499D01*
X134535257Y-56425499D01*
X134593448Y-56444406D01*
X134605259Y-56454494D01*
X134631282Y-56480516D01*
X134631285Y-56480519D01*
X134768216Y-56559576D01*
X134920943Y-56600499D01*
X134920945Y-56600499D01*
X135079055Y-56600499D01*
X135079057Y-56600499D01*
X135231784Y-56559576D01*
X135368715Y-56480519D01*
X135480519Y-56368715D01*
X135559576Y-56231784D01*
X135600499Y-56079057D01*
X135600499Y-55920943D01*
X135559576Y-55768216D01*
X135480519Y-55631285D01*
X135368715Y-55519481D01*
X135231784Y-55440424D01*
X135079057Y-55399501D01*
X134920943Y-55399501D01*
X134768216Y-55440424D01*
X134698770Y-55480519D01*
X134631282Y-55519483D01*
X134605259Y-55545506D01*
X134550742Y-55573282D01*
X134535257Y-55574501D01*
X113513740Y-55574501D01*
X113455549Y-55555594D01*
X113419585Y-55506094D01*
X113419585Y-55444908D01*
X113443734Y-55405499D01*
X113480519Y-55368715D01*
X113559576Y-55231784D01*
X113600499Y-55079057D01*
X113600499Y-54920943D01*
X113559576Y-54768216D01*
X113480519Y-54631285D01*
X113368715Y-54519481D01*
X113231784Y-54440424D01*
X113079057Y-54399501D01*
X113079055Y-54399501D01*
X113042256Y-54399501D01*
X112984065Y-54380594D01*
X112972253Y-54370505D01*
X112761262Y-54159515D01*
X112664240Y-54103499D01*
X112664242Y-54103499D01*
X112622251Y-54092248D01*
X112556018Y-54074501D01*
X112556016Y-54074501D01*
X90766254Y-54074501D01*
X90708063Y-54055594D01*
X90672099Y-54006094D01*
X90672099Y-53944908D01*
X90696250Y-53905497D01*
X90942232Y-53659515D01*
X91840484Y-52761263D01*
X91896502Y-52664237D01*
X91925499Y-52556018D01*
X91925499Y-51635100D01*
X91944406Y-51576909D01*
X91979551Y-51546891D01*
X92102993Y-51483995D01*
X92249500Y-51377552D01*
X92377552Y-51249500D01*
X92483995Y-51102993D01*
X92566210Y-50941638D01*
X92622170Y-50769409D01*
X92650499Y-50590546D01*
X92650499Y-50409454D01*
X92650499Y-50409450D01*
X92622170Y-50230593D01*
X92622170Y-50230591D01*
X92566210Y-50058362D01*
X92483995Y-49897007D01*
X92377552Y-49750500D01*
X92249500Y-49622448D01*
X92102993Y-49516005D01*
X92102992Y-49516004D01*
X92102990Y-49516003D01*
X92026905Y-49477236D01*
X91941638Y-49433790D01*
X91941634Y-49433789D01*
X91941631Y-49433787D01*
X91769406Y-49377829D01*
X91590549Y-49349501D01*
X91590546Y-49349501D01*
X91409454Y-49349501D01*
X91409451Y-49349501D01*
X91230593Y-49377829D01*
X91058368Y-49433787D01*
X90897009Y-49516003D01*
X90860377Y-49542618D01*
X90750500Y-49622448D01*
X90622448Y-49750500D01*
X90591977Y-49792440D01*
X90516003Y-49897009D01*
X90433787Y-50058368D01*
X90377829Y-50230593D01*
X90349501Y-50409450D01*
X90349501Y-50590549D01*
X90377829Y-50769406D01*
X90433787Y-50941631D01*
X90433789Y-50941634D01*
X90433790Y-50941638D01*
X90446165Y-50965925D01*
X90516002Y-51102989D01*
X90516005Y-51102993D01*
X90622448Y-51249500D01*
X90750500Y-51377552D01*
X90897007Y-51483995D01*
X91020447Y-51546891D01*
X91063711Y-51590155D01*
X91074501Y-51635100D01*
X91074501Y-52282744D01*
X91055594Y-52340935D01*
X91045505Y-52352748D01*
X89852748Y-53545505D01*
X89798231Y-53573282D01*
X89782744Y-53574501D01*
X81562097Y-53574501D01*
X81562081Y-53574500D01*
X81556018Y-53574500D01*
X81443982Y-53574500D01*
X81358633Y-53597369D01*
X81335761Y-53603498D01*
X81335759Y-53603499D01*
X81238737Y-53659515D01*
X81159515Y-53738736D01*
X81159516Y-53738737D01*
X81159514Y-53738739D01*
X76238737Y-58659515D01*
X76238737Y-58659516D01*
X76238736Y-58659515D01*
X76159516Y-58738735D01*
X76110235Y-58824093D01*
X76064765Y-58865033D01*
X76003915Y-58871428D01*
X75950927Y-58840835D01*
X75926041Y-58784939D01*
X75925499Y-58774592D01*
X75925499Y-58717254D01*
X75944406Y-58659063D01*
X75954489Y-58647256D01*
X84900998Y-49700747D01*
X84955513Y-49672972D01*
X85015945Y-49682543D01*
X85059210Y-49725808D01*
X85070000Y-49770753D01*
X85070000Y-50249999D01*
X85070001Y-50250000D01*
X85986988Y-50250000D01*
X85954075Y-50307007D01*
X85920000Y-50434174D01*
X85920000Y-50565826D01*
X85954075Y-50692993D01*
X85986988Y-50750000D01*
X85070001Y-50750000D01*
X85070000Y-50750001D01*
X85070000Y-51397824D01*
X85069999Y-51397824D01*
X85076401Y-51457370D01*
X85076403Y-51457381D01*
X85126646Y-51592088D01*
X85126647Y-51592090D01*
X85212807Y-51707184D01*
X85212815Y-51707192D01*
X85327909Y-51793352D01*
X85327911Y-51793353D01*
X85462618Y-51843596D01*
X85462629Y-51843598D01*
X85522176Y-51850000D01*
X86169999Y-51850000D01*
X86170000Y-51849999D01*
X86170000Y-50933012D01*
X86227007Y-50965925D01*
X86354174Y-51000000D01*
X86485826Y-51000000D01*
X86612993Y-50965925D01*
X86670000Y-50933012D01*
X86670000Y-51849999D01*
X86670001Y-51850000D01*
X87317824Y-51850000D01*
X87377370Y-51843598D01*
X87377381Y-51843596D01*
X87512088Y-51793353D01*
X87512090Y-51793352D01*
X87627184Y-51707192D01*
X87627192Y-51707184D01*
X87713352Y-51592090D01*
X87713353Y-51592088D01*
X87763596Y-51457381D01*
X87763598Y-51457370D01*
X87770000Y-51397824D01*
X87770000Y-51111050D01*
X87788907Y-51052859D01*
X87838407Y-51016895D01*
X87899593Y-51016895D01*
X87949093Y-51052859D01*
X87957210Y-51066106D01*
X87976001Y-51102987D01*
X87976002Y-51102989D01*
X87976003Y-51102990D01*
X87976005Y-51102993D01*
X88082448Y-51249500D01*
X88210500Y-51377552D01*
X88357007Y-51483995D01*
X88518362Y-51566210D01*
X88690591Y-51622170D01*
X88762136Y-51633501D01*
X88869451Y-51650499D01*
X88869454Y-51650499D01*
X89050549Y-51650499D01*
X89147772Y-51635100D01*
X89229409Y-51622170D01*
X89401638Y-51566210D01*
X89562993Y-51483995D01*
X89709500Y-51377552D01*
X89837552Y-51249500D01*
X89943995Y-51102993D01*
X90026210Y-50941638D01*
X90082170Y-50769409D01*
X90110499Y-50590546D01*
X90110499Y-50409454D01*
X90110499Y-50409450D01*
X90082170Y-50230593D01*
X90082170Y-50230591D01*
X90026210Y-50058362D01*
X89943995Y-49897007D01*
X89837552Y-49750500D01*
X89709500Y-49622448D01*
X89562993Y-49516005D01*
X89562992Y-49516004D01*
X89562990Y-49516003D01*
X89486905Y-49477236D01*
X89401638Y-49433790D01*
X89401634Y-49433789D01*
X89401631Y-49433787D01*
X89229406Y-49377829D01*
X89050549Y-49349501D01*
X89050546Y-49349501D01*
X88869454Y-49349501D01*
X88869451Y-49349501D01*
X88690593Y-49377829D01*
X88518368Y-49433787D01*
X88357009Y-49516003D01*
X88320377Y-49542618D01*
X88210500Y-49622448D01*
X88082448Y-49750500D01*
X88051977Y-49792440D01*
X87976003Y-49897009D01*
X87957210Y-49933894D01*
X87913945Y-49977159D01*
X87853513Y-49986730D01*
X87798996Y-49958952D01*
X87771219Y-49904436D01*
X87770000Y-49888949D01*
X87770000Y-49602175D01*
X87763598Y-49542629D01*
X87763596Y-49542618D01*
X87713353Y-49407911D01*
X87713352Y-49407909D01*
X87627192Y-49292815D01*
X87627184Y-49292807D01*
X87512090Y-49206647D01*
X87512088Y-49206646D01*
X87377381Y-49156403D01*
X87377370Y-49156401D01*
X87317824Y-49150000D01*
X86670001Y-49150000D01*
X86670000Y-49150001D01*
X86670000Y-50066988D01*
X86612993Y-50034075D01*
X86485826Y-50000000D01*
X86354174Y-50000000D01*
X86227007Y-50034075D01*
X86170000Y-50066988D01*
X86170000Y-49150001D01*
X86169999Y-49150000D01*
X85690753Y-49150000D01*
X85668705Y-49142836D01*
X85645808Y-49139210D01*
X85640159Y-49133561D01*
X85632562Y-49131093D01*
X85618934Y-49112336D01*
X85602543Y-49095945D01*
X85601293Y-49088055D01*
X85596598Y-49081593D01*
X85596598Y-49058407D01*
X85592972Y-49035513D01*
X85596598Y-49028396D01*
X85596598Y-49020407D01*
X85620747Y-48980998D01*
X85647252Y-48954493D01*
X85701767Y-48926718D01*
X85717254Y-48925499D01*
X115782744Y-48925499D01*
X115840935Y-48944406D01*
X115852748Y-48954495D01*
X121659516Y-54761263D01*
X121659515Y-54761263D01*
X121738737Y-54840484D01*
X121835759Y-54896500D01*
X121835757Y-54896500D01*
X121835761Y-54896501D01*
X121835763Y-54896502D01*
X121943982Y-54925499D01*
X135282744Y-54925499D01*
X135340935Y-54944406D01*
X135352748Y-54954495D01*
X137045505Y-56647252D01*
X137073282Y-56701769D01*
X137074501Y-56717256D01*
X137074501Y-62782744D01*
X137055594Y-62840935D01*
X137045505Y-62852748D01*
X134432748Y-65465505D01*
X134378231Y-65493282D01*
X134362744Y-65494501D01*
X131135100Y-65494501D01*
X131076909Y-65475594D01*
X131046891Y-65440448D01*
X130983995Y-65317007D01*
X130877552Y-65170500D01*
X130749500Y-65042448D01*
X130602993Y-64936005D01*
X130602992Y-64936004D01*
X130602990Y-64936003D01*
X130481194Y-64873945D01*
X130441638Y-64853790D01*
X130441634Y-64853789D01*
X130441631Y-64853787D01*
X130269406Y-64797829D01*
X130090549Y-64769501D01*
X130090546Y-64769501D01*
X129909454Y-64769501D01*
X129909451Y-64769501D01*
X129730593Y-64797829D01*
X129558368Y-64853787D01*
X129397009Y-64936003D01*
X129335740Y-64980518D01*
X129250500Y-65042448D01*
X129122448Y-65170500D01*
X129069226Y-65243753D01*
X129016003Y-65317009D01*
X128933787Y-65478368D01*
X128877829Y-65650593D01*
X128849501Y-65829450D01*
X128849501Y-66010549D01*
X128877829Y-66189406D01*
X128933787Y-66361631D01*
X128933789Y-66361634D01*
X128933790Y-66361638D01*
X129016005Y-66522993D01*
X129122448Y-66669500D01*
X129250500Y-66797552D01*
X129397007Y-66903995D01*
X129558362Y-66986210D01*
X129730591Y-67042170D01*
X129802136Y-67053501D01*
X129909451Y-67070499D01*
X129909454Y-67070499D01*
X130090549Y-67070499D01*
X130179977Y-67056334D01*
X130269409Y-67042170D01*
X130441638Y-66986210D01*
X130602993Y-66903995D01*
X130749500Y-66797552D01*
X130877552Y-66669500D01*
X130983995Y-66522993D01*
X131046891Y-66399552D01*
X131090155Y-66356289D01*
X131135100Y-66345499D01*
X134636016Y-66345499D01*
X134636018Y-66345499D01*
X134744237Y-66316502D01*
X134744239Y-66316500D01*
X134744241Y-66316500D01*
X134773064Y-66299858D01*
X134841263Y-66260484D01*
X134920484Y-66181263D01*
X134920484Y-66181262D01*
X137761260Y-63340485D01*
X137761263Y-63340484D01*
X137840484Y-63261263D01*
X137896502Y-63164237D01*
X137896503Y-63164236D01*
X137925500Y-63056017D01*
X137925500Y-62943982D01*
X137925500Y-62937920D01*
X137925499Y-62937902D01*
X137925499Y-56443983D01*
X137920873Y-56426718D01*
X137896502Y-56335763D01*
X137896500Y-56335760D01*
X137896500Y-56335758D01*
X137840484Y-56238737D01*
X137761263Y-56159515D01*
X137761263Y-56159516D01*
X135761263Y-54159516D01*
X135761260Y-54159514D01*
X135664240Y-54103499D01*
X135664242Y-54103499D01*
X135622251Y-54092248D01*
X135556018Y-54074501D01*
X135556016Y-54074501D01*
X122217256Y-54074501D01*
X122159065Y-54055594D01*
X122147252Y-54045505D01*
X118495496Y-50393749D01*
X120070000Y-50393749D01*
X120070000Y-50606250D01*
X120103240Y-50816121D01*
X120168904Y-51018215D01*
X120265376Y-51207553D01*
X120265380Y-51207559D01*
X120304728Y-51261716D01*
X120304729Y-51261716D01*
X120937037Y-50629407D01*
X120954075Y-50692993D01*
X121019901Y-50807007D01*
X121112993Y-50900099D01*
X121227007Y-50965925D01*
X121290589Y-50982962D01*
X120658282Y-51615269D01*
X120658282Y-51615270D01*
X120712440Y-51654619D01*
X120712446Y-51654623D01*
X120901784Y-51751095D01*
X121103878Y-51816759D01*
X121313750Y-51850000D01*
X121526250Y-51850000D01*
X121736121Y-51816759D01*
X121938215Y-51751095D01*
X122127556Y-51654620D01*
X122181716Y-51615270D01*
X121549408Y-50982962D01*
X121612993Y-50965925D01*
X121727007Y-50900099D01*
X121820099Y-50807007D01*
X121885925Y-50692993D01*
X121902962Y-50629408D01*
X122535270Y-51261716D01*
X122574620Y-51207556D01*
X122671096Y-51018213D01*
X122700728Y-50927014D01*
X122736692Y-50877514D01*
X122794882Y-50858606D01*
X122853073Y-50877513D01*
X122889037Y-50927013D01*
X122893785Y-50941627D01*
X122893788Y-50941634D01*
X122893790Y-50941638D01*
X122906165Y-50965925D01*
X122976002Y-51102989D01*
X122976005Y-51102993D01*
X123082448Y-51249500D01*
X123210500Y-51377552D01*
X123357007Y-51483995D01*
X123518362Y-51566210D01*
X123690591Y-51622170D01*
X123762136Y-51633501D01*
X123869451Y-51650499D01*
X123869454Y-51650499D01*
X124050549Y-51650499D01*
X124147772Y-51635100D01*
X124229409Y-51622170D01*
X124401638Y-51566210D01*
X124562993Y-51483995D01*
X124709500Y-51377552D01*
X124837552Y-51249500D01*
X124943995Y-51102993D01*
X125026210Y-50941638D01*
X125082170Y-50769409D01*
X125110499Y-50590546D01*
X125110499Y-50409454D01*
X125110499Y-50409450D01*
X125082170Y-50230593D01*
X125082170Y-50230591D01*
X125026210Y-50058362D01*
X124943995Y-49897007D01*
X124837552Y-49750500D01*
X124709500Y-49622448D01*
X124562993Y-49516005D01*
X124562992Y-49516004D01*
X124562990Y-49516003D01*
X124486905Y-49477236D01*
X124401638Y-49433790D01*
X124401634Y-49433789D01*
X124401631Y-49433787D01*
X124229406Y-49377829D01*
X124050549Y-49349501D01*
X124050546Y-49349501D01*
X123869454Y-49349501D01*
X123869451Y-49349501D01*
X123690593Y-49377829D01*
X123518368Y-49433787D01*
X123357009Y-49516003D01*
X123320377Y-49542618D01*
X123210500Y-49622448D01*
X123082448Y-49750500D01*
X123051977Y-49792440D01*
X122976003Y-49897009D01*
X122923892Y-49999283D01*
X122893790Y-50058362D01*
X122893789Y-50058365D01*
X122893787Y-50058369D01*
X122889037Y-50072988D01*
X122853072Y-50122487D01*
X122794881Y-50141393D01*
X122736690Y-50122484D01*
X122700728Y-50072985D01*
X122671096Y-49981786D01*
X122574623Y-49792446D01*
X122574619Y-49792440D01*
X122535270Y-49738282D01*
X122535269Y-49738282D01*
X121902962Y-50370589D01*
X121885925Y-50307007D01*
X121820099Y-50192993D01*
X121727007Y-50099901D01*
X121612993Y-50034075D01*
X121549407Y-50017037D01*
X122181716Y-49384729D01*
X122181716Y-49384728D01*
X122127559Y-49345380D01*
X122127553Y-49345376D01*
X121938215Y-49248904D01*
X121736121Y-49183240D01*
X121526250Y-49150000D01*
X121313750Y-49150000D01*
X121103878Y-49183240D01*
X120901784Y-49248904D01*
X120712446Y-49345376D01*
X120712442Y-49345378D01*
X120658282Y-49384728D01*
X121290591Y-50017037D01*
X121227007Y-50034075D01*
X121112993Y-50099901D01*
X121019901Y-50192993D01*
X120954075Y-50307007D01*
X120937037Y-50370591D01*
X120304728Y-49738282D01*
X120265378Y-49792442D01*
X120265376Y-49792446D01*
X120168904Y-49981784D01*
X120103240Y-50183878D01*
X120070000Y-50393749D01*
X118495496Y-50393749D01*
X116696250Y-48594503D01*
X116668473Y-48539986D01*
X116678044Y-48479554D01*
X116721309Y-48436289D01*
X116766254Y-48425499D01*
X125282744Y-48425499D01*
X125340935Y-48444406D01*
X125352748Y-48454495D01*
X126045505Y-49147251D01*
X126049131Y-49154368D01*
X126055594Y-49159064D01*
X126062757Y-49181112D01*
X126073282Y-49201768D01*
X126074501Y-49217255D01*
X126074501Y-49250501D01*
X126055594Y-49308692D01*
X126006094Y-49344656D01*
X125975501Y-49349501D01*
X125605130Y-49349501D01*
X125580011Y-49352415D01*
X125477236Y-49397795D01*
X125397795Y-49477236D01*
X125352415Y-49580011D01*
X125349501Y-49605130D01*
X125349501Y-51394869D01*
X125352415Y-51419988D01*
X125352415Y-51419990D01*
X125352416Y-51419991D01*
X125397795Y-51522764D01*
X125477236Y-51602205D01*
X125580009Y-51647584D01*
X125605131Y-51650498D01*
X125605133Y-51650499D01*
X125605135Y-51650499D01*
X127394867Y-51650499D01*
X127394867Y-51650498D01*
X127419991Y-51647584D01*
X127522764Y-51602205D01*
X127602205Y-51522764D01*
X127647584Y-51419991D01*
X127650499Y-51394865D01*
X127650499Y-49605135D01*
X127647584Y-49580009D01*
X127602205Y-49477236D01*
X127522764Y-49397795D01*
X127419991Y-49352416D01*
X127419988Y-49352415D01*
X127394869Y-49349501D01*
X127394865Y-49349501D01*
X127024499Y-49349501D01*
X127009587Y-49344656D01*
X126993906Y-49344656D01*
X126981220Y-49335439D01*
X126966308Y-49330594D01*
X126957091Y-49317908D01*
X126944406Y-49308692D01*
X126939560Y-49293779D01*
X126930344Y-49281094D01*
X126925499Y-49250501D01*
X126925499Y-49064005D01*
X126925500Y-49063992D01*
X126925500Y-48943984D01*
X126925500Y-48943983D01*
X126896503Y-48835764D01*
X126853489Y-48761263D01*
X126840484Y-48738737D01*
X126761263Y-48659516D01*
X126761260Y-48659514D01*
X125761263Y-47659516D01*
X125761260Y-47659514D01*
X125664240Y-47603499D01*
X125664242Y-47603499D01*
X125622251Y-47592248D01*
X125556018Y-47574501D01*
X84943982Y-47574501D01*
X84877748Y-47592248D01*
X84835758Y-47603499D01*
X84738739Y-47659514D01*
X74238737Y-58159516D01*
X74238736Y-58159515D01*
X74159515Y-58238737D01*
X74103499Y-58335758D01*
X74103498Y-58335763D01*
X74074501Y-58443982D01*
X74074501Y-112556018D01*
X74103498Y-112664237D01*
X74146510Y-112738735D01*
X74146511Y-112738739D01*
X74146512Y-112738739D01*
X74159513Y-112761259D01*
X74159514Y-112761260D01*
X74159516Y-112761263D01*
X74911993Y-113513740D01*
X75659515Y-114261262D01*
X75659516Y-114261263D01*
X75659515Y-114261263D01*
X75738737Y-114340484D01*
X75835759Y-114396500D01*
X75835757Y-114396500D01*
X75835761Y-114396501D01*
X75835763Y-114396502D01*
X75943982Y-114425499D01*
X76056017Y-114425499D01*
X101782744Y-114425499D01*
X101840935Y-114444406D01*
X101852748Y-114454495D01*
X104101694Y-116703441D01*
X104129471Y-116757958D01*
X104119900Y-116818390D01*
X104076635Y-116861655D01*
X104016203Y-116871226D01*
X103976689Y-116855761D01*
X103879175Y-116790605D01*
X103733497Y-116730264D01*
X103578844Y-116699501D01*
X103578842Y-116699501D01*
X75578842Y-116699501D01*
X75421158Y-116699501D01*
X75421155Y-116699501D01*
X75266503Y-116730264D01*
X75266501Y-116730264D01*
X75120826Y-116790604D01*
X75120815Y-116790610D01*
X74989712Y-116878212D01*
X74989708Y-116878215D01*
X72378209Y-119489714D01*
X72290605Y-119620824D01*
X72230264Y-119766501D01*
X72230264Y-119766503D01*
X72199501Y-119921155D01*
X72199501Y-121123150D01*
X72180594Y-121181341D01*
X72170507Y-121193151D01*
X72160588Y-121203070D01*
X72160582Y-121203077D01*
X72058770Y-121343209D01*
X72058768Y-121343213D01*
X71980126Y-121497558D01*
X71980124Y-121497561D01*
X71926599Y-121662293D01*
X71926598Y-121662297D01*
X71899501Y-121833385D01*
X70000500Y-121833385D01*
X70000500Y-45893709D01*
X71649500Y-45893709D01*
X71649500Y-46106290D01*
X71682752Y-46316238D01*
X71748443Y-46518412D01*
X71844948Y-46707815D01*
X71844950Y-46707819D01*
X71969891Y-46879786D01*
X71969893Y-46879788D01*
X71969896Y-46879792D01*
X72120208Y-47030104D01*
X72120211Y-47030106D01*
X72120213Y-47030108D01*
X72292180Y-47155049D01*
X72292184Y-47155051D01*
X72481588Y-47251557D01*
X72683757Y-47317246D01*
X72683758Y-47317246D01*
X72683761Y-47317247D01*
X72893710Y-47350500D01*
X72893713Y-47350500D01*
X73106290Y-47350500D01*
X73316238Y-47317247D01*
X73316239Y-47317246D01*
X73316243Y-47317246D01*
X73518412Y-47251557D01*
X73707816Y-47155051D01*
X73879792Y-47030104D01*
X74030104Y-46879792D01*
X74155051Y-46707816D01*
X74251557Y-46518412D01*
X74317246Y-46316243D01*
X74350500Y-46106287D01*
X74350500Y-45893713D01*
X74350500Y-45893709D01*
X134649500Y-45893709D01*
X134649500Y-46106290D01*
X134682752Y-46316238D01*
X134748443Y-46518412D01*
X134844948Y-46707815D01*
X134844950Y-46707819D01*
X134969891Y-46879786D01*
X134969893Y-46879788D01*
X134969896Y-46879792D01*
X135120208Y-47030104D01*
X135120211Y-47030106D01*
X135120213Y-47030108D01*
X135292180Y-47155049D01*
X135292184Y-47155051D01*
X135481588Y-47251557D01*
X135683757Y-47317246D01*
X135683758Y-47317246D01*
X135683761Y-47317247D01*
X135893710Y-47350500D01*
X135893713Y-47350500D01*
X136106290Y-47350500D01*
X136316238Y-47317247D01*
X136316239Y-47317246D01*
X136316243Y-47317246D01*
X136518412Y-47251557D01*
X136707816Y-47155051D01*
X136879792Y-47030104D01*
X137030104Y-46879792D01*
X137155051Y-46707816D01*
X137251557Y-46518412D01*
X137317246Y-46316243D01*
X137350500Y-46106287D01*
X137350500Y-45893713D01*
X137350500Y-45893709D01*
X137317247Y-45683761D01*
X137317246Y-45683757D01*
X137251557Y-45481588D01*
X137155051Y-45292184D01*
X137155049Y-45292180D01*
X137030108Y-45120213D01*
X137030106Y-45120211D01*
X137030104Y-45120208D01*
X136879792Y-44969896D01*
X136879788Y-44969893D01*
X136879786Y-44969891D01*
X136707819Y-44844950D01*
X136707815Y-44844948D01*
X136518412Y-44748443D01*
X136316238Y-44682752D01*
X136106290Y-44649500D01*
X136106287Y-44649500D01*
X135893713Y-44649500D01*
X135893710Y-44649500D01*
X135683761Y-44682752D01*
X135481587Y-44748443D01*
X135292184Y-44844948D01*
X135292180Y-44844950D01*
X135120213Y-44969891D01*
X134969891Y-45120213D01*
X134844950Y-45292180D01*
X134844948Y-45292184D01*
X134748443Y-45481587D01*
X134682752Y-45683761D01*
X134649500Y-45893709D01*
X74350500Y-45893709D01*
X74317247Y-45683761D01*
X74317246Y-45683757D01*
X74251557Y-45481588D01*
X74155051Y-45292184D01*
X74155049Y-45292180D01*
X74030108Y-45120213D01*
X74030106Y-45120211D01*
X74030104Y-45120208D01*
X73879792Y-44969896D01*
X73879788Y-44969893D01*
X73879786Y-44969891D01*
X73707819Y-44844950D01*
X73707815Y-44844948D01*
X73518412Y-44748443D01*
X73316238Y-44682752D01*
X73106290Y-44649500D01*
X73106287Y-44649500D01*
X72893713Y-44649500D01*
X72893710Y-44649500D01*
X72683761Y-44682752D01*
X72481587Y-44748443D01*
X72292184Y-44844948D01*
X72292180Y-44844950D01*
X72120213Y-44969891D01*
X71969891Y-45120213D01*
X71844950Y-45292180D01*
X71844948Y-45292184D01*
X71748443Y-45481587D01*
X71682752Y-45683761D01*
X71649500Y-45893709D01*
X70000500Y-45893709D01*
X70000500Y-43099500D01*
X70019407Y-43041309D01*
X70068907Y-43005345D01*
X70099500Y-43000500D01*
X138900500Y-43000500D01*
X138958691Y-43019407D01*
G37*
%TD.AperFunction*%
%TD*%
M02*
