M48
; DRILL file KiCad 10.0.1 date 2026-05-19T15:37:27
; FORMAT={-:-/ absolute / metric / decimal}
; #@! TF.CreationDate,2026-05-19T15:37:27-04:00
; #@! TF.GenerationSoftware,Kicad,Pcbnew,10.0.1
; #@! TF.FileFunction,Plated,1,2,PTH
FMAT,2
METRIC
; #@! TA.AperFunction,Plated,PTH,ViaDrill
T1C0.300
; #@! TA.AperFunction,Plated,PTH,ComponentDrill
T2C0.800
; #@! TA.AperFunction,Plated,PTH,ComponentDrill
T3C1.000
%
G90
G05
T1
X75.5Y-119.5
X77.5Y-61.5
X78.5Y-64.0
X83.5Y-74.5
X84.0Y-55.5
X84.0Y-139.0
X86.5Y-119.5
X89.0Y-132.0
X90.0Y-59.0
X92.0Y-132.0
X98.5Y-64.5
X100.0Y-59.0
X101.5Y-63.5
X106.5Y-56.5
X111.0Y-114.0
X112.0Y-107.5
X112.0Y-113.0
X113.0Y-55.0
X113.0Y-107.5
X113.0Y-113.0
X114.0Y-107.5
X114.0Y-113.0
X114.0Y-114.5
X122.0Y-117.5
X125.0Y-68.5
X125.5Y-76.5
X127.5Y-88.5
X128.5Y-58.5
X128.5Y-92.5
X128.5Y-113.5
X131.5Y-58.5
X134.5Y-90.0
X134.5Y-92.5
X135.0Y-56.0
X137.0Y-95.0
X138.5Y-93.0
T2
X73.0Y-121.92
X73.0Y-132.08
X77.0Y-121.92
X77.0Y-132.08
X81.0Y-121.92
X81.0Y-132.08
X85.0Y-121.92
X85.0Y-132.08
X130.5Y-117.5
X130.5Y-119.5
T3
X74.5Y-138.0
X77.04Y-138.0
X86.42Y-50.5
X87.34Y-60.5
X88.96Y-50.5
X89.88Y-60.5
X91.5Y-50.5
X92.42Y-60.5
X94.96Y-60.5
X97.5Y-60.5
X97.5Y-122.76
X97.5Y-138.0
X100.04Y-60.5
X100.04Y-122.76
X100.04Y-138.0
X102.58Y-60.5
X102.58Y-122.76
X102.58Y-138.0
X105.12Y-60.5
X105.12Y-122.76
X105.12Y-138.0
X107.66Y-60.5
X107.66Y-122.76
X107.66Y-138.0
X110.2Y-60.5
X110.2Y-122.76
X110.2Y-138.0
X112.74Y-60.5
X112.74Y-122.76
X112.74Y-138.0
X115.28Y-60.5
X115.28Y-122.76
X115.28Y-138.0
X117.82Y-60.5
X117.82Y-122.76
X117.82Y-138.0
X120.36Y-60.5
X120.36Y-122.76
X120.36Y-138.0
X121.42Y-50.5
X122.9Y-122.76
X122.9Y-138.0
X123.96Y-50.5
X125.44Y-122.76
X125.44Y-138.0
X126.5Y-50.5
X127.46Y-63.38
X127.46Y-65.92
X127.46Y-68.46
X127.46Y-71.0
X127.98Y-122.76
X127.98Y-138.0
X130.0Y-63.38
X130.0Y-65.92
X130.0Y-68.46
X130.0Y-71.0
X130.52Y-122.76
X130.52Y-138.0
X131.0Y-87.3
X131.0Y-89.84
X131.0Y-92.38
X131.0Y-94.92
X131.0Y-97.46
X131.0Y-100.0
X131.0Y-102.54
X131.0Y-105.08
X133.06Y-122.76
X133.06Y-138.0
M30
